<svg xmlns="http://www.w3.org/2000/svg" xmlns:xlink="http://www.w3.org/1999/xlink" contentStyleType="text/css" data-diagram-type="DESCRIPTION" height="416px" preserveAspectRatio="none" style="width:402px;height:416px;background:#FFFFFF;" version="1.1" viewBox="0 0 402 416" width="402px" zoomAndPan="magnify"><?plantuml 1.2026.6?><defs/><g><g class="title" data-source-line="2"><text fill="#000000" font-family="sans-serif" font-size="14" font-weight="700" lengthAdjust="spacing" textLength="129.9375" x="132.5313" y="24.5332">&#20114;&#21160;&#19982;&#30452;&#25773;&#22495;&#29992;&#20363;&#22270;</text></g><!--cluster DanmakuStream--><g class="cluster" data-qualified-name="DanmakuStream" data-source-line="9" id="ent0004"><rect fill="none" height="274" rx="5" ry="5" style="stroke:#7C93A8;stroke-width:1;" width="249" x="139" y="45.6094"/><text fill="#000000" font-family="sans-serif" font-size="14" font-weight="700" lengthAdjust="spacing" textLength="110.4893" x="208.2554" y="62.1426">DanmakuStream</text></g><!--entity UC05--><g class="entity" data-qualified-name="DanmakuStream.UC05" data-source-line="10" id="ent0005"><ellipse cx="263.6655" cy="107.6098" fill="#F7FAFC" rx="56.6655" ry="25.5004" style="stroke:#315A7D;stroke-width:0.5;"/><text fill="#000000" font-family="sans-serif" font-size="14" lengthAdjust="spacing" textLength="35.793" x="245.7691" y="100.5068">UC05</text><text fill="#000000" font-family="sans-serif" font-size="14" lengthAdjust="spacing" textLength="84" x="221.6655" y="118.1161">&#35270;&#39057;&#35266;&#30475;&#20114;&#21160;</text></g><!--entity UC09--><g class="entity" data-qualified-name="DanmakuStream.UC09" data-source-line="11" id="ent0006"><ellipse cx="263.5191" cy="193.8361" fill="#F7FAFC" rx="82.5191" ry="25.2267" style="stroke:#315A7D;stroke-width:0.5;"/><text fill="#000000" font-family="sans-serif" font-size="14" lengthAdjust="spacing" textLength="35.793" x="245.6226" y="186.289">UC09</text><text fill="#000000" font-family="sans-serif" font-size="14" lengthAdjust="spacing" textLength="126" x="200.5191" y="203.8983">&#30452;&#25773;&#39044;&#32422;&#19982;&#29992;&#25143;&#39044;&#32422;</text></g><!--entity UC10--><g class="entity" data-qualified-name="DanmakuStream.UC10" data-source-line="12" id="ent0007"><ellipse cx="263.5747" cy="278.7416" fill="#F7FAFC" rx="108.5747" ry="25.1322" style="stroke:#315A7D;stroke-width:0.5;"/><text fill="#000000" font-family="sans-serif" font-size="14" lengthAdjust="spacing" textLength="35.793" x="245.6782" y="271.0391">UC10</text><text fill="#000000" font-family="sans-serif" font-size="14" lengthAdjust="spacing" textLength="168" x="179.5747" y="288.6484">&#30452;&#25773;&#21457;&#24067;&#12289;&#35266;&#30475;&#19982;&#23454;&#26102;&#20114;&#21160;</text></g><!--entity Viewer--><g class="entity" data-qualified-name="Viewer" data-source-line="5" id="ent0001"><ellipse cx="50.4448" cy="112.6094" fill="#EAF3FA" rx="16" ry="16" style="stroke:#315A7D;stroke-width:0.5;"/><path d="M50.4448,132.6094 C54.4448,132.6094 57.4448,132.6094 61.4448,128.6094 C69.4448,128.6094 77.4448,136.6094 77.4448,144.6094 L77.4448,148.6094 C77.4448,152.6094 73.4448,156.6094 69.4448,156.6094 L31.4448,156.6094 C27.4448,156.6094 23.4448,152.6094 23.4448,148.6094 L23.4448,144.6094 C23.4448,136.6094 31.4448,128.6094 39.4448,128.6094 C43.4448,132.6094 46.4448,132.6094 50.4448,132.6094" fill="#EAF3FA" style="stroke:#315A7D;stroke-width:0.5;"/><text fill="#000000" font-family="sans-serif" font-size="14" lengthAdjust="spacing" textLength="87.8896" x="6.5" y="171.6426">&#26222;&#36890;&#29992;&#25143;/&#35266;&#20247;</text></g><!--entity Anchor--><g class="entity" data-qualified-name="Anchor" data-source-line="6" id="ent0002"><ellipse cx="50.5" cy="226.6094" fill="#EAF3FA" rx="16" ry="16" style="stroke:#315A7D;stroke-width:0.5;"/><path d="M50.5,246.6094 C54.5,246.6094 57.5,246.6094 61.5,242.6094 C69.5,242.6094 77.5,250.6094 77.5,258.6094 L77.5,262.6094 C77.5,266.6094 73.5,270.6094 69.5,270.6094 L31.5,270.6094 C27.5,270.6094 23.5,266.6094 23.5,262.6094 L23.5,258.6094 C23.5,250.6094 31.5,242.6094 39.5,242.6094 C43.5,246.6094 46.5,246.6094 50.5,246.6094" fill="#EAF3FA" style="stroke:#315A7D;stroke-width:0.5;"/><text fill="#000000" font-family="sans-serif" font-size="14" lengthAdjust="spacing" textLength="28" x="36.5" y="285.6426">&#20027;&#25773;</text></g><!--entity SRS--><g class="entity" data-qualified-name="SRS" data-source-line="7" id="ent0003"><ellipse cx="50.3379" cy="340.6094" fill="#EAF3FA" rx="16" ry="16" style="stroke:#315A7D;stroke-width:0.5;"/><path d="M50.3379,360.6094 C54.3379,360.6094 57.3379,360.6094 61.3379,356.6094 C69.3379,356.6094 77.3379,364.6094 77.3379,372.6094 L77.3379,376.6094 C77.3379,380.6094 73.3379,384.6094 69.3379,384.6094 L31.3379,384.6094 C27.3379,384.6094 23.3379,380.6094 23.3379,376.6094 L23.3379,372.6094 C23.3379,364.6094 31.3379,356.6094 39.3379,356.6094 C43.3379,360.6094 46.3379,360.6094 50.3379,360.6094" fill="#EAF3FA" style="stroke:#315A7D;stroke-width:0.5;"/><text fill="#000000" font-family="sans-serif" font-size="14" lengthAdjust="spacing" textLength="88.6758" x="6" y="399.6426">SRS &#30452;&#25773;&#26381;&#21153;</text></g><!--link Viewer to UC05--><g class="link" data-entity-1="ent0001" data-entity-2="ent0005" data-link-type="association" data-source-line="15" id="lnk8"><path d="M94.71,129.8794 C127.74,125.4894 173.48,119.4194 208.85,114.7294" fill="none" id="Viewer-UC05" style="stroke:#315A7D;stroke-width:1.2;"/></g><!--link Viewer to UC09--><g class="link" data-entity-1="ent0001" data-entity-2="ent0006" data-link-type="association" data-source-line="16" id="lnk9"><path d="M94.71,147.4894 C125.57,155.9694 167.52,167.4994 201.75,176.9094" fill="none" id="Viewer-UC09" style="stroke:#315A7D;stroke-width:1.2;"/></g><!--link Anchor to UC09--><g class="link" data-entity-1="ent0002" data-entity-2="ent0006" data-link-type="association" data-source-line="17" id="lnk10"><path d="M78.22,242.5194 C108.83,234.3894 159.99,220.8194 200.65,210.0294" fill="none" id="Anchor-UC09" style="stroke:#315A7D;stroke-width:1.2;"/></g><!--link Viewer to UC10--><g class="link" data-entity-1="ent0001" data-entity-2="ent0007" data-link-type="association" data-source-line="18" id="lnk11"><path d="M82.17,175.2594 C103.15,202.1894 127.73,233.3394 131,235.6094 C146.97,246.7194 166,255.0994 184.56,261.3694" fill="none" id="Viewer-UC10" style="stroke:#315A7D;stroke-width:1.2;"/></g><!--link Anchor to UC10--><g class="link" data-entity-1="ent0002" data-entity-2="ent0007" data-link-type="association" data-source-line="19" id="lnk12"><path d="M78.22,253.2794 C101.4,256.4694 136.36,261.2694 169.62,265.8494" fill="none" id="Anchor-UC10" style="stroke:#315A7D;stroke-width:1.2;"/></g><!--link SRS to UC10--><g class="link" data-entity-1="ent0003" data-entity-2="ent0007" data-link-type="association" data-source-line="20" id="lnk13"><path d="M95.22,345.9994 C128.17,332.7194 173.54,314.4494 208.72,300.2694" fill="none" id="SRS-UC10" style="stroke:#315A7D;stroke-width:1.2;"/></g><?plantuml-src NL3DJi906BplKtpsJe63XnwDFe54JoHcKrRQs6vDkuq7Ou8_CGOY1c9252AHWt2Haz463IzZjwLluRPB2NZRsPdvPhvlowIwvTS8g6hnY1d49kgfRrk8cSmY4Cwwl3a9WtRS_uYwxtmuZ1yduRp5-tDaaMC6p07Nh1iCQgPBT6Ow526iCyS59NgQ9erdeO_klegByLNuqrC0Ut1eaZFYvgem-1Q3CsA7weQp8Yhx5P2fqU2UDrypYVX4A0t2j2xgANkOslZ4hp2NO5k1SmJWUqJ7dk0ETalRLReOtoQZZeYF1osvJJOe9V-9jIgLUSde9fwzfKjdtINCNTgcgrpANVoXmuFhtyRbCYjey-bBrFlS22sNq0L2yW9GACWQ6r13yWmhkCuA-pehO7gbvViF?></g></svg>