<svg xmlns="http://www.w3.org/2000/svg" xmlns:xlink="http://www.w3.org/1999/xlink" contentStyleType="text/css" height="515px" preserveAspectRatio="none" style="width:737px;height:515px;background:#FFFFFF;" version="1.1" viewBox="0 0 737 515" width="737px" zoomAndPan="magnify"><defs/><g><text fill="#000000" font-family="sans-serif" font-size="14" font-weight="bold" lengthAdjust="spacing" textLength="215.4414" x="253.7793" y="26.0439">DanmakuStream &#22235;&#20010;&#29992;&#20363;&#24635;&#35272;&#22270;</text><!--cluster DanmakuStream--><g id="cluster_DanmakuStream"><rect fill="none" height="462" rx="2.5" ry="2.5" style="stroke:#181818;stroke-width:1.0;" width="622" x="109" y="47.1201"/><text fill="#000000" font-family="sans-serif" font-size="14" font-weight="bold" lengthAdjust="spacing" textLength="110.4893" x="364.7554" y="65.1641">DanmakuStream</text></g><g id="elem_UC01"><ellipse cx="274.2792" cy="115.16" fill="#F1F1F1" rx="130.2792" ry="30.0399" style="stroke:#181818;stroke-width:0.5;"/><text fill="#000000" font-family="sans-serif" font-size="14" lengthAdjust="spacing" textLength="35.793" x="256.3827" y="110.0839">UC01</text><text fill="#000000" font-family="sans-serif" font-size="14" lengthAdjust="spacing" textLength="168" x="190.2792" y="129.204">&#29992;&#25143;&#27880;&#20876;&#12289;&#30331;&#24405;&#19982;&#36164;&#26009;&#32500;&#25252;</text></g><g id="elem_UC07"><ellipse cx="274.4939" cy="307.9189" fill="#F1F1F1" rx="149.4939" ry="32.2988" style="stroke:#181818;stroke-width:0.5;"/><text fill="#000000" font-family="sans-serif" font-size="14" lengthAdjust="spacing" textLength="35.793" x="256.5974" y="302.8427">UC07</text><text fill="#000000" font-family="sans-serif" font-size="14" lengthAdjust="spacing" textLength="210" x="169.4939" y="321.9628">&#20851;&#27880;&#20851;&#31995;&#12289;&#20998;&#32452;&#12289;&#23631;&#34109;&#19982;&#20869;&#23481;&#36890;&#30693;</text></g><g id="elem_UC08"><ellipse cx="274.2817" cy="210.16" fill="#F1F1F1" rx="80.7817" ry="30.0399" style="stroke:#181818;stroke-width:0.5;"/><text fill="#000000" font-family="sans-serif" font-size="14" lengthAdjust="spacing" textLength="35.793" x="256.3853" y="205.0839">UC08</text><text fill="#000000" font-family="sans-serif" font-size="14" lengthAdjust="spacing" textLength="98" x="225.2817" y="224.204">&#21019;&#20316;&#32773;&#20250;&#21592;&#35746;&#38405;</text></g><g id="elem_UC11"><ellipse cx="274.5807" cy="406.16" fill="#F1F1F1" rx="100.5807" ry="30.0399" style="stroke:#181818;stroke-width:0.5;"/><text fill="#000000" font-family="sans-serif" font-size="14" lengthAdjust="spacing" textLength="35.793" x="256.6843" y="401.0839">UC11</text><text fill="#000000" font-family="sans-serif" font-size="14" lengthAdjust="spacing" textLength="126" x="211.5807" y="420.204">&#29992;&#25143;&#31169;&#20449;&#19982;&#23186;&#20307;&#20998;&#20139;</text></g><g id="elem_AUTH"><ellipse cx="627.944" cy="221.9089" fill="#F1F1F1" rx="79.444" ry="18.2888" style="stroke:#181818;stroke-width:0.5;"/><text fill="#000000" font-family="sans-serif" font-size="14" lengthAdjust="spacing" textLength="106.5449" x="571.6716" y="227.1809">&#37492;&#26435;&#19982; JWT &#26657;&#39564;</text></g><g id="elem_NOTIFY"><ellipse cx="628.1469" cy="365.158" fill="#F1F1F1" rx="51.1469" ry="16.5378" style="stroke:#181818;stroke-width:0.5;"/><text fill="#000000" font-family="sans-serif" font-size="14" lengthAdjust="spacing" textLength="56" x="598.3976" y="370.1337">&#36890;&#30693;&#21457;&#36865;</text></g><g id="elem_MEDIA"><ellipse cx="628.0719" cy="458.3345" fill="#F1F1F1" rx="71.5719" ry="16.7144" style="stroke:#181818;stroke-width:0.5;"/><text fill="#000000" font-family="sans-serif" font-size="14" lengthAdjust="spacing" textLength="84" x="583.0719" y="463.6065">&#23186;&#20307;&#24341;&#29992;&#26657;&#39564;</text></g><g id="elem_PAYMENT"><ellipse cx="627.9481" cy="104.9097" fill="#F1F1F1" rx="86.9481" ry="19.7896" style="stroke:#181818;stroke-width:0.5;"/><text fill="#000000" font-family="sans-serif" font-size="14" lengthAdjust="spacing" textLength="126" x="564.2712" y="109.589">&#35746;&#21333;&#24130;&#31561;&#19982;&#25903;&#20184;&#30830;&#35748;</text></g><!--entity Guest--><g id="elem_Guest"><ellipse cx="34" cy="84.1201" fill="#F1F1F1" rx="8" ry="8" style="stroke:#181818;stroke-width:0.5;"/><path d="M34,92.1201 L34,119.1201 M21,100.1201 L47,100.1201 M34,119.1201 L21,134.1201 M34,119.1201 L47,134.1201 " fill="none" style="stroke:#181818;stroke-width:0.5;"/><text fill="#000000" font-family="sans-serif" font-size="14" lengthAdjust="spacing" textLength="28" x="20" y="151.6641">&#28216;&#23458;</text></g><!--entity User--><g id="elem_User"><ellipse cx="34" cy="209.1201" fill="#F1F1F1" rx="8" ry="8" style="stroke:#181818;stroke-width:0.5;"/><path d="M34,217.1201 L34,244.1201 M21,225.1201 L47,225.1201 M34,244.1201 L21,259.1201 M34,244.1201 L47,259.1201 " fill="none" style="stroke:#181818;stroke-width:0.5;"/><text fill="#000000" font-family="sans-serif" font-size="14" lengthAdjust="spacing" textLength="56" x="6" y="276.6641">&#26222;&#36890;&#29992;&#25143;</text></g><!--entity Creator--><g id="elem_Creator"><ellipse cx="34" cy="334.1201" fill="#F1F1F1" rx="8" ry="8" style="stroke:#181818;stroke-width:0.5;"/><path d="M34,342.1201 L34,369.1201 M21,350.1201 L47,350.1201 M34,369.1201 L21,384.1201 M34,369.1201 L47,384.1201 " fill="none" style="stroke:#181818;stroke-width:0.5;"/><text fill="#000000" font-family="sans-serif" font-size="14" lengthAdjust="spacing" textLength="42" x="13" y="401.6641">&#21019;&#20316;&#32773;</text></g><!--link Guest to UC01--><g id="link_Guest_UC01"><path d="M48.16,115.1201 C67.3,115.1201 98.81,115.1201 137.82,115.1201 " fill="none" id="Guest-to-UC01" style="stroke:#181818;stroke-width:1.0;"/><polygon fill="#181818" points="143.82,115.1201,134.82,111.1201,138.82,115.1201,134.82,119.1201,143.82,115.1201" style="stroke:#181818;stroke-width:1.0;"/></g><!--link User to UC01--><g id="link_User_UC01"><path d="M61.03,200.3601 C71.9,186.4801 85.59,171.9401 101,162.1201 C121.42,149.1101 139.6499,141.3498 163.1399,134.4998 " fill="none" id="User-to-UC01" style="stroke:#181818;stroke-width:1.0;"/><polygon fill="#181818" points="168.9,132.8201,159.1401,131.4996,164.0999,134.2199,161.3797,139.1797,168.9,132.8201" style="stroke:#181818;stroke-width:1.0;"/></g><!--link User to UC07--><g id="link_User_UC07"><path d="M62.36,247.9201 C91.79,256.3101 134.38,268.4548 177.41,280.7248 " fill="none" id="User-to-UC07" style="stroke:#181818;stroke-width:1.0;"/><polygon fill="#181818" points="183.18,282.3701,175.6219,276.0555,178.3717,280.999,173.4281,283.7488,183.18,282.3701" style="stroke:#181818;stroke-width:1.0;"/></g><!--link User to UC08--><g id="link_User_UC08"><path d="M62.25,230.6801 C71.58,227.8001 82.15,224.9201 92,223.1201 C124.94,217.1001 155.7292,214.1718 187.5192,212.4118 " fill="none" id="User-to-UC08" style="stroke:#181818;stroke-width:1.0;"/><polygon fill="#181818" points="193.51,212.0801,184.3026,208.5837,188.5176,212.3565,184.7449,216.5715,193.51,212.0801" style="stroke:#181818;stroke-width:1.0;"/></g><!--link User to UC11--><g id="link_User_UC11"><path d="M53.04,279.6701 C67.42,309.6201 87.34,347.3901 101,358.1201 C123.97,376.1801 147.5111,385.9771 175.4711,393.0071 " fill="none" id="User-to-UC11" style="stroke:#181818;stroke-width:1.0;"/><polygon fill="#181818" points="181.29,394.4701,173.537,388.3963,176.4409,393.2509,171.5863,396.1548,181.29,394.4701" style="stroke:#181818;stroke-width:1.0;"/></g><!--link Creator to UC07--><g id="link_Creator_UC07"><path d="M55.33,360.2601 C81.58,353.9901 123.2843,344.0247 167.3043,333.5047 " fill="none" id="Creator-to-UC07" style="stroke:#181818;stroke-width:1.0;"/><polygon fill="#181818" points="173.14,332.1101,163.4567,330.3116,168.2769,333.2723,165.3162,338.0925,173.14,332.1101" style="stroke:#181818;stroke-width:1.0;"/></g><!--link Creator to UC08--><g id="link_Creator_UC08"><path d="M50.62,325.5301 C61.53,302.7101 78.23,275.2401 101,258.1201 C128.58,237.3801 158.7967,226.8265 190.8367,220.1365 " fill="none" id="Creator-to-UC08" style="stroke:#181818;stroke-width:1.0;"/><polygon fill="#181818" points="196.71,218.9101,187.0824,216.8341,191.8156,219.9321,188.7176,224.6652,196.71,218.9101" style="stroke:#181818;stroke-width:1.0;"/></g><!--link Creator to UC11--><g id="link_Creator_UC11"><path d="M55.03,372.9001 C65.83,376.8101 79.48,381.3101 92,384.1201 C119.41,390.2801 143.6018,394.1027 171.3118,397.3927 " fill="none" id="Creator-to-UC11" style="stroke:#181818;stroke-width:1.0;"/><polygon fill="#181818" points="177.27,398.1001,168.8044,393.0669,172.3049,397.5106,167.8612,401.0111,177.27,398.1001" style="stroke:#181818;stroke-width:1.0;"/></g><!--link UC07 to AUTH--><g id="link_UC07_AUTH"><path d="M368.91,282.8501 C396.28,275.6301 426.29,267.8901 454,261.1201 C492.28,251.7701 529.6701,243.3094 563.3501,235.8994 " fill="none" id="UC07-to-AUTH" style="stroke:#181818;stroke-width:1.0;stroke-dasharray:7.0,7.0;"/><polygon fill="#181818" points="569.21,234.6101,559.5607,232.6374,564.3268,235.6845,561.2797,240.4505,569.21,234.6101" style="stroke:#181818;stroke-width:1.0;"/><text fill="#000000" font-family="sans-serif" font-size="13" lengthAdjust="spacing" textLength="55.6563" x="455" y="245.0181">&#171;include&#187;</text></g><!--link UC08 to AUTH--><g id="link_UC08_AUTH"><path d="M353.32,202.8301 C399.26,199.6801 458.52,197.6301 511,202.1201 C529.63,203.7101 543.8514,205.6768 562.0314,208.8868 " fill="none" id="UC08-to-AUTH" style="stroke:#181818;stroke-width:1.0;stroke-dasharray:7.0,7.0;"/><polygon fill="#181818" points="567.94,209.9301,559.7726,204.4261,563.0162,209.0607,558.3816,212.3043,567.94,209.9301" style="stroke:#181818;stroke-width:1.0;"/><text fill="#000000" font-family="sans-serif" font-size="13" lengthAdjust="spacing" textLength="55.6563" x="455" y="197.0181">&#171;include&#187;</text></g><!--link UC11 to AUTH--><g id="link_UC11_AUTH"><path d="M357.36,389.0701 C380.22,381.8801 404.2,371.8901 424,358.1201 C441.67,345.8401 437.64,334.1001 454,320.1201 C476.09,301.2501 485.71,302.4101 511,288.1201 C540.25,271.5901 568.3685,255.5834 591.7685,242.2334 " fill="none" id="UC11-to-AUTH" style="stroke:#181818;stroke-width:1.0;stroke-dasharray:7.0,7.0;"/><polygon fill="#181818" points="596.98,239.2601,587.1806,240.2456,592.6371,241.7378,591.1449,247.1943,596.98,239.2601" style="stroke:#181818;stroke-width:1.0;"/><text fill="#000000" font-family="sans-serif" font-size="13" lengthAdjust="spacing" textLength="55.6563" x="455" y="285.0181">&#171;include&#187;</text></g><!--link UC07 to NOTIFY--><g id="link_UC07_NOTIFY"><path d="M383.37,330.4801 C406.62,334.9601 431.09,339.4201 454,343.1201 C496.29,349.9501 538.7292,355.2656 573.5592,359.2656 " fill="none" id="UC07-to-NOTIFY" style="stroke:#181818;stroke-width:1.0;stroke-dasharray:7.0,7.0;"/><polygon fill="#181818" points="579.52,359.9501,571.0351,354.9494,574.5526,359.3796,570.1224,362.8972,579.52,359.9501" style="stroke:#181818;stroke-width:1.0;"/><text fill="#000000" font-family="sans-serif" font-size="13" lengthAdjust="spacing" textLength="55.6563" x="455" y="340.0181">&#171;include&#187;</text></g><!--link UC08 to PAYMENT--><g id="link_UC08_PAYMENT"><path d="M338.34,191.3501 C405.58,171.2601 505.3011,141.4779 568.4211,122.6179 " fill="none" id="UC08-to-PAYMENT" style="stroke:#181818;stroke-width:1.0;stroke-dasharray:7.0,7.0;"/><polygon fill="#181818" points="574.17,120.9001,564.4016,119.6441,569.3793,122.3316,566.6919,127.3093,574.17,120.9001" style="stroke:#181818;stroke-width:1.0;"/><text fill="#000000" font-family="sans-serif" font-size="13" lengthAdjust="spacing" textLength="55.6563" x="455" y="139.0181">&#171;include&#187;</text></g><!--link UC11 to MEDIA--><g id="link_UC11_MEDIA"><path d="M361.64,421.3101 C390.91,426.2901 423.85,431.6701 454,436.1201 C490.39,441.4901 525.2542,445.9929 558.0942,450.0029 " fill="none" id="UC11-to-MEDIA" style="stroke:#181818;stroke-width:1.0;stroke-dasharray:7.0,7.0;"/><polygon fill="#181818" points="564.05,450.7301,555.6012,445.6687,559.0869,450.1241,554.6315,453.6098,564.05,450.7301" style="stroke:#181818;stroke-width:1.0;"/><text fill="#000000" font-family="sans-serif" font-size="13" lengthAdjust="spacing" textLength="55.6563" x="455" y="433.0181">&#171;include&#187;</text></g><!--link UC11 to NOTIFY--><g id="link_UC11_NOTIFY"><path d="M374.04,410.8101 C416.44,411.1901 466.41,409.4501 511,402.1201 C540.41,397.2901 566.9948,388.6643 589.9948,380.0043 " fill="none" id="UC11-to-NOTIFY" style="stroke:#181818;stroke-width:1.0;stroke-dasharray:7.0,7.0;"/><polygon fill="#181818" points="595.61,377.8901,585.7778,377.318,590.9307,379.652,588.5967,384.8049,595.61,377.8901" style="stroke:#181818;stroke-width:1.0;"/><text fill="#000000" font-family="sans-serif" font-size="13" lengthAdjust="spacing" textLength="55.6563" x="455" y="399.0181">&#171;include&#187;</text></g><!--SRC=[VLBTQzDG57-_VyMbxnlcgK56eUn39smAQv71NYxfNHUQfIEvHKI4L9VIwNJCjTAkYdOe6nKZqecTMUSVuxtv-2-yITgkAUlUSixlwvnpGsIYOBY0r6rKAAqH3QDjo5ejskkujJDwzTenRE-qobfNGC6R198YrEJy5e4vMSCIaOigq0kokeCqhjj1KW7byHfvoYq36Abv1OyHz2sKApwHrJpSH8gE0K0IAMemuVHwp3f9GAJ3UoMiar6_QVd6CH_4gVuEqQoEjI78gYtQ_-0PPeZCyybv6u1HBap4jah0Pm32aeubf7CiEtz7s50ZQwTxnYhx_uoosxHPlqvxRxrVkyxxfckVEw- -HC6SFY5FRgZCx0PQi-jsRIvdrOfhxmOVFm-yMf_xi8h9h8jWXqzVXpx92H-H-mnNePV7xB3XMIT-mnponJXV68tjdfRfttQGqdb7-qSydVxvDb09iMdzlNFduqlEX0yUPw3pkUrtzaDYEfkv7oE6axA3GzyeXuJLXvdbfVLnoY3iiXuCSUsqihYmd1xdyINOcpgxUE5-t-F9Jkq7jHjks_AiwAAFqkihYwiPy1o0yCtXp4mgEdFmo3TNoLWbZbTyuS4lS4sUQ8WJ3Iu10G_EpgR2Iy2xS6vELYMbbCEfL829qp51k4KNUKR7c-OwEC0qu_2Wqy2RdFy3]--></g></svg>