<svg xmlns="http://www.w3.org/2000/svg" xmlns:xlink="http://www.w3.org/1999/xlink" contentStyleType="text/css" height="1803px" preserveAspectRatio="none" style="width:609px;height:1803px;background:#FFFFFF;" version="1.1" viewBox="0 0 609 1803" width="609px" zoomAndPan="magnify"><title>DanmakuStream &#24635;&#29992;&#20363;&#22270;&#65288;UC01~UC10&#12289;UC12~UC14&#65292;UC11 &#31354;&#32570;&#24453;&#30830;&#35748;&#65289;</title><defs/><g><text fill="#000000" font-family="sans-serif" font-size="14" font-weight="bold" lengthAdjust="spacing" textLength="501.2725" x="46.8638" y="24.5332">DanmakuStream &#24635;&#29992;&#20363;&#22270;&#65288;UC01~UC10&#12289;UC12~UC14&#65292;UC11 &#31354;&#32570;&#24453;&#30830;&#35748;&#65289;</text><!--cluster DanmakuStream ????????--><g id="cluster_DanmakuStream &#24377;&#24149;&#35270;&#39057;&#30452;&#25773;&#24179;&#21488;"><rect fill="none" height="1104" rx="2.5" ry="2.5" style="stroke:#181818;stroke-width:1.0;" width="503" x="100" y="73.1094"/><text fill="#000000" font-family="sans-serif" font-size="14" font-weight="bold" lengthAdjust="spacing" textLength="229.8789" x="236.5605" y="89.6426">DanmakuStream &#24377;&#24149;&#35270;&#39057;&#30452;&#25773;&#24179;&#21488;</text></g><!--cluster ???--><g id="cluster_&#29992;&#25143;&#22495;"><path d="M387.5,513.1094 L431.8125,513.1094 A3.75,3.75 0 0 1 434.3125,515.6094 L441.3125,536.7188 L576.5,536.7188 A2.5,2.5 0 0 1 579,539.2188 L579,876.6094 A2.5,2.5 0 0 1 576.5,879.1094 L387.5,879.1094 A2.5,2.5 0 0 1 385,876.6094 L385,515.6094 A2.5,2.5 0 0 1 387.5,513.1094 " fill="none" style="stroke:#000000;stroke-width:1.5;"/><line style="stroke:#000000;stroke-width:1.5;" x1="385" x2="441.3125" y1="536.7188" y2="536.7188"/><text fill="#000000" font-family="sans-serif" font-size="14" font-weight="bold" lengthAdjust="spacing" textLength="43.3125" x="389" y="529.6426">&#29992;&#25143;&#22495;</text></g><!--cluster ???--><g id="cluster_&#35270;&#39057;&#22495;"><path d="M146,275.1094 L190.3125,275.1094 A3.75,3.75 0 0 1 192.8125,277.6094 L199.8125,298.7188 L335,298.7188 A2.5,2.5 0 0 1 337.5,301.2188 L337.5,730.6094 A2.5,2.5 0 0 1 335,733.1094 L146,733.1094 A2.5,2.5 0 0 1 143.5,730.6094 L143.5,277.6094 A2.5,2.5 0 0 1 146,275.1094 " fill="none" style="stroke:#000000;stroke-width:1.5;"/><line style="stroke:#000000;stroke-width:1.5;" x1="143.5" x2="199.8125" y1="298.7188" y2="298.7188"/><text fill="#000000" font-family="sans-serif" font-size="14" font-weight="bold" lengthAdjust="spacing" textLength="43.3125" x="147.5" y="291.6426">&#35270;&#39057;&#22495;</text></g><!--cluster ???????--><g id="cluster_&#21019;&#20316;&#19982;&#21830;&#19994;&#21270;&#22495;"><path d="M146,757.1094 L248.0625,757.1094 A3.75,3.75 0 0 1 250.5625,759.6094 L257.5625,780.7187 L335,780.7187 A2.5,2.5 0 0 1 337.5,783.2187 L337.5,1095.6094 A2.5,2.5 0 0 1 335,1098.1094 L146,1098.1094 A2.5,2.5 0 0 1 143.5,1095.6094 L143.5,759.6094 A2.5,2.5 0 0 1 146,757.1094 " fill="none" style="stroke:#000000;stroke-width:1.5;"/><line style="stroke:#000000;stroke-width:1.5;" x1="143.5" x2="257.5625" y1="780.7187" y2="780.7187"/><text fill="#000000" font-family="sans-serif" font-size="14" font-weight="bold" lengthAdjust="spacing" textLength="101.0625" x="147.5" y="773.6426">&#21019;&#20316;&#19982;&#21830;&#19994;&#21270;&#22495;</text></g><!--cluster ???--><g id="cluster_&#30452;&#25773;&#22495;"><path d="M387.5,903.1094 L431.8125,903.1094 A3.75,3.75 0 0 1 434.3125,905.6094 L441.3125,926.7187 L576.5,926.7187 A2.5,2.5 0 0 1 579,929.2187 L579,1150.6094 A2.5,2.5 0 0 1 576.5,1153.1094 L387.5,1153.1094 A2.5,2.5 0 0 1 385,1150.6094 L385,905.6094 A2.5,2.5 0 0 1 387.5,903.1094 " fill="none" style="stroke:#000000;stroke-width:1.5;"/><line style="stroke:#000000;stroke-width:1.5;" x1="385" x2="441.3125" y1="926.7187" y2="926.7187"/><text fill="#000000" font-family="sans-serif" font-size="14" font-weight="bold" lengthAdjust="spacing" textLength="43.3125" x="389" y="919.6426">&#30452;&#25773;&#22495;</text></g><!--cluster ?????--><g id="cluster_&#24179;&#21488;&#31649;&#29702;&#22495;"><path d="M126.5,117.1094 L199.6875,117.1094 A3.75,3.75 0 0 1 202.1875,119.6094 L209.1875,140.7188 L354.5,140.7188 A2.5,2.5 0 0 1 357,143.2188 L357,248.6094 A2.5,2.5 0 0 1 354.5,251.1094 L126.5,251.1094 A2.5,2.5 0 0 1 124,248.6094 L124,119.6094 A2.5,2.5 0 0 1 126.5,117.1094 " fill="none" style="stroke:#000000;stroke-width:1.5;"/><line style="stroke:#000000;stroke-width:1.5;" x1="124" x2="209.1875" y1="140.7188" y2="140.7188"/><text fill="#000000" font-family="sans-serif" font-size="14" font-weight="bold" lengthAdjust="spacing" textLength="72.1875" x="128" y="133.6426">&#24179;&#21488;&#31649;&#29702;&#22495;</text></g><g id="elem_UC11Note"><path d="M153,1117.6094 L153,1160.3125 L327.8481,1160.3125 L327.8481,1127.6094 L317.8481,1117.6094 L153,1117.6094 " fill="#FEFFDD" style="stroke:#181818;stroke-width:0.5;"/><path d="M317.8481,1117.6094 L317.8481,1127.6094 L327.8481,1127.6094 L317.8481,1117.6094 " fill="#FEFFDD" style="stroke:#181818;stroke-width:1.0;"/><text fill="#000000" font-family="sans-serif" font-size="13" lengthAdjust="spacing" textLength="153.8481" x="159" y="1136.1045">UC11 &#29992;&#25143;&#31169;&#20449;&#19982;&#23186;&#20307;&#20998;&#20139;</text><text fill="#000000" font-family="sans-serif" font-size="13" lengthAdjust="spacing" textLength="91" x="159" y="1152.4561">&#65288;&#31354;&#32570;&#24453;&#30830;&#35748;&#65289;</text></g><g id="elem_UC01"><ellipse cx="481.7817" cy="589.9645" fill="#F1F1F1" rx="80.7817" ry="40.3551" style="stroke:#181818;stroke-width:0.5;"/><text fill="#000000" font-family="sans-serif" font-size="14" lengthAdjust="spacing" textLength="35.793" x="463.8853" y="576.0836">UC01</text><text fill="#000000" font-family="sans-serif" font-size="14" lengthAdjust="spacing" textLength="98" x="432.7817" y="593.693">&#29992;&#25143;&#27880;&#20876;&#12289;&#30331;&#24405;</text><text fill="#000000" font-family="sans-serif" font-size="14" lengthAdjust="spacing" textLength="70" x="446.7817" y="611.3024">&#19982;&#36164;&#26009;&#32500;&#25252;</text></g><g id="elem_UC06"><ellipse cx="481.8823" cy="821.9645" fill="#F1F1F1" rx="70.8823" ry="40.3551" style="stroke:#181818;stroke-width:0.5;"/><text fill="#000000" font-family="sans-serif" font-size="14" lengthAdjust="spacing" textLength="35.793" x="463.9858" y="808.0836">UC06</text><text fill="#000000" font-family="sans-serif" font-size="14" lengthAdjust="spacing" textLength="84" x="439.8823" y="825.693">&#20010;&#20154;&#35270;&#39057;&#36164;&#26009;</text><text fill="#000000" font-family="sans-serif" font-size="14" lengthAdjust="spacing" textLength="42" x="460.8823" y="843.3024">&#24211;&#31649;&#29702;</text></g><g id="elem_UC07"><ellipse cx="481.9828" cy="705.9645" fill="#F1F1F1" rx="60.9828" ry="40.3551" style="stroke:#181818;stroke-width:0.5;"/><text fill="#000000" font-family="sans-serif" font-size="14" lengthAdjust="spacing" textLength="35.793" x="464.0863" y="692.0836">UC07</text><text fill="#000000" font-family="sans-serif" font-size="14" lengthAdjust="spacing" textLength="70" x="446.9828" y="709.693">&#20851;&#27880;&#20851;&#31995;&#19982;</text><text fill="#000000" font-family="sans-serif" font-size="14" lengthAdjust="spacing" textLength="56" x="453.9828" y="727.3024">&#20869;&#23481;&#36890;&#30693;</text></g><g id="elem_UC02"><ellipse cx="240.2817" cy="351.9645" fill="#F1F1F1" rx="80.7817" ry="40.3551" style="stroke:#181818;stroke-width:0.5;"/><text fill="#000000" font-family="sans-serif" font-size="14" lengthAdjust="spacing" textLength="35.793" x="222.3853" y="338.0836">UC02</text><text fill="#000000" font-family="sans-serif" font-size="14" lengthAdjust="spacing" textLength="98" x="191.2817" y="355.693">&#35270;&#39057;&#21457;&#29616;&#12289;&#25628;&#32034;</text><text fill="#000000" font-family="sans-serif" font-size="14" lengthAdjust="spacing" textLength="42" x="219.2817" y="373.3024">&#19982;&#25773;&#25918;</text></g><g id="elem_UC03"><ellipse cx="240.3823" cy="675.9645" fill="#F1F1F1" rx="70.8823" ry="40.3551" style="stroke:#181818;stroke-width:0.5;"/><text fill="#000000" font-family="sans-serif" font-size="14" lengthAdjust="spacing" textLength="35.793" x="222.4858" y="662.0836">UC03</text><text fill="#000000" font-family="sans-serif" font-size="14" lengthAdjust="spacing" textLength="84" x="198.3823" y="679.693">&#21019;&#20316;&#32773;&#25237;&#31295;&#19982;</text><text fill="#000000" font-family="sans-serif" font-size="14" lengthAdjust="spacing" textLength="56" x="212.3823" y="697.3024">&#29366;&#24577;&#36319;&#36394;</text></g><g id="elem_UC04"><ellipse cx="240.5833" cy="467.9645" fill="#F1F1F1" rx="51.0833" ry="40.3551" style="stroke:#181818;stroke-width:0.5;"/><text fill="#000000" font-family="sans-serif" font-size="14" lengthAdjust="spacing" textLength="35.793" x="222.6868" y="454.0836">UC04</text><text fill="#000000" font-family="sans-serif" font-size="14" lengthAdjust="spacing" textLength="56" x="212.5833" y="471.693">&#35270;&#39057;&#23457;&#26680;</text><text fill="#000000" font-family="sans-serif" font-size="14" lengthAdjust="spacing" textLength="42" x="219.5833" y="489.3024">&#19982;&#21457;&#24067;</text></g><g id="elem_UC05"><ellipse cx="240.3823" cy="572.0128" fill="#F1F1F1" rx="70.8823" ry="27.9034" style="stroke:#181818;stroke-width:0.5;"/><text fill="#000000" font-family="sans-serif" font-size="14" lengthAdjust="spacing" textLength="35.793" x="222.4858" y="566.9366">UC05</text><text fill="#000000" font-family="sans-serif" font-size="14" lengthAdjust="spacing" textLength="84" x="198.3823" y="584.546">&#35270;&#39057;&#35266;&#30475;&#20114;&#21160;</text></g><g id="elem_UC08"><ellipse cx="240.4828" cy="949.9645" fill="#F1F1F1" rx="60.9828" ry="40.3551" style="stroke:#181818;stroke-width:0.5;"/><text fill="#000000" font-family="sans-serif" font-size="14" lengthAdjust="spacing" textLength="35.793" x="222.5863" y="936.0836">UC08</text><text fill="#000000" font-family="sans-serif" font-size="14" lengthAdjust="spacing" textLength="70" x="205.4828" y="953.693">&#21019;&#20316;&#32773;&#20250;&#21592;</text><text fill="#000000" font-family="sans-serif" font-size="14" lengthAdjust="spacing" textLength="28" x="226.4828" y="971.3024">&#35746;&#38405;</text></g><g id="elem_UC12"><ellipse cx="240.2817" cy="1054.0128" fill="#F1F1F1" rx="80.7817" ry="27.9034" style="stroke:#181818;stroke-width:0.5;"/><text fill="#000000" font-family="sans-serif" font-size="14" lengthAdjust="spacing" textLength="35.793" x="222.3853" y="1048.9366">UC12</text><text fill="#000000" font-family="sans-serif" font-size="14" lengthAdjust="spacing" textLength="98" x="191.2817" y="1066.546">&#21019;&#20316;&#32773;&#25968;&#25454;&#20998;&#26512;</text></g><g id="elem_UC14"><ellipse cx="240.2817" cy="833.9645" fill="#F1F1F1" rx="80.7817" ry="40.3551" style="stroke:#181818;stroke-width:0.5;"/><text fill="#000000" font-family="sans-serif" font-size="14" lengthAdjust="spacing" textLength="35.793" x="222.3853" y="820.0836">UC14</text><text fill="#000000" font-family="sans-serif" font-size="14" lengthAdjust="spacing" textLength="98" x="191.2817" y="837.693">&#29992;&#25143;&#26631;&#31614;&#20559;&#22909;&#19982;</text><text fill="#000000" font-family="sans-serif" font-size="14" lengthAdjust="spacing" textLength="70" x="205.2817" y="855.3024">&#20010;&#24615;&#21270;&#25512;&#33616;</text></g><g id="elem_UC09"><ellipse cx="481.9828" cy="979.9645" fill="#F1F1F1" rx="60.9828" ry="40.3551" style="stroke:#181818;stroke-width:0.5;"/><text fill="#000000" font-family="sans-serif" font-size="14" lengthAdjust="spacing" textLength="35.793" x="464.0863" y="966.0836">UC09</text><text fill="#000000" font-family="sans-serif" font-size="14" lengthAdjust="spacing" textLength="70" x="446.9828" y="983.693">&#30452;&#25773;&#39044;&#32422;&#19982;</text><text fill="#000000" font-family="sans-serif" font-size="14" lengthAdjust="spacing" textLength="56" x="453.9828" y="1001.3024">&#29992;&#25143;&#39044;&#32422;</text></g><g id="elem_UC10"><ellipse cx="481.7817" cy="1095.9645" fill="#F1F1F1" rx="80.7817" ry="40.3551" style="stroke:#181818;stroke-width:0.5;"/><text fill="#000000" font-family="sans-serif" font-size="14" lengthAdjust="spacing" textLength="35.793" x="463.8853" y="1082.0836">UC10</text><text fill="#000000" font-family="sans-serif" font-size="14" lengthAdjust="spacing" textLength="98" x="432.7817" y="1099.693">&#30452;&#25773;&#21457;&#24067;&#12289;&#35266;&#30475;</text><text fill="#000000" font-family="sans-serif" font-size="14" lengthAdjust="spacing" textLength="70" x="446.7817" y="1117.3024">&#19982;&#23454;&#26102;&#20114;&#21160;</text></g><g id="elem_UC13"><ellipse cx="240.5807" cy="193.9645" fill="#F1F1F1" rx="100.5807" ry="40.3551" style="stroke:#181818;stroke-width:0.5;"/><text fill="#000000" font-family="sans-serif" font-size="14" lengthAdjust="spacing" textLength="35.793" x="222.6843" y="180.0836">UC13</text><text fill="#000000" font-family="sans-serif" font-size="14" lengthAdjust="spacing" textLength="112" x="184.5807" y="197.693">&#24179;&#21488;&#23457;&#26680;&#12289;&#26435;&#38480;&#12289;</text><text fill="#000000" font-family="sans-serif" font-size="14" lengthAdjust="spacing" textLength="126" x="177.5807" y="215.3024">&#36816;&#33829;&#19982;&#22522;&#30784;&#35774;&#26045;&#31649;&#29702;</text></g><!--entity Guest--><g id="elem_Guest"><ellipse cx="43" cy="52.6094" fill="#F1F1F1" rx="8" ry="8" style="stroke:#181818;stroke-width:0.5;"/><path d="M43,60.6094 L43,87.6094 M30,68.6094 L56,68.6094 M43,87.6094 L30,102.6094 M43,87.6094 L56,102.6094 " fill="none" style="stroke:#181818;stroke-width:0.5;"/><text fill="#000000" font-family="sans-serif" font-size="14" lengthAdjust="spacing" textLength="28" x="29" y="118.6426">&#28216;&#23458;</text></g><!--entity User--><g id="elem_User"><ellipse cx="43" cy="1051.6094" fill="#F1F1F1" rx="8" ry="8" style="stroke:#181818;stroke-width:0.5;"/><path d="M43,1059.6094 L43,1086.6094 M30,1067.6094 L56,1067.6094 M43,1086.6094 L30,1101.6094 M43,1086.6094 L56,1101.6094 " fill="none" style="stroke:#181818;stroke-width:0.5;"/><text fill="#000000" font-family="sans-serif" font-size="14" lengthAdjust="spacing" textLength="56" x="15" y="1117.6426">&#26222;&#36890;&#29992;&#25143;</text></g><!--entity Creator--><g id="elem_Creator"><ellipse cx="42.9448" cy="1164.6094" fill="#F1F1F1" rx="8" ry="8" style="stroke:#181818;stroke-width:0.5;"/><path d="M42.9448,1172.6094 L42.9448,1199.6094 M29.9448,1180.6094 L55.9448,1180.6094 M42.9448,1199.6094 L29.9448,1214.6094 M42.9448,1199.6094 L55.9448,1214.6094 " fill="none" style="stroke:#181818;stroke-width:0.5;"/><text fill="#000000" font-family="sans-serif" font-size="14" lengthAdjust="spacing" textLength="73.8896" x="6" y="1230.6426">&#21019;&#20316;&#32773;/&#20027;&#25773;</text></g><!--entity Moderator--><g id="elem_Moderator"><ellipse cx="43" cy="358.6094" fill="#F1F1F1" rx="8" ry="8" style="stroke:#181818;stroke-width:0.5;"/><path d="M43,366.6094 L43,393.6094 M30,374.6094 L56,374.6094 M43,393.6094 L30,408.6094 M43,393.6094 L56,408.6094 " fill="none" style="stroke:#181818;stroke-width:0.5;"/><text fill="#000000" font-family="sans-serif" font-size="14" lengthAdjust="spacing" textLength="42" x="22" y="424.6426">&#23457;&#26680;&#21592;</text></g><!--entity Admin--><g id="elem_Admin"><ellipse cx="43" cy="165.6094" fill="#F1F1F1" rx="8" ry="8" style="stroke:#181818;stroke-width:0.5;"/><path d="M43,173.6094 L43,200.6094 M30,181.6094 L56,181.6094 M43,200.6094 L30,215.6094 M43,200.6094 L56,215.6094 " fill="none" style="stroke:#181818;stroke-width:0.5;"/><text fill="#000000" font-family="sans-serif" font-size="14" lengthAdjust="spacing" textLength="42" x="22" y="231.6426">&#31649;&#29702;&#21592;</text></g><!--entity SRS--><g id="elem_SRS"><ellipse cx="240.3379" cy="1559.6094" fill="#F1F1F1" rx="8" ry="8" style="stroke:#181818;stroke-width:0.5;"/><path d="M240.3379,1567.6094 L240.3379,1594.6094 M227.3379,1575.6094 L253.3379,1575.6094 M240.3379,1594.6094 L227.3379,1609.6094 M240.3379,1594.6094 L253.3379,1609.6094 " fill="none" style="stroke:#181818;stroke-width:0.5;"/><text fill="#000000" font-family="sans-serif" font-size="14" lengthAdjust="spacing" textLength="88.6758" x="196" y="1625.6426">SRS &#30452;&#25773;&#26381;&#21153;</text></g><!--link Guest to UC01--><g id="link_Guest_UC01"><path d="M57.12,80.8094 C105.3,73.1994 274.31,53.7294 365,137.1094 C426.18,193.3594 463.7,449.4094 476.27,549.6694 " fill="none" id="Guest-UC01" style="stroke:#181818;stroke-width:1.0;"/></g><!--link Guest to UC02--><g id="link_Guest_UC02"><path d="M57.23,99.1894 C65.23,109.8394 74.85,124.4994 80,139.1094 C96.65,186.3194 66.32,208.1294 92,251.1094 C111.82,284.2794 147.25,309.0694 178.41,325.7894 " fill="none" id="Guest-UC02" style="stroke:#181818;stroke-width:1.0;"/></g><!--link User to UC01--><g id="link_User_UC01"><path d="M70.96,1121.1094 C74.25,1126.6794 77.37,1132.4494 80,1138.1094 C87.64,1154.5494 77.41,1166.3294 92,1177.1094 C189.6,1249.1894 278.24,1261.9294 365,1177.1094 C386.02,1156.5594 361.83,673.2894 377,648.1094 C385.96,633.2294 400.24,621.8794 415.38,613.3294 " fill="none" id="User-UC01" style="stroke:#181818;stroke-width:1.0;"/></g><!--link User to UC02--><g id="link_User_UC02"><path d="M45.65,1042.8194 C51.69,902.8894 73.17,435.7294 92,410.1094 C108.95,387.0494 136.47,373.1494 163.17,364.7794 " fill="none" id="User-UC02" style="stroke:#181818;stroke-width:1.0;"/></g><!--link User to UC05--><g id="link_User_UC05"><path d="M45.6,1043.1094 C50.28,937.3294 65.3,650.7394 92,618.1094 C111.11,594.7494 141.91,583.0394 170.43,577.2494 " fill="none" id="User-UC05" style="stroke:#181818;stroke-width:1.0;"/></g><!--link User to UC06--><g id="link_User_UC06"><path d="M71.15,1118.7494 C74.68,1124.9494 77.82,1131.5294 80,1138.1094 C86.07,1156.3994 77.91,1297.9594 92,1311.1094 C180.71,1393.8794 277.89,1395.5694 365,1311.1094 C380.48,1296.0994 368.3,942.8394 377,923.1094 C389.39,895.0094 413.59,870.7594 435.53,853.0594 " fill="none" id="User-UC06" style="stroke:#181818;stroke-width:1.0;"/></g><!--link User to UC07--><g id="link_User_UC07"><path d="M71.06,1119.1494 C74.55,1125.2494 77.7,1131.6894 80,1138.1094 C87.7,1159.5894 74.94,1224.9394 92,1240.1094 C182.67,1320.7394 278.13,1324.8194 365,1240.1094 C383.94,1221.6394 363.32,786.7494 377,764.1094 C388.23,745.5294 407.74,732.4294 426.85,723.4494 " fill="none" id="User-UC07" style="stroke:#181818;stroke-width:1.0;"/></g><!--link User to UC08--><g id="link_User_UC08"><path d="M63.24,1042.8094 C70.82,1030.4094 80.5,1017.5094 92,1008.1094 C118.21,986.6894 153.28,972.4694 182.65,963.4694 " fill="none" id="User-UC08" style="stroke:#181818;stroke-width:1.0;"/></g><!--link User to UC09--><g id="link_User_UC09"><path d="M71.1,1118.3994 C74.68,1124.6994 77.85,1131.3894 80,1138.1094 C88.29,1163.9594 72.34,1363.3894 92,1382.1094 C179.88,1465.7694 277.72,1466.3894 365,1382.1094 C392.51,1355.5394 357.06,1070.7394 377,1038.1094 C388.26,1019.6694 407.66,1006.6194 426.68,997.6394 " fill="none" id="User-UC09" style="stroke:#181818;stroke-width:1.0;"/></g><!--link User to UC10--><g id="link_User_UC10"><path d="M71.07,1118.0394 C74.71,1124.4394 77.9,1131.2594 80,1138.1094 C88.29,1165.1494 71.76,1627.3394 92,1647.1094 C178.8,1731.8894 270.78,1723.5594 365,1647.1094 C444.71,1582.4294 471.7,1253.0894 478.83,1136.8194 " fill="none" id="User-UC10" style="stroke:#181818;stroke-width:1.0;"/></g><!--link User to UC14--><g id="link_User_UC14"><path d="M43.84,1042.7394 C45.75,1000.5894 55.02,934.1194 92,892.1094 C110.73,870.8294 138.26,857.2894 164.49,848.6994 " fill="none" id="User-UC14" style="stroke:#181818;stroke-width:1.0;"/></g><!--link Creator to UC03--><g id="link_Creator_UC03"><path d="M72.4,1155.9294 C75.47,1150.1794 78.14,1144.1494 80,1138.1094 C91.79,1099.7494 72.7,812.2894 92,777.1094 C111.56,741.4594 149.72,715.8494 182.33,699.3394 " fill="none" id="Creator-UC03" style="stroke:#181818;stroke-width:1.0;"/></g><!--link Creator to UC08--><g id="link_Creator_UC08"><path d="M72.07,1155.8194 C75.19,1150.0894 77.97,1144.0894 80,1138.1094 C89.34,1110.6394 74.58,1031.3094 92,1008.1094 C112.9,980.2694 149.16,965.7894 180.5,958.2494 " fill="none" id="Creator-UC08" style="stroke:#181818;stroke-width:1.0;"/></g><!--link Creator to UC09--><g id="link_Creator_UC09"><path d="M45.39,1234.2494 C48.62,1299.4194 59.06,1425.7294 92,1453.1094 C185.31,1530.6594 277.97,1537.6494 365,1453.1094 C381.54,1437.0394 365.03,1057.8294 377,1038.1094 C388.26,1019.5494 407.78,1006.4594 426.89,997.4694 " fill="none" id="Creator-UC09" style="stroke:#181818;stroke-width:1.0;"/></g><!--link Creator to UC10--><g id="link_Creator_UC10"><path d="M44.64,1234.2594 C46.95,1349.7394 56.62,1682.8394 92,1715.1094 C181.65,1796.8694 271.64,1792.5994 365,1715.1094 C454.5,1640.8294 475.36,1262.4994 479.85,1136.7794 " fill="none" id="Creator-UC10" style="stroke:#181818;stroke-width:1.0;"/></g><!--link Creator to UC12--><g id="link_Creator_UC12"><path d="M71.15,1155.8594 C74.45,1150.0694 77.52,1144.0494 80,1138.1094 C89.13,1116.2194 75.12,1102.7694 92,1086.1094 C109.81,1068.5294 134.86,1059.6094 159.27,1055.3394 " fill="none" id="Creator-UC12" style="stroke:#181818;stroke-width:1.0;"/></g><!--link Moderator to UC04--><g id="link_Moderator_UC04"><path d="M64.01,398.0594 C72.6,401.8494 82.76,406.2694 92,410.1094 C126.05,424.2494 164.87,439.4694 194.13,450.7794 " fill="none" id="Moderator-UC04" style="stroke:#181818;stroke-width:1.0;"/></g><!--link Moderator to UC13--><g id="link_Moderator_UC13"><path d="M58.77,349.8394 C66.79,331.8694 77.96,311.0694 92,295.1094 C116.29,267.4894 149.69,243.7994 178.57,226.3194 " fill="none" id="Moderator-UC13" style="stroke:#181818;stroke-width:1.0;"/></g><!--link Admin to UC13--><g id="link_Admin_UC13"><path d="M64.19,195.8994 C82.53,195.7094 111.04,195.4194 139.77,195.1294 " fill="none" id="Admin-UC13" style="stroke:#181818;stroke-width:1.0;"/></g><!--link SRS to UC10--><g id="link_SRS_UC10"><path d="M285.09,1576.7894 C311.82,1566.4794 344.71,1549.5894 365,1524.1094 C458.74,1406.3494 476.96,1218.8394 480.33,1136.7894 " fill="none" id="SRS-UC10" style="stroke:#181818;stroke-width:1.0;"/></g><!--link UC11Note to UC07--><g id="link_UC11Note_UC07"><path d="M328.27,1125.2694 C342.56,1119.1794 355.72,1110.4894 365,1098.1094 C387.27,1068.3894 357.62,795.7894 377,764.1094 C388.27,745.6794 407.67,732.6294 426.69,723.6394 " fill="none" id="UC11Note-UC07" style="stroke:#181818;stroke-width:1.0;stroke-dasharray:7.0,7.0;"/></g><!--link UC11Note to UC10--><g id="link_UC11Note_UC10"><path d="M328.3,1123.5194 C353.6,1118.9794 381.03,1114.0594 405.57,1109.6494 " fill="none" id="UC11Note-UC10" style="stroke:#181818;stroke-width:1.0;stroke-dasharray:7.0,7.0;"/></g><!--SRC=[TLHBKnf14BxlhvZYhc415OufKvLJSeZbZSiM4aEfImhMKyeKH244N_Z0Y18HIWCnvPPL68NbuO_9pinoyY-aTsU7BAoUTdkwl-x-lkbf9QOiHz4hILwHbbRdb4HKMa4arQ673Rs_YK_xZztS_AnN_3m_Ath_fjBmyPd_WSVk5dn4H7zfjAlXVePMLKEzUEn-4vQZxnMan54YjlX1GGknH3IYnEAo84WH9Pv07j9gORNcGL8IlLwD9fNXUKaTf4wWCidTMzxvP3J1dJXtglVAHYhpGczroFwr5J0BxO9t6ADMoNaBxnrRpZVnXMZ2wQPgbHQotFroOIKcSzVSkpb4JsyXBoblutpLYe13GJ2Rb-H5qCWpAXBkjd6xQDIpWzeUW-9s4-_UUD0d0Q6FKcH9MWGGeuCh5NQEq6eo6f6Iu35b3SlCJveDdDq2VMcfWtl5iAotTem_6-IeH3kt97_1v020AyMq6NkbQnhhX872CjOE65sEd7OXPo0gqpGhPvgqsO6AS93DOBLjtaBbaYDd0BdcfCGgFKF95vPj_-uUtRa1IgHGfhSrYvAfxs6V9_Qvm7xeWDypoHTfuy7gYkRlI2fjt5UCrXK7-rtWmB2oDGPMGMW2jzOv9k32J76CKVz2ovkwje_p3Hu-DKwSzMQcBMRrrWdUEdf6XA23XzuzWP63EcfjS9pXkOFZ6D7dv5wy8TigpcN9MS56Y2wrnC1mUiw_qki-Jk_Yovub64m4ITMXFxBJCBQ7AGBZXEovVPf42D9R_a5jWse_sKrOzTW1fn9oDURbI2O_p02Jbrs9UaQ-tuqeBNfTIbjFoNwmJxOdchDYHR7hDWVjn_gWL80V4FkXO1GkpMeLZLPJXjedHxsH1o7wxPfoN649OPTPx6WzhJzKJUpLljuxW5lGjTzX6HQXUzVnPE9Ro2Ai2OArqD3417kiJiid2EO-6_eSXizfJ3cDQQSnupI2JYFaC41CXn4G17j9sg7-CJiuPeT6RSWsQWEDuMAr8O7n4z1MiDRhVzDSi3oXm0L3avCshv432Fa7]--></g></svg>