<svg xmlns="http://www.w3.org/2000/svg" xmlns:xlink="http://www.w3.org/1999/xlink" contentStyleType="text/css" height="881px" preserveAspectRatio="none" style="width:1891px;height:881px;background:#FFFFFF;" version="1.1" viewBox="0 0 1891 881" width="1891px" zoomAndPan="magnify"><title>DanmakuStream &#20840;&#31995;&#32479;&#24635;&#20307;&#32452;&#20214;&#22270;&#65288;UC01-UC13&#65289;</title><defs/><g><text fill="#000000" font-family="sans-serif" font-size="14" font-weight="bold" lengthAdjust="spacing" textLength="330.627" x="773.2192" y="24.5332">DanmakuStream &#20840;&#31995;&#32479;&#24635;&#20307;&#32452;&#20214;&#22270;&#65288;UC01-UC13&#65289;</text><!--cluster Frontend--><g id="cluster_Frontend"><rect fill="none" height="268" rx="5" ry="5" style="stroke:#7C93A8;stroke-width:1;" width="438" x="37" y="310.6094"/><text fill="#000000" font-family="sans-serif" font-size="14" font-weight="bold" lengthAdjust="spacing" textLength="69.2412" x="221.3794" y="327.1426">Vue 3 &#21069;&#31471;</text></g><!--cluster FrontContainer--><g id="cluster_FrontContainer"><polygon fill="#F7FAFC" points="26,639.6094,36,629.6094,204,629.6094,204,731.6094,194,741.6094,26,741.6094,26,639.6094" style="stroke:#7C93A8;stroke-width:1;"/><line style="stroke:#7C93A8;stroke-width:1;" x1="194" x2="204" y1="639.6094" y2="629.6094"/><line style="stroke:#7C93A8;stroke-width:1;" x1="26" x2="194" y1="639.6094" y2="639.6094"/><line style="stroke:#7C93A8;stroke-width:1;" x1="194" x2="194" y1="639.6094" y2="741.6094"/><text fill="#000000" font-family="sans-serif" font-size="14" font-weight="bold" lengthAdjust="spacing" textLength="88.6553" x="66.6724" y="657.1426">frontend &#23481;&#22120;</text></g><!--cluster Backend--><g id="cluster_Backend"><rect fill="none" height="695.5" rx="5" ry="5" style="stroke:#7C93A8;stroke-width:1;" width="708" x="695" y="45.6094"/><text fill="#000000" font-family="sans-serif" font-size="14" font-weight="bold" lengthAdjust="spacing" textLength="83.2207" x="1007.3896" y="62.1426">Gin &#21333;&#20307;&#21518;&#31471;</text></g><!--entity Pages--><g id="elem_Pages"><rect fill="#F7FAFC" height="90.4375" rx="5" ry="5" style="stroke:#315A7D;stroke-width:0.5;" width="207.5303" x="212" y="346.6094"/><text fill="#17324D" font-family="sans-serif" font-size="14" lengthAdjust="spacing" textLength="56" x="222" y="371.1426">&#19994;&#21153;&#39029;&#38754;</text><text fill="#17324D" font-family="sans-serif" font-size="14" lengthAdjust="spacing" textLength="187.5303" x="222" y="388.752">&#36134;&#21495;&#19982;&#36164;&#26009; UC01/06/07/08/11</text><text fill="#17324D" font-family="sans-serif" font-size="14" lengthAdjust="spacing" textLength="168.0684" x="222" y="406.3613">&#35270;&#39057;&#19982;&#21019;&#20316; UC02/03/05/12</text><text fill="#17324D" font-family="sans-serif" font-size="14" lengthAdjust="spacing" textLength="186.7305" x="222" y="423.9707">&#30452;&#25773; UC09/10 &#183; &#21518;&#21488; UC04/13</text></g><!--entity HttpClient--><g id="elem_HttpClient"><rect fill="#F7FAFC" height="55.2188" rx="5" ry="5" style="stroke:#315A7D;stroke-width:0.5;" width="122.6895" x="53.5" y="507.6094"/><text fill="#17324D" font-family="sans-serif" font-size="14" lengthAdjust="spacing" textLength="102.6895" x="63.5" y="532.1426">HTTP API Client</text><text fill="#17324D" font-family="sans-serif" font-size="14" lengthAdjust="spacing" textLength="79.3721" x="63.5" y="549.752">Axios /api/v1</text></g><!--entity WsClient--><g id="elem_WsClient"><rect fill="#F7FAFC" height="55.2188" rx="5" ry="5" style="stroke:#315A7D;stroke-width:0.5;" width="131.2686" x="204.5" y="507.6094"/><text fill="#17324D" font-family="sans-serif" font-size="14" lengthAdjust="spacing" textLength="111.2686" x="214.5" y="532.1426">WebSocket Client</text><text fill="#17324D" font-family="sans-serif" font-size="14" lengthAdjust="spacing" textLength="109.6895" x="214.5" y="549.752">/ws/live &#183; /ws/chat</text></g><!--entity Player--><g id="elem_Player"><rect fill="#F7FAFC" height="55.2188" rx="5" ry="5" style="stroke:#315A7D;stroke-width:0.5;" width="95.4893" x="363.5" y="507.6094"/><text fill="#17324D" font-family="sans-serif" font-size="14" lengthAdjust="spacing" textLength="75.4893" x="373.5" y="532.1426">VideoPlayer</text><text fill="#17324D" font-family="sans-serif" font-size="14" lengthAdjust="spacing" textLength="67.6895" x="373.5" y="549.752">MP4 / HLS</text></g><!--entity Nginx--><g id="elem_Nginx"><rect fill="#F7FAFC" height="55.2188" rx="5" ry="5" style="stroke:#315A7D;stroke-width:0.5;" width="146" x="42" y="670.6094"/><text fill="#17324D" font-family="sans-serif" font-size="14" lengthAdjust="spacing" textLength="35.793" x="52" y="695.1426">Nginx</text><text fill="#17324D" font-family="sans-serif" font-size="14" lengthAdjust="spacing" textLength="126" x="52" y="712.752">&#38745;&#24577;&#36164;&#28304;&#19982;&#21453;&#21521;&#20195;&#29702;</text></g><!--entity Router--><g id="elem_Router"><rect fill="#F7FAFC" height="55.2188" rx="5" ry="5" style="stroke:#315A7D;stroke-width:0.5;" width="94.6895" x="871.5" y="89.6094"/><text fill="#17324D" font-family="sans-serif" font-size="14" lengthAdjust="spacing" textLength="67.6963" x="881.5" y="114.1426">Gin Router</text><text fill="#17324D" font-family="sans-serif" font-size="14" lengthAdjust="spacing" textLength="74.6895" x="881.5" y="131.752">/api/v1 &#183; /ws</text></g><!--entity Middleware--><g id="elem_Middleware"><rect fill="#F7FAFC" height="55.2188" rx="5" ry="5" style="stroke:#315A7D;stroke-width:0.5;" width="216.0889" x="963" y="191.6094"/><text fill="#17324D" font-family="sans-serif" font-size="14" lengthAdjust="spacing" textLength="196.0889" x="973" y="216.1426">Auth / Staff / Admin Middleware</text><text fill="#17324D" font-family="sans-serif" font-size="14" lengthAdjust="spacing" textLength="102.6553" x="973" y="233.752">JWT &#19982;&#35282;&#33394;&#37492;&#26435;</text></g><!--entity UserDomain--><g id="elem_UserDomain"><rect fill="#F7FAFC" height="125.6563" rx="5" ry="5" style="stroke:#315A7D;stroke-width:0.5;" width="118" x="927" y="328.6094"/><text fill="#17324D" font-family="sans-serif" font-size="14" lengthAdjust="spacing" textLength="98" x="937" y="353.1426">&#29992;&#25143;&#19982;&#31038;&#20132;&#32452;&#20214;</text><text fill="#17324D" font-family="sans-serif" font-size="14" lengthAdjust="spacing" textLength="95.6826" x="937" y="370.752">UC01 &#35748;&#35777;&#36164;&#26009;</text><text fill="#17324D" font-family="sans-serif" font-size="14" lengthAdjust="spacing" textLength="81.6826" x="937" y="388.3613">UC06 &#36164;&#26009;&#24211;</text><text fill="#17324D" font-family="sans-serif" font-size="14" lengthAdjust="spacing" textLength="95.6826" x="937" y="405.9707">UC07 &#20851;&#27880;&#36890;&#30693;</text><text fill="#17324D" font-family="sans-serif" font-size="14" lengthAdjust="spacing" textLength="95.6826" x="937" y="423.5801">UC08 &#20250;&#21592;&#35746;&#21333;</text><text fill="#17324D" font-family="sans-serif" font-size="14" lengthAdjust="spacing" textLength="95.6826" x="937" y="441.1895">UC11 &#31169;&#20449;&#20998;&#20139;</text></g><!--entity ContentDomain--><g id="elem_ContentDomain"><rect fill="#F7FAFC" height="125.6563" rx="5" ry="5" style="stroke:#315A7D;stroke-width:0.5;" width="115.6826" x="1247" y="328.6094"/><text fill="#17324D" font-family="sans-serif" font-size="14" lengthAdjust="spacing" textLength="84" x="1257" y="353.1426">&#35270;&#39057;&#20869;&#23481;&#32452;&#20214;</text><text fill="#17324D" font-family="sans-serif" font-size="14" lengthAdjust="spacing" textLength="95.6826" x="1257" y="370.752">UC02 &#21457;&#29616;&#25773;&#25918;</text><text fill="#17324D" font-family="sans-serif" font-size="14" lengthAdjust="spacing" textLength="95.6826" x="1257" y="388.3613">UC03 &#25237;&#31295;&#22788;&#29702;</text><text fill="#17324D" font-family="sans-serif" font-size="14" lengthAdjust="spacing" textLength="95.6826" x="1257" y="405.9707">UC04 &#23457;&#26680;&#21457;&#24067;</text><text fill="#17324D" font-family="sans-serif" font-size="14" lengthAdjust="spacing" textLength="95.6826" x="1257" y="423.5801">UC05 &#35266;&#30475;&#20114;&#21160;</text><text fill="#17324D" font-family="sans-serif" font-size="14" lengthAdjust="spacing" textLength="95.6826" x="1257" y="441.1895">UC12 &#25968;&#25454;&#20998;&#26512;</text></g><!--entity LiveDomain--><g id="elem_LiveDomain"><rect fill="#F7FAFC" height="72.8281" rx="5" ry="5" style="stroke:#315A7D;stroke-width:0.5;" width="171.6826" x="727" y="355.1094"/><text fill="#17324D" font-family="sans-serif" font-size="14" lengthAdjust="spacing" textLength="56" x="737" y="379.6426">&#30452;&#25773;&#32452;&#20214;</text><text fill="#17324D" font-family="sans-serif" font-size="14" lengthAdjust="spacing" textLength="95.6826" x="737" y="397.252">UC09 &#35745;&#21010;&#39044;&#32422;</text><text fill="#17324D" font-family="sans-serif" font-size="14" lengthAdjust="spacing" textLength="151.6826" x="737" y="414.8613">UC10 &#25151;&#38388;&#12289;&#35266;&#30475;&#19982;&#20114;&#21160;</text></g><!--entity AdminDomain--><g id="elem_AdminDomain"><rect fill="#F7FAFC" height="72.8281" rx="5" ry="5" style="stroke:#315A7D;stroke-width:0.5;" width="146" x="1073" y="355.1094"/><text fill="#17324D" font-family="sans-serif" font-size="14" lengthAdjust="spacing" textLength="84" x="1083" y="379.6426">&#24179;&#21488;&#27835;&#29702;&#32452;&#20214;</text><text fill="#17324D" font-family="sans-serif" font-size="14" lengthAdjust="spacing" textLength="123.6826" x="1083" y="397.252">UC13 &#29992;&#25143;&#12289;&#36816;&#33829;&#12289;</text><text fill="#17324D" font-family="sans-serif" font-size="14" lengthAdjust="spacing" textLength="126" x="1083" y="414.8613">&#26435;&#38480;&#19982;&#22522;&#30784;&#35774;&#26045;&#31649;&#29702;</text></g><!--entity Hubs--><g id="elem_Hubs"><rect fill="#F7FAFC" height="55.2188" rx="5" ry="5" style="stroke:#315A7D;stroke-width:0.5;" width="146.0684" x="809" y="507.6094"/><text fill="#17324D" font-family="sans-serif" font-size="14" lengthAdjust="spacing" textLength="126.0684" x="819" y="532.1426">Chat Hub / Live Hub</text><text fill="#17324D" font-family="sans-serif" font-size="14" lengthAdjust="spacing" textLength="126" x="819" y="549.752">&#23454;&#26102;&#24191;&#25773;&#19982;&#22312;&#32447;&#29366;&#24577;</text></g><!--entity Workers--><g id="elem_Workers"><rect fill="#F7FAFC" height="55.2188" rx="5" ry="5" style="stroke:#315A7D;stroke-width:0.5;" width="216.0752" x="719" y="191.6094"/><text fill="#17324D" font-family="sans-serif" font-size="14" lengthAdjust="spacing" textLength="196.0752" x="729" y="216.1426">Schedule / Membership Worker</text><text fill="#17324D" font-family="sans-serif" font-size="14" lengthAdjust="spacing" textLength="126" x="729" y="233.752">&#39044;&#32422;&#21551;&#21160;&#19982;&#35746;&#38405;&#21040;&#26399;</text></g><!--entity DataAccess--><g id="elem_DataAccess"><rect fill="#F7FAFC" height="37.6094" rx="5" ry="5" style="stroke:#315A7D;stroke-width:0.5;" width="165.4414" x="935.5" y="679.1094"/><text fill="#17324D" font-family="sans-serif" font-size="14" lengthAdjust="spacing" textLength="145.4414" x="945.5" y="703.6426">GORM &#25968;&#25454;&#35775;&#38382;&#19982;&#20107;&#21153;</text></g><!--entity User--><g id="elem_User"><ellipse cx="211.8345" cy="196.1094" fill="#EAF3FA" rx="16" ry="16" style="stroke:#315A7D;stroke-width:0.5;"/><path d="M211.8345,216.1094 C215.8345,216.1094 218.8345,216.1094 222.8345,212.1094 C230.8345,212.1094 238.8345,220.1094 238.8345,228.1094 L238.8345,232.1094 C238.8345,236.1094 234.8345,240.1094 230.8345,240.1094 L192.8345,240.1094 C188.8345,240.1094 184.8345,236.1094 184.8345,232.1094 L184.8345,228.1094 C184.8345,220.1094 192.8345,212.1094 200.8345,212.1094 C204.8345,216.1094 207.8345,216.1094 211.8345,216.1094 " fill="#EAF3FA" style="stroke:#315A7D;stroke-width:0.5;"/><text fill="#000000" font-family="sans-serif" font-size="14" lengthAdjust="spacing" textLength="95.6689" x="164" y="255.1426">&#28216;&#23458; / &#26222;&#36890;&#29992;&#25143;</text></g><!--entity Creator--><g id="elem_Creator"><ellipse cx="491.8345" cy="196.1094" fill="#EAF3FA" rx="16" ry="16" style="stroke:#315A7D;stroke-width:0.5;"/><path d="M491.8345,216.1094 C495.8345,216.1094 498.8345,216.1094 502.8345,212.1094 C510.8345,212.1094 518.8345,220.1094 518.8345,228.1094 L518.8345,232.1094 C518.8345,236.1094 514.8345,240.1094 510.8345,240.1094 L472.8345,240.1094 C468.8345,240.1094 464.8345,236.1094 464.8345,232.1094 L464.8345,228.1094 C464.8345,220.1094 472.8345,212.1094 480.8345,212.1094 C484.8345,216.1094 487.8345,216.1094 491.8345,216.1094 " fill="#EAF3FA" style="stroke:#315A7D;stroke-width:0.5;"/><text fill="#000000" font-family="sans-serif" font-size="14" lengthAdjust="spacing" textLength="81.6689" x="451" y="255.1426">&#21019;&#20316;&#32773; / &#20027;&#25773;</text></g><!--entity Staff--><g id="elem_Staff"><ellipse cx="335.8345" cy="196.1094" fill="#EAF3FA" rx="16" ry="16" style="stroke:#315A7D;stroke-width:0.5;"/><path d="M335.8345,216.1094 C339.8345,216.1094 342.8345,216.1094 346.8345,212.1094 C354.8345,212.1094 362.8345,220.1094 362.8345,228.1094 L362.8345,232.1094 C362.8345,236.1094 358.8345,240.1094 354.8345,240.1094 L316.8345,240.1094 C312.8345,240.1094 308.8345,236.1094 308.8345,232.1094 L308.8345,228.1094 C308.8345,220.1094 316.8345,212.1094 324.8345,212.1094 C328.8345,216.1094 331.8345,216.1094 335.8345,216.1094 " fill="#EAF3FA" style="stroke:#315A7D;stroke-width:0.5;"/><text fill="#000000" font-family="sans-serif" font-size="14" lengthAdjust="spacing" textLength="95.6689" x="288" y="255.1426">&#23457;&#26680;&#21592; / &#31649;&#29702;&#21592;</text></g><!--entity MySQL--><g id="elem_MySQL"><path d="M933.5,793.1094 C933.5,783.1094 1018.1621,783.1094 1018.1621,783.1094 C1018.1621,783.1094 1102.8242,783.1094 1102.8242,793.1094 L1102.8242,854.9375 C1102.8242,864.9375 1018.1621,864.9375 1018.1621,864.9375 C1018.1621,864.9375 933.5,864.9375 933.5,854.9375 L933.5,793.1094 " fill="#FFF8E8" style="stroke:#A56B00;stroke-width:0.5;"/><path d="M933.5,793.1094 C933.5,803.1094 1018.1621,803.1094 1018.1621,803.1094 C1018.1621,803.1094 1102.8242,803.1094 1102.8242,793.1094 " fill="none" style="stroke:#A56B00;stroke-width:0.5;"/><text fill="#000000" font-family="sans-serif" font-size="14" lengthAdjust="spacing" textLength="58.3516" x="943.5" y="821.6426">MySQL 8</text><text fill="#000000" font-family="sans-serif" font-size="14" lengthAdjust="spacing" textLength="149.3242" x="943.5" y="839.252">&#29992;&#25143; &#183; &#35270;&#39057; &#183; &#20114;&#21160; &#183; &#30452;&#25773;</text><text fill="#000000" font-family="sans-serif" font-size="14" lengthAdjust="spacing" textLength="149.3242" x="943.5" y="856.8613">&#20250;&#21592; &#183; &#28040;&#24687; &#183; &#36816;&#33829; &#183; &#32479;&#35745;</text></g><!--entity MediaStore--><g id="elem_MediaStore"><path d="M1443.5,661.6094 L1479.5,661.6094 A7.5,7.5 0 0 1 1484.5,666.6094 L1491.5,682.6094 L1640.8242,682.6094 A5,5 0 0 1 1645.8242,687.6094 L1645.8242,729.8281 A5,5 0 0 1 1640.8242,734.8281 L1443.5,734.8281 A5,5 0 0 1 1438.5,729.8281 L1438.5,666.6094 A5,5 0 0 1 1443.5,661.6094 " fill="#F1F1F1" style="stroke:#181818;stroke-width:0.5;"/><line style="stroke:#181818;stroke-width:0.5;" x1="1438.5" x2="1491.5" y1="682.6094" y2="682.6094"/><text fill="#000000" font-family="sans-serif" font-size="14" lengthAdjust="spacing" textLength="87.9307" x="1448.5" y="704.1426">media-data &#21367;</text><text fill="#000000" font-family="sans-serif" font-size="14" lengthAdjust="spacing" textLength="177.3242" x="1448.5" y="721.752">&#35270;&#39057; &#183; &#23553;&#38754; &#183; &#22836;&#20687; &#183; &#28040;&#24687;&#38468;&#20214;</text></g><!--entity FFmpeg--><g id="elem_FFmpeg"><rect fill="#F7FAFC" height="55.2188" rx="5" ry="5" style="stroke:#315A7D;stroke-width:0.5;" width="136.7031" x="1640.5" y="507.6094"/><text fill="#17324D" font-family="sans-serif" font-size="14" lengthAdjust="spacing" textLength="116.7031" x="1650.5" y="532.1426">FFmpeg / FFprobe</text><text fill="#17324D" font-family="sans-serif" font-size="14" lengthAdjust="spacing" textLength="108.8828" x="1650.5" y="549.752">&#36716;&#30721; &#183; &#25506;&#27979; &#183; &#25130;&#24103;</text></g><!--entity SRS--><g id="elem_SRS"><polygon fill="#F7FAFC" points="491.5,369.1094,501.5,359.1094,610.0654,359.1094,610.0654,414.3281,600.0654,424.3281,491.5,424.3281,491.5,369.1094" style="stroke:#315A7D;stroke-width:0.5;"/><line style="stroke:#315A7D;stroke-width:0.5;" x1="600.0654" x2="610.0654" y1="369.1094" y2="359.1094"/><line style="stroke:#315A7D;stroke-width:0.5;" x1="491.5" x2="600.0654" y1="369.1094" y2="369.1094"/><line style="stroke:#315A7D;stroke-width:0.5;" x1="600.0654" x2="600.0654" y1="369.1094" y2="424.3281"/><text fill="#000000" font-family="sans-serif" font-size="14" lengthAdjust="spacing" textLength="28.7861" x="506.5" y="393.6426">SRS</text><text fill="#000000" font-family="sans-serif" font-size="14" lengthAdjust="spacing" textLength="78.5654" x="506.5" y="411.252">RTMP / HLS</text></g><g id="elem_GMN58"><path d="M1427.5,201.6094 L1427.5,236.8281 A5,5 0 0 0 1432.5,241.8281 L1879.0654,241.8281 A5,5 0 0 0 1884.0654,236.8281 L1884.0654,206.6094 L1874.0654,196.6094 L1432.5,196.6094 A5,5 0 0 0 1427.5,201.6094 " fill="#FFF8E8" style="stroke:#A56B00;stroke-width:0.5;"/><path d="M1874.0654,196.6094 L1874.0654,204.1094 A2.5,2.5 0 0 0 1876.5654,206.6094 L1884.0654,206.6094 L1874.0654,196.6094 " fill="#FFF8E8" style="stroke:#A56B00;stroke-width:1;"/><text fill="#000000" font-family="sans-serif" font-size="14" lengthAdjust="spacing" textLength="435.5654" x="1433.5" y="216.1426">&#24403;&#21069;&#36816;&#34892;&#22522;&#32447;&#20026;&#19968;&#20010; Gin &#36827;&#31243;&#65307;&#22270;&#20013;&#22235;&#20010;&#19994;&#21153;&#32452;&#20214;&#34920;&#31034;&#20195;&#30721;&#32844;&#36131;&#36793;&#30028;&#65292;</text><text fill="#000000" font-family="sans-serif" font-size="14" lengthAdjust="spacing" textLength="348.5576" x="1433.5" y="233.752">&#19981;&#34920;&#31034; user/content/engagement &#24494;&#26381;&#21153;&#24050;&#32463;&#29420;&#31435;&#37096;&#32626;&#12290;</text></g><!--link User to Pages--><g id="link_User_Pages"><path d="M235.6,258.7994 C251.48,284.8394 269.3353,314.1072 285.8853,341.2372 " fill="none" id="User-to-Pages" style="stroke:#315A7D;stroke-width:1.2;"/><polygon fill="#315A7D" points="289.01,346.3594,287.7378,336.593,286.4061,342.0909,280.9082,340.7592,289.01,346.3594" style="stroke:#315A7D;stroke-width:1.2;"/></g><!--link Creator to Pages--><g id="link_Creator_Pages"><path d="M452.06,258.7994 C425.19,284.8394 393.9891,315.0542 365.9891,342.1842 " fill="none" id="Creator-to-Pages" style="stroke:#315A7D;stroke-width:1.2;"/><polygon fill="#315A7D" points="361.68,346.3594,370.927,342.9693,365.2709,342.8801,365.3601,337.2239,361.68,346.3594" style="stroke:#315A7D;stroke-width:1.2;"/></g><!--link Staff to Pages--><g id="link_Staff_Pages"><path d="M331.46,258.7994 C328.41,284.8394 325.0685,313.2702 321.8885,340.4002 " fill="none" id="Staff-to-Pages" style="stroke:#315A7D;stroke-width:1.2;"/><polygon fill="#315A7D" points="321.19,346.3594,326.2105,337.8862,321.7721,341.3934,318.2649,336.9549,321.19,346.3594" style="stroke:#315A7D;stroke-width:1.2;"/></g><!--link Pages to HttpClient--><g id="link_Pages_HttpClient"><path d="M253.23,436.7994 C220.29,459.9894 185.9268,484.1864 157.6768,504.0664 " fill="none" id="Pages-to-HttpClient" style="stroke:#315A7D;stroke-width:1.2;"/><polygon fill="#315A7D" points="152.77,507.5194,162.4322,505.6111,156.859,504.6419,157.8282,499.0687,152.77,507.5194" style="stroke:#315A7D;stroke-width:1.2;"/></g><!--link Pages to WsClient--><g id="link_Pages_WsClient"><path d="M301.57,436.9894 C294.04,460.1694 286.925,482.0533 280.475,501.8933 " fill="none" id="Pages-to-WsClient" style="stroke:#315A7D;stroke-width:1.2;"/><polygon fill="#315A7D" points="278.62,507.5994,285.2066,500.277,280.1659,502.8443,277.5985,497.8036,278.62,507.5994" style="stroke:#315A7D;stroke-width:1.2;"/></g><!--link Pages to Player--><g id="link_Pages_Player"><path d="M345.8,436.9894 C361.36,460.1694 376.5356,482.7779 389.8556,502.6179 " fill="none" id="Pages-to-Player" style="stroke:#315A7D;stroke-width:1.2;"/><polygon fill="#315A7D" points="393.2,507.5994,391.5044,497.8976,390.413,503.4482,384.8624,502.3568,393.2,507.5994" style="stroke:#315A7D;stroke-width:1.2;"/></g><!--link HttpClient to Nginx--><g id="link_HttpClient_Nginx"><path d="M115,562.6994 C115,592.5294 115,634.6394 115,664.4794 " fill="none" id="HttpClient-to-Nginx" style="stroke:#315A7D;stroke-width:1.2;"/><polygon fill="#315A7D" points="115,670.4794,119,661.4794,115,665.4794,111,661.4794,115,670.4794" style="stroke:#315A7D;stroke-width:1.2;"/><text fill="#000000" font-family="sans-serif" font-size="14" lengthAdjust="spacing" textLength="81.6895" x="116" y="610.1426">HTTP /api/v1</text></g><!--link WsClient to Nginx--><g id="link_WsClient_Nginx"><path d="M249.12,562.6394 C236.74,577.9494 220.49,597.3194 205,613.6094 C186.05,633.5294 167.8226,650.5798 149.9526,666.5598 " fill="none" id="WsClient-to-Nginx" style="stroke:#315A7D;stroke-width:1.2;"/><polygon fill="#315A7D" points="145.48,670.5594,154.8552,667.5418,149.2071,667.2264,149.5225,661.5784,145.48,670.5594" style="stroke:#315A7D;stroke-width:1.2;"/><text fill="#000000" font-family="sans-serif" font-size="14" lengthAdjust="spacing" textLength="96.4756" x="222" y="610.1426">WebSocket /ws</text></g><!--link Nginx to Router--><g id="link_Nginx_Router"><path d="M82.3,670.5894 C50.19,641.3594 6,591.1294 6,536.1094 C6,218.1094 6,218.1094 6,218.1094 C6,130.2094 677.3401,119.5799 865.2001,118.3099 " fill="none" id="Nginx-to-Router" style="stroke:#315A7D;stroke-width:1.2;"/><polygon fill="#315A7D" points="871.2,118.2694,862.1732,114.3303,866.2001,118.3032,862.2272,122.3301,871.2,118.2694" style="stroke:#315A7D;stroke-width:1.2;"/></g><!--link Router to Middleware--><g id="link_Router_Middleware"><path d="M959.33,144.6494 C981.32,159.1094 1003.4468,173.6728 1025.4668,188.1528 " fill="none" id="Router-to-Middleware" style="stroke:#315A7D;stroke-width:1.2;"/><polygon fill="#315A7D" points="1030.48,191.4494,1025.1579,183.1623,1026.3023,188.7022,1020.7624,189.8466,1030.48,191.4494" style="stroke:#315A7D;stroke-width:1.2;"/></g><!--link Middleware to UserDomain--><g id="link_Middleware_UserDomain"><path d="M1057.72,246.7494 C1046.84,268.5694 1033.6872,294.9598 1019.6672,323.0798 " fill="none" id="Middleware-to-UserDomain" style="stroke:#315A7D;stroke-width:1.2;"/><polygon fill="#315A7D" points="1016.99,328.4494,1024.5855,322.1797,1019.221,323.9747,1017.426,318.6102,1016.99,328.4494" style="stroke:#315A7D;stroke-width:1.2;"/></g><!--link Middleware to ContentDomain--><g id="link_Middleware_ContentDomain"><path d="M1138.17,246.7194 C1168.86,260.7194 1204.61,279.7394 1233,302.6094 C1242.38,310.1594 1247.3733,314.6343 1255.6433,323.8943 " fill="none" id="Middleware-to-ContentDomain" style="stroke:#315A7D;stroke-width:1.2;"/><polygon fill="#315A7D" points="1259.64,328.3694,1256.6284,318.9923,1256.3094,324.6401,1250.6616,324.3212,1259.64,328.3694" style="stroke:#315A7D;stroke-width:1.2;"/></g><!--link Middleware to LiveDomain--><g id="link_Middleware_LiveDomain"><path d="M986.97,246.6494 C958.29,256.5494 930.33,267.3594 918,275.6094 C886.2,296.8694 861.1254,325.0115 841.7954,350.1715 " fill="none" id="Middleware-to-LiveDomain" style="stroke:#315A7D;stroke-width:1.2;"/><polygon fill="#315A7D" points="838.14,354.9294,846.7951,350.2294,841.1862,350.9644,840.4512,345.3555,838.14,354.9294" style="stroke:#315A7D;stroke-width:1.2;"/></g><!--link Middleware to AdminDomain--><g id="link_Middleware_AdminDomain"><path d="M1082.72,246.7494 C1095.53,275.8794 1113.7148,317.2069 1127.9048,349.4769 " fill="none" id="Middleware-to-AdminDomain" style="stroke:#315A7D;stroke-width:1.2;"/><polygon fill="#315A7D" points="1130.32,354.9694,1130.3589,345.1206,1128.3074,350.3923,1123.0356,348.3408,1130.32,354.9694" style="stroke:#315A7D;stroke-width:1.2;"/></g><!--link UserDomain to DataAccess--><g id="link_UserDomain_DataAccess"><path d="M994.03,454.6894 C994.72,460.4094 995.38,466.1094 996,471.6094 C1004.63,548.6194 1012.4799,634.6628 1015.8799,672.9928 " fill="none" id="UserDomain-to-DataAccess" style="stroke:#315A7D;stroke-width:1.2;"/><polygon fill="#315A7D" points="1016.41,678.9694,1019.5991,669.6511,1015.9682,673.9889,1011.6304,670.358,1016.41,678.9694" style="stroke:#315A7D;stroke-width:1.2;"/></g><!--link ContentDomain to DataAccess--><g id="link_ContentDomain_DataAccess"><path d="M1246.92,454.2294 C1180.58,524.6094 1080.0758,631.2536 1039.2358,674.5736 " fill="none" id="ContentDomain-to-DataAccess" style="stroke:#315A7D;stroke-width:1.2;"/><polygon fill="#315A7D" points="1035.12,678.9394,1044.2043,675.1346,1038.5499,675.3012,1038.3832,669.6468,1035.12,678.9394" style="stroke:#315A7D;stroke-width:1.2;"/></g><!--link LiveDomain to DataAccess--><g id="link_LiveDomain_DataAccess"><path d="M855.36,428.4194 C872.32,441.0394 892.64,454.1794 913,462.6094 C934.26,471.4194 947.24,455.8294 964,471.6094 C967.87,475.2494 1000.7234,620.2256 1012.6234,673.1356 " fill="none" id="LiveDomain-to-DataAccess" style="stroke:#315A7D;stroke-width:1.2;"/><polygon fill="#315A7D" points="1013.94,678.9894,1015.8677,669.331,1012.8429,674.1112,1008.0626,671.0864,1013.94,678.9894" style="stroke:#315A7D;stroke-width:1.2;"/></g><!--link AdminDomain to DataAccess--><g id="link_AdminDomain_DataAccess"><path d="M1131.07,428.1394 C1103.7,493.2394 1048.7347,623.988 1028.0147,673.288 " fill="none" id="AdminDomain-to-DataAccess" style="stroke:#315A7D;stroke-width:1.2;"/><polygon fill="#315A7D" points="1025.69,678.8194,1032.8646,672.0722,1027.6273,674.2099,1025.4895,668.9726,1025.69,678.8194" style="stroke:#315A7D;stroke-width:1.2;"/></g><!--link DataAccess to MySQL--><g id="link_DataAccess_MySQL"><path d="M1018,717.1394 C1018,734.3394 1018,754.8294 1018,777.0194 " fill="none" id="DataAccess-to-MySQL" style="stroke:#315A7D;stroke-width:1.2;"/><polygon fill="#315A7D" points="1018,783.0194,1022,774.0194,1018,778.0194,1014,774.0194,1018,783.0194" style="stroke:#315A7D;stroke-width:1.2;"/></g><!--link UserDomain to Hubs--><g id="link_UserDomain_Hubs"><path d="M940.38,454.6694 C926.74,473.2394 916.0528,487.7743 905.0528,502.7443 " fill="none" id="UserDomain-to-Hubs" style="stroke:#315A7D;stroke-width:1.2;"/><polygon fill="#315A7D" points="901.5,507.5794,910.0526,502.6954,904.4607,503.5502,903.6058,497.9583,901.5,507.5794" style="stroke:#315A7D;stroke-width:1.2;"/><text fill="#000000" font-family="sans-serif" font-size="14" lengthAdjust="spacing" textLength="28" x="928" y="487.1426">&#31169;&#20449;</text></g><!--link LiveDomain to Hubs--><g id="link_LiveDomain_Hubs"><path d="M824.49,428.4794 C831.16,447.4594 840.35,470.8494 851,490.6094 C853.99,496.1594 854.1879,496.8803 857.8479,502.2203 " fill="none" id="LiveDomain-to-Hubs" style="stroke:#315A7D;stroke-width:1.2;"/><polygon fill="#315A7D" points="861.24,507.1694,859.4513,497.4843,858.4133,503.0451,852.8525,502.0071,861.24,507.1694" style="stroke:#315A7D;stroke-width:1.2;"/><text fill="#000000" font-family="sans-serif" font-size="14" lengthAdjust="spacing" textLength="56" x="852" y="487.1426">&#30452;&#25773;&#20107;&#20214;</text></g><!--link Hubs to DataAccess--><g id="link_Hubs_DataAccess"><path d="M874.78,562.8694 C872.06,578.6194 871.41,598.3694 880,613.6094 C897.74,645.0794 927.1302,663.654 957.4002,676.704 " fill="none" id="Hubs-to-DataAccess" style="stroke:#315A7D;stroke-width:1.2;"/><polygon fill="#315A7D" points="962.91,679.0794,956.2289,671.8431,958.3185,677.0999,953.0618,679.1895,962.91,679.0794" style="stroke:#315A7D;stroke-width:1.2;"/><text fill="#000000" font-family="sans-serif" font-size="14" lengthAdjust="spacing" textLength="98" x="881" y="610.1426">&#20808;&#25345;&#20037;&#21270;&#21518;&#24191;&#25773;</text></g><!--link Workers to UserDomain--><g id="link_Workers_UserDomain"><path d="M856.62,246.8794 C866.4,255.8894 877.27,266.0694 887,275.6094 C903.74,292.0194 916.9074,306.362 932.0474,324.042 " fill="none" id="Workers-to-UserDomain" style="stroke:#315A7D;stroke-width:1.2;"/><polygon fill="#315A7D" points="935.95,328.5994,933.1343,319.1616,932.6978,324.8016,927.0578,324.3651,935.95,328.5994" style="stroke:#315A7D;stroke-width:1.2;"/><text fill="#000000" font-family="sans-serif" font-size="14" lengthAdjust="spacing" textLength="56" x="905" y="291.1426">&#35746;&#38405;&#21040;&#26399;</text></g><!--link Workers to LiveDomain--><g id="link_Workers_LiveDomain"><path d="M824.81,246.7494 C822.42,275.8794 819.0711,316.7195 816.4211,348.9895 " fill="none" id="Workers-to-LiveDomain" style="stroke:#315A7D;stroke-width:1.2;"/><polygon fill="#315A7D" points="815.93,354.9694,820.6532,346.3269,816.3392,349.9861,812.68,345.6722,815.93,354.9694" style="stroke:#315A7D;stroke-width:1.2;"/><text fill="#000000" font-family="sans-serif" font-size="14" lengthAdjust="spacing" textLength="56" x="823" y="291.1426">&#39044;&#32422;&#21551;&#21160;</text></g><!--link UserDomain to MediaStore--><g id="link_UserDomain_MediaStore"><path d="M1043.96,454.6194 C1048.79,457.7194 1053.82,460.4394 1059,462.6094 C1092.53,476.6294 1356.42,450.4794 1386,471.6094 C1430.4,503.3294 1386.77,552.0494 1429,586.6094 C1446.42,600.8594 1460.29,582.0994 1479,594.6094 C1502.79,610.5094 1516.7348,654.2614 1526.8148,677.0714 " fill="none" id="UserDomain-to-MediaStore" style="stroke:#315A7D;stroke-width:1.2;"/><polygon fill="#315A7D" points="1529.24,682.5594,1529.2609,672.7105,1527.219,677.986,1521.9435,675.9442,1529.24,682.5594" style="stroke:#315A7D;stroke-width:1.2;"/><text fill="#000000" font-family="sans-serif" font-size="14" lengthAdjust="spacing" textLength="67.6689" x="1430" y="541.1426">&#22836;&#20687; / &#38468;&#20214;</text></g><!--link ContentDomain to MediaStore--><g id="link_ContentDomain_MediaStore"><path d="M1363.33,412.0494 C1408.42,429.9994 1469.02,460.9994 1505,507.6094 C1539.52,552.3194 1544.6986,635.2699 1544.1586,676.4999 " fill="none" id="ContentDomain-to-MediaStore" style="stroke:#315A7D;stroke-width:1.2;"/><polygon fill="#315A7D" points="1544.08,682.4994,1548.1975,673.5525,1544.1455,677.4998,1540.1982,673.4478,1544.08,682.4994" style="stroke:#315A7D;stroke-width:1.2;"/><text fill="#000000" font-family="sans-serif" font-size="14" lengthAdjust="spacing" textLength="56" x="1538" y="541.1426">&#28857;&#25773;&#36164;&#28304;</text></g><!--link ContentDomain to FFmpeg--><g id="link_ContentDomain_FFmpeg"><path d="M1363.22,406.7794 C1418.68,420.9294 1504.15,444.4394 1576,471.6094 C1603.44,481.9894 1627.6819,493.0096 1651.9919,504.9196 " fill="none" id="ContentDomain-to-FFmpeg" style="stroke:#315A7D;stroke-width:1.2;"/><polygon fill="#315A7D" points="1657.38,507.5594,1651.0577,500.0077,1652.8899,505.3596,1647.538,507.1918,1657.38,507.5594" style="stroke:#315A7D;stroke-width:1.2;"/></g><!--link FFmpeg to MediaStore--><g id="link_FFmpeg_MediaStore"><path d="M1681.42,562.6994 C1653.45,589.6694 1614.29,648.4256 1583.32,678.2756 " fill="none" id="FFmpeg-to-MediaStore" style="stroke:#315A7D;stroke-width:1.2;"/><polygon fill="#315A7D" points="1579,682.4394,1588.2559,679.0737,1582.6,678.9695,1582.7042,673.3136,1579,682.4394" style="stroke:#315A7D;stroke-width:1.2;"/></g><!--link LiveDomain to SRS--><g id="link_LiveDomain_SRS"><path d="M726.9,391.6094 C688.89,391.6094 651.14,391.6094 616.78,391.6094 " fill="none" id="LiveDomain-to-SRS" style="stroke:#315A7D;stroke-width:1.2;"/><polygon fill="#315A7D" points="610.78,391.6094,619.78,395.6094,615.78,391.6094,619.78,387.6094,610.78,391.6094" style="stroke:#315A7D;stroke-width:1.2;"/><text fill="#000000" font-family="sans-serif" font-size="14" lengthAdjust="spacing" textLength="87.8896" x="625.25" y="385.1426">&#25512;&#27969;/&#25773;&#25918;&#20449;&#24687;</text></g><!--link Creator to SRS--><g id="link_Creator_SRS"><path d="M505.39,258.7994 C515.86,289.0594 528.2791,324.9389 538.0691,353.2489 " fill="none" id="Creator-to-SRS" style="stroke:#315A7D;stroke-width:1.2;"/><polygon fill="#315A7D" points="540.03,358.9194,540.8689,349.1063,538.3959,354.1939,533.3082,351.7209,540.03,358.9194" style="stroke:#315A7D;stroke-width:1.2;"/><text fill="#000000" font-family="sans-serif" font-size="14" lengthAdjust="spacing" textLength="71.5518" x="517" y="291.1426">RTMP &#25512;&#27969;</text></g><!--link SRS to Player--><g id="link_SRS_Player"><path d="M519.58,424.3694 C494.91,449.2994 465.17,479.3642 441.83,502.9542 " fill="none" id="SRS-to-Player" style="stroke:#315A7D;stroke-width:1.2;"/><polygon fill="#315A7D" points="437.61,507.2194,446.7834,503.6349,441.1266,503.6651,441.0965,498.0083,437.61,507.2194" style="stroke:#315A7D;stroke-width:1.2;"/><text fill="#000000" font-family="sans-serif" font-size="14" lengthAdjust="spacing" textLength="59.124" x="473" y="487.1426">HLS &#25773;&#25918;</text></g><!--link Player to MediaStore--><g id="link_Player_MediaStore"><path d="M458.65,546.7294 C516.38,559.0294 616.74,578.6294 704,586.6094 C741.73,590.0594 1349.76,583.5394 1386,594.6094 C1429.54,607.9094 1467.6117,654.7202 1497.3117,678.7002 " fill="none" id="Player-to-MediaStore" style="stroke:#315A7D;stroke-width:1.2;"/><polygon fill="#315A7D" points="1501.98,682.4694,1497.4904,673.7034,1498.0898,679.3284,1492.4647,679.9277,1501.98,682.4694" style="stroke:#315A7D;stroke-width:1.2;"/><text fill="#000000" font-family="sans-serif" font-size="14" lengthAdjust="spacing" textLength="42.0205" x="1429" y="610.1426">/media</text></g><!--link Backend to GMN58--><g id="link_Backend_GMN58"><path d="M1403.0641,121.199 C1403.5961,121.4028 1404.1523,121.6159 1404.7319,121.838 C1405.8912,122.2821 1407.1444,122.7622 1408.4863,123.2763 C1411.17,124.3045 1414.2083,125.4685 1417.5587,126.7522 C1430.9606,131.8869 1449.3575,138.9356 1470.0375,146.8594 C1511.3975,162.7069 1561.89,182.0544 1599.82,196.5894 " fill="none" id="Backend-GMN58" style="stroke:#315A7D;stroke-width:1.2;stroke-dasharray:7.0,7.0;"/></g><!--SRC=[RLPBJnj94Bxth-ZbJiR6924vhCGI4NO5komcuM9fDTWDZB1dB7kSXrQHxF2GUHWC2Kc8IOW92LOU1l4qDc1f_qgcPyOd_i9MTzlCsE40xgcghggk-hxg_aLHW-54YE0RDwH_z0aI8JUYYKWOwOeU9lYUh4RaoOHVZn4vWkbCmJgeM9LDCranpbzObMcZSanp5vTdwGSz7c_xWnwlx_9i3kbQ5EiQ7jLqNOlWa18ZGLtHL1IVLDIe70DFgXOYSHB57LqkOKnM9vdGrucG7DIr66upIoLQtC8IDjUBjUHRwsN1J9-qOJcE7yH9h655qpdZVCDEpe2XKQgOgz-vIGya3VehgsBU_52YAs_0oYhchUmihBcXNvV7nX2Aoi59UPpWjeS9WdsOpcMihxlSe3UcgJfHG_XVX75GYqGrbQWwRZDAR-bylfO_ghtR2gZsuMUwV6AKbkoZQVFLEcOraJot9CzjoTCbURrWiJDRsre12v4ni-YGF3x9SrFoTWHKAtS8kJFf7SdhmV-TO9fTeijxJD8fUNqybq58CTwSHj_my23k7lmTzuGL40JKxYUA5iUI75MaHrw-gq_NeqBRl7M4ZFgru2JHh_PAZ-DIM7b4M7Ys3ax8EdSn4h_EmKCbHBJ1iFoKn0Bgm60d5BUltoyovLBq327MRjmsrgWYBPxIzO9JsHxuanMLn5hh- -UueZu9gBLtwsOonQfQphBYBMTeTiMeV8GMSYVSZCMvwk1zHSKqimOWXGesklWRQAzf8hCTqX8wEq2zPFMpyrr2rRobEw5Fm44vRk2tEnG17mDAA1GcZ-KO2QX_Z0nZ1eITLNjklpPtQBwRuiuS6mGUTMsS0EN4iPi22A231slxmYXl2wO5L8OeR1UtxTsKm1WNtSBYWvPVyE_RGDG3yw302BFvYOkwi77s5k1k5xUWB4pazM9h9sLKypGzQvI_Nd7gdXQ1LhJc8u1BPsUWTQvaEZ1TNh6MzW2rviiBBl9XStxDAbJfzZIqXuiwSPrwookqDCL5Dx6zyzpQM33AgtI-mFFfmERQdfafGZxc-wmWCCUBVdrAWYokPEv0PU0qgxMjQQlycVlqO3DThRq-_07e4V5AIo8azzyFCB_UEJqz0DwP-nKuWnF2wyEYCSnVDMjdFy4Ye49pQ-iSc9jbAv-qYnVcgtCnONWO3e-hECzGCvPwW5-uBp4AE6Bvi6L0fSNtvkjZUbg58pB76mMhNBNcZu46Wiw9qPOPu0zEa502HhQ41qXabCJY4qeKZsYnIOPhKHEQtOMZCrmMjsflPcXwpzpO5DpcTYqkx_yrD51lYbs4CXPvzHPWul4zzsHTxWu6IJpEg1U2hr4v3jmRUEh_knztmJZZjM9S4l1XAr5zjXBz2wW2c4nY7gVDr2wtvyNbLfLDwAhW3lEBnhHm21ZJ5Y4XHMvdKO7e9utHocVcNWh6CLzj7zAfPSTrRPrrKZXZs_rmBn3aEd5lRoHAng64lRtHc3OAHBRFlraVKjp5qfPvjC1NwI-qj2F65zzGds_-8Nz07HeU67JDG90Xn7Y5szj_hS_k-htaaeX1udpp__pRDRSTuTKaTaJrMOiSUoxcan7VnVo6g0ytrDZUPE5S133ua90oVNtyYHykSSymPyrLhW7IecccSelInSCMZPiwoF7ETIxyDNblLJhUMpKkxwqgPodEpB7NcW5Z8PHEpD7ME0qbXpdG1f27kAmv4fZGcRIvc39EP-ZYAtRXSzQZEYLRwWhcRl8sMRaIk8lTZFyfSGVzBBnWYOG5FQufPfEvzVmKqXENyJMsTKRKcTIykxL4G0vmQ2uLpAEK9EuGA2GGjOaYmehpIfWY9d50p-3TxyTYFwhBVafRuWE3FKLqqdYPQcEDDm6Yy5AOox2varzaOxnSDKfbevGqIbymUo3OrPnLMBWyoy5proXzfxaSQCJpJzmFThvWRPVPe-H3oaujseSVxOjJQstnycmH6QMCKEC4z44AYg99H1q7_aOO4-b5qTp8W3DwiczLbgs5RzRNXTfKmJhV_v5yZjYhXIME_WS0]--></g></svg>