<svg xmlns="http://www.w3.org/2000/svg" xmlns:xlink="http://www.w3.org/1999/xlink" contentStyleType="text/css" data-diagram-type="DESCRIPTION" height="661px" preserveAspectRatio="none" style="width:1558px;height:661px;background:#FFFFFF;" version="1.1" viewBox="0 0 1558 661" width="1558px" zoomAndPan="magnify"><?plantuml 1.2026.6?><defs/><g><g class="title" data-source-line="2"><text fill="#000000" font-family="sans-serif" font-size="14" font-weight="700" lengthAdjust="spacing" textLength="181.9727" x="684.5137" y="24.5332">&#25913;&#36896;&#21518;&#65306;Kubernetes &#37096;&#32626;&#22270;</text></g><!--cluster K8S--><g class="cluster" data-qualified-name="K8S" data-source-line="9" id="ent0004"><polygon fill="#F7FAFC" points="261,54.6094,271,44.6094,1533,44.6094,1533,626.6094,1523,636.6094,261,636.6094,261,54.6094" style="stroke:#7C93A8;stroke-width:1;stroke-linejoin:miter;stroke-miterlimit:10;"/><line style="stroke:#7C93A8;stroke-width:1;" x1="1523" x2="1533" y1="54.6094" y2="44.6094"/><line style="stroke:#7C93A8;stroke-width:1;" x1="261" x2="1523" y1="54.6094" y2="54.6094"/><line style="stroke:#7C93A8;stroke-width:1;" x1="1523" x2="1523" y1="54.6094" y2="636.6094"/><text fill="#000000" font-family="sans-serif" font-size="14" font-weight="700" lengthAdjust="spacing" textLength="129.1445" x="828.4277" y="72.1426">Kubernetes Cluster</text></g><!--cluster Ingress--><g class="cluster" data-qualified-name="K8S.Ingress" data-source-line="10" id="ent0005"><polygon fill="#F7FAFC" points="285,269.6094,295,259.6094,528,259.6094,528,344.6094,518,354.6094,285,354.6094,285,269.6094" style="stroke:#7C93A8;stroke-width:1;stroke-linejoin:miter;stroke-miterlimit:10;"/><line style="stroke:#7C93A8;stroke-width:1;" x1="518" x2="528" y1="269.6094" y2="259.6094"/><line style="stroke:#7C93A8;stroke-width:1;" x1="285" x2="518" y1="269.6094" y2="269.6094"/><line style="stroke:#7C93A8;stroke-width:1;" x1="518" x2="518" y1="269.6094" y2="354.6094"/><text fill="#000000" font-family="sans-serif" font-size="14" font-weight="700" lengthAdjust="spacing" textLength="154.0547" x="325.4727" y="287.1426">Ingress / LoadBalancer</text></g><!--cluster Frontend--><g class="cluster" data-qualified-name="K8S.Frontend" data-source-line="13" id="ent0007"><polygon fill="#F7FAFC" points="777.5,359.6094,787.5,349.6094,993.5,349.6094,993.5,452.6094,983.5,462.6094,777.5,462.6094,777.5,359.6094" style="stroke:#7C93A8;stroke-width:1;stroke-linejoin:miter;stroke-miterlimit:10;"/><line style="stroke:#7C93A8;stroke-width:1;" x1="983.5" x2="993.5" y1="359.6094" y2="349.6094"/><line style="stroke:#7C93A8;stroke-width:1;" x1="777.5" x2="983.5" y1="359.6094" y2="359.6094"/><line style="stroke:#7C93A8;stroke-width:1;" x1="983.5" x2="983.5" y1="359.6094" y2="462.6094"/><text fill="#000000" font-family="sans-serif" font-size="14" font-weight="700" lengthAdjust="spacing" textLength="140.7793" x="811.1104" y="377.1426">frontend Deployment</text></g><!--cluster Backend--><g class="cluster" data-qualified-name="K8S.Backend" data-source-line="16" id="ent0009"><polygon fill="#F7FAFC" points="778,496.6094,788,486.6094,994,486.6094,994,589.6094,984,599.6094,778,599.6094,778,496.6094" style="stroke:#7C93A8;stroke-width:1;stroke-linejoin:miter;stroke-miterlimit:10;"/><line style="stroke:#7C93A8;stroke-width:1;" x1="984" x2="994" y1="496.6094" y2="486.6094"/><line style="stroke:#7C93A8;stroke-width:1;" x1="778" x2="984" y1="496.6094" y2="496.6094"/><line style="stroke:#7C93A8;stroke-width:1;" x1="984" x2="984" y1="496.6094" y2="599.6094"/><text fill="#000000" font-family="sans-serif" font-size="14" font-weight="700" lengthAdjust="spacing" textLength="140.8135" x="811.5933" y="514.1426">backend Deployment</text></g><!--cluster WorkerNode--><g class="cluster" data-qualified-name="K8S.WorkerNode" data-source-line="19" id="ent0011"><polygon fill="#F7FAFC" points="783,222.6094,793,212.6094,988,212.6094,988,315.6094,978,325.6094,783,325.6094,783,222.6094" style="stroke:#7C93A8;stroke-width:1;stroke-linejoin:miter;stroke-miterlimit:10;"/><line style="stroke:#7C93A8;stroke-width:1;" x1="978" x2="988" y1="222.6094" y2="212.6094"/><line style="stroke:#7C93A8;stroke-width:1;" x1="783" x2="978" y1="222.6094" y2="222.6094"/><line style="stroke:#7C93A8;stroke-width:1;" x1="978" x2="978" y1="222.6094" y2="325.6094"/><text fill="#000000" font-family="sans-serif" font-size="14" font-weight="700" lengthAdjust="spacing" textLength="129.9238" x="816.5381" y="240.1426">worker Deployment</text></g><!--cluster SRS--><g class="cluster" data-qualified-name="K8S.SRS" data-source-line="22" id="ent0013"><polygon fill="#F7FAFC" points="749,103.6094,759,93.6094,1022,93.6094,1022,178.6094,1012,188.6094,749,188.6094,749,103.6094" style="stroke:#7C93A8;stroke-width:1;stroke-linejoin:miter;stroke-miterlimit:10;"/><line style="stroke:#7C93A8;stroke-width:1;" x1="1012" x2="1022" y1="103.6094" y2="93.6094"/><line style="stroke:#7C93A8;stroke-width:1;" x1="749" x2="1012" y1="103.6094" y2="103.6094"/><line style="stroke:#7C93A8;stroke-width:1;" x1="1012" x2="1012" y1="103.6094" y2="188.6094"/><text fill="#000000" font-family="sans-serif" font-size="14" font-weight="700" lengthAdjust="spacing" textLength="197.5928" x="782.7036" y="121.1426">SRS Deployment / StatefulSet</text></g><!--cluster MySQL--><g class="cluster" data-qualified-name="K8S.MySQL" data-source-line="25" id="ent0015"><polygon fill="#F7FAFC" points="1224,500.6094,1234,490.6094,1509,490.6094,1509,585.6094,1499,595.6094,1224,595.6094,1224,500.6094" style="stroke:#7C93A8;stroke-width:1;stroke-linejoin:miter;stroke-miterlimit:10;"/><line style="stroke:#7C93A8;stroke-width:1;" x1="1499" x2="1509" y1="500.6094" y2="490.6094"/><line style="stroke:#7C93A8;stroke-width:1;" x1="1224" x2="1499" y1="500.6094" y2="500.6094"/><line style="stroke:#7C93A8;stroke-width:1;" x1="1499" x2="1499" y1="500.6094" y2="595.6094"/><text fill="#000000" font-family="sans-serif" font-size="14" font-weight="700" lengthAdjust="spacing" textLength="209.0977" x="1257.9512" y="518.1426">MySQL StatefulSet / &#25176;&#31649;&#25968;&#25454;&#24211;</text></g><!--entity PV--><g class="entity" data-qualified-name="K8S.PV" data-source-line="28" id="ent0017"><rect fill="#F1F1F1" height="37.6094" rx="35" ry="35" style="stroke:#181818;stroke-width:0.5;" width="129.7168" x="1301" y="297.6094"/><text fill="#000000" font-family="sans-serif" font-size="14" lengthAdjust="spacing" textLength="109.7168" x="1311" y="322.1426">PersistentVolume</text></g><!--entity Config--><g class="entity" data-qualified-name="K8S.Config" data-source-line="29" id="ent0018"><rect fill="#F7FAFC" height="37.6094" rx="5" ry="5" style="stroke:#315A7D;stroke-width:0.5;" width="87.7031" x="362.5" y="407.6094"/><text fill="#17324D" font-family="sans-serif" font-size="14" lengthAdjust="spacing" textLength="67.7031" x="372.5" y="432.1426">ConfigMap</text></g><!--entity Secret--><g class="entity" data-qualified-name="K8S.Secret" data-source-line="30" id="ent0019"><rect fill="#F7FAFC" height="37.6094" rx="5" ry="5" style="stroke:#315A7D;stroke-width:0.5;" width="60.4619" x="376.5" y="580.6094"/><text fill="#17324D" font-family="sans-serif" font-size="14" lengthAdjust="spacing" textLength="40.4619" x="386.5" y="605.1426">Secret</text></g><!--entity HPA--><g class="entity" data-qualified-name="K8S.HPA" data-source-line="31" id="ent0020"><rect fill="#F7FAFC" height="37.6094" rx="5" ry="5" style="stroke:#315A7D;stroke-width:0.5;" width="48.7861" x="382" y="489.6094"/><text fill="#17324D" font-family="sans-serif" font-size="14" lengthAdjust="spacing" textLength="28.7861" x="392" y="514.1426">HPA</text></g><!--entity Routes--><g class="entity" data-qualified-name="K8S.Ingress.Routes" data-source-line="11" id="ent0006"><rect fill="#F7FAFC" height="37.6094" rx="5" ry="5" style="stroke:#315A7D;stroke-width:0.5;" width="210.5996" x="301" y="300.6094"/><text fill="#17324D" font-family="sans-serif" font-size="14" lengthAdjust="spacing" textLength="190.5996" x="311" y="325.1426">HTTP / WebSocket / HLS &#36335;&#30001;</text></g><!--entity Web--><g class="entity" data-qualified-name="K8S.Frontend.Web" data-source-line="14" id="ent0008"><rect fill="#F7FAFC" height="55.2188" rx="5" ry="5" style="stroke:#315A7D;stroke-width:0.5;" width="100.1582" x="835.5" y="391.1094"/><text fill="#17324D" font-family="sans-serif" font-size="14" lengthAdjust="spacing" textLength="76.6582" x="845.5" y="415.6426">Nginx + Vue</text><text fill="#17324D" font-family="sans-serif" font-size="14" lengthAdjust="spacing" textLength="80.1582" x="845.5" y="433.252">replicas &gt;= 2</text></g><!--entity API--><g class="entity" data-qualified-name="K8S.Backend.API" data-source-line="17" id="ent0010"><rect fill="#F7FAFC" height="55.2188" rx="5" ry="5" style="stroke:#315A7D;stroke-width:0.5;" width="151.4961" x="810" y="528.1094"/><text fill="#17324D" font-family="sans-serif" font-size="14" lengthAdjust="spacing" textLength="131.4961" x="820" y="552.6426">Gin API / WebSocket</text><text fill="#17324D" font-family="sans-serif" font-size="14" lengthAdjust="spacing" textLength="80.1582" x="820" y="570.252">replicas &gt;= 2</text></g><!--entity Worker--><g class="entity" data-qualified-name="K8S.WorkerNode.Worker" data-source-line="20" id="ent0012"><rect fill="#F7FAFC" height="55.2188" rx="5" ry="5" style="stroke:#315A7D;stroke-width:0.5;" width="127.3789" x="822" y="254.1094"/><text fill="#17324D" font-family="sans-serif" font-size="14" lengthAdjust="spacing" textLength="107.3789" x="832" y="278.6426">Schedule Worker</text><text fill="#17324D" font-family="sans-serif" font-size="14" lengthAdjust="spacing" textLength="98.8066" x="832" y="296.252">leader/&#24130;&#31561;&#20219;&#21153;</text></g><!--entity Media--><g class="entity" data-qualified-name="K8S.SRS.Media" data-source-line="23" id="ent0014"><rect fill="#F7FAFC" height="37.6094" rx="5" ry="5" style="stroke:#315A7D;stroke-width:0.5;" width="98.5654" x="836" y="134.6094"/><text fill="#17324D" font-family="sans-serif" font-size="14" lengthAdjust="spacing" textLength="78.5654" x="846" y="159.1426">RTMP / HLS</text></g><!--entity DB--><g class="entity" data-qualified-name="K8S.MySQL.DB" data-source-line="26" id="ent0016"><path d="M1306,542.1094 C1306,532.1094 1366.1895,532.1094 1366.1895,532.1094 C1366.1895,532.1094 1426.3789,532.1094 1426.3789,542.1094 L1426.3789,568.7188 C1426.3789,578.7188 1366.1895,578.7188 1366.1895,578.7188 C1366.1895,578.7188 1306,578.7188 1306,568.7188 L1306,542.1094" fill="#FFF8E8" style="stroke:#A56B00;stroke-width:0.5;"/><path d="M1306,542.1094 C1306,552.1094 1366.1895,552.1094 1366.1895,552.1094 C1366.1895,552.1094 1426.3789,552.1094 1426.3789,542.1094" fill="none" style="stroke:#A56B00;stroke-width:0.5;"/><text fill="#000000" font-family="sans-serif" font-size="14" lengthAdjust="spacing" textLength="100.3789" x="1316" y="570.6426">danmakustream</text></g><!--entity User--><g class="entity" data-qualified-name="User" data-source-line="5" id="ent0001"><ellipse cx="41" cy="239.6094" fill="#EAF3FA" rx="16" ry="16" style="stroke:#315A7D;stroke-width:0.5;"/><path d="M41,259.6094 C45,259.6094 48,259.6094 52,255.6094 C60,255.6094 68,263.6094 68,271.6094 L68,275.6094 C68,279.6094 64,283.6094 60,283.6094 L22,283.6094 C18,283.6094 14,279.6094 14,275.6094 L14,271.6094 C14,263.6094 22,255.6094 30,255.6094 C34,259.6094 37,259.6094 41,259.6094" fill="#EAF3FA" style="stroke:#315A7D;stroke-width:0.5;"/><text fill="#000000" font-family="sans-serif" font-size="14" lengthAdjust="spacing" textLength="70" x="6" y="298.6426">&#29992;&#25143;&#27983;&#35272;&#22120;</text></g><!--entity Anchor--><g class="entity" data-qualified-name="Anchor" data-source-line="6" id="ent0002"><ellipse cx="41" cy="353.6094" fill="#EAF3FA" rx="16" ry="16" style="stroke:#315A7D;stroke-width:0.5;"/><path d="M41,373.6094 C45,373.6094 48,373.6094 52,369.6094 C60,369.6094 68,377.6094 68,385.6094 L68,389.6094 C68,393.6094 64,397.6094 60,397.6094 L22,397.6094 C18,397.6094 14,393.6094 14,389.6094 L14,385.6094 C14,377.6094 22,369.6094 30,369.6094 C34,373.6094 37,373.6094 41,373.6094" fill="#EAF3FA" style="stroke:#315A7D;stroke-width:0.5;"/><text fill="#000000" font-family="sans-serif" font-size="14" lengthAdjust="spacing" textLength="70" x="6" y="412.6426">&#20027;&#25773;&#25512;&#27969;&#31471;</text></g><!--entity Internet--><g class="entity" data-qualified-name="Internet" data-source-line="7" id="ent0003"><path d="M146.9312,303.6434 C150.9846,295.8123 156.697,296.4958 161.6515,302.6981 C164.9474,294.2878 169.2105,292.2938 176.3749,298.9069 C182.4947,292.5122 188.257,294.8309 191.6151,302.0081 C198.4603,294.6443 203.6857,297.3648 207.5289,305.1597 C216.2106,305.3765 221.7301,312.2526 216.9419,320.653 C222.1085,330.4767 217.2638,335.4428 207.7448,337.0083 C203.7723,344.5639 195.6837,346.4323 191.2028,337.5189 C186.5226,344.9064 181.9854,345.4478 176.0428,338.8913 C171.2668,345.5155 165.8276,344.6452 161.3594,338.5364 C156.779,345.231 149.588,344.3979 146.2017,337.2307 C137.5596,332.2585 137.7843,326.1212 144.831,319.9076 C138.6969,314.9242 137.845,306.6614 146.9312,303.6434" fill="#F1F1F1" style="stroke:#181818;stroke-width:0.5;"/><text fill="#000000" font-family="sans-serif" font-size="14" lengthAdjust="spacing" textLength="47.4756" x="152" y="325.1426">Internet</text></g><!--link User to Internet--><g class="link" data-entity-1="ent0001" data-entity-2="ent0003" data-link-type="dependency" data-source-line="34" id="lnk21"><path d="M76.12,277.2894 C94.68,285.2694 113.0768,293.184 132.1668,301.394" fill="none" id="User-to-Internet" style="stroke:#315A7D;stroke-width:1.2;"/><polygon fill="#315A7D" points="136.76,303.3694,130.0725,296.1391,132.1668,301.394,126.9119,303.4882,136.76,303.3694" style="stroke:#315A7D;stroke-width:1.2;stroke-linejoin:miter;stroke-miterlimit:10;"/></g><!--link Anchor to Internet--><g class="link" data-entity-1="ent0002" data-entity-2="ent0003" data-link-type="dependency" data-source-line="35" id="lnk22"><path d="M76.12,361.9294 C94.68,353.9494 113.0768,346.0348 132.1668,337.8248" fill="none" id="Anchor-to-Internet" style="stroke:#315A7D;stroke-width:1.2;"/><polygon fill="#315A7D" points="136.76,335.8494,126.9119,335.7305,132.1668,337.8248,130.0725,343.0797,136.76,335.8494" style="stroke:#315A7D;stroke-width:1.2;stroke-linejoin:miter;stroke-miterlimit:10;"/></g><!--link Internet to Routes--><g class="link" data-entity-1="ent0003" data-entity-2="ent0006" data-link-type="dependency" data-source-line="36" id="lnk23"><path d="M214.06,319.6094 C237.79,319.6094 264.72,319.6094 295.7,319.6094" fill="none" id="Internet-to-Routes" style="stroke:#315A7D;stroke-width:1.2;"/><polygon fill="#315A7D" points="300.7,319.6094,291.7,315.6094,295.7,319.6094,291.7,323.6094,300.7,319.6094" style="stroke:#315A7D;stroke-width:1.2;stroke-linejoin:miter;stroke-miterlimit:10;"/></g><!--link Routes to Web--><g class="link" data-entity-1="ent0006" data-entity-2="ent0008" data-link-type="dependency" data-source-line="37" id="lnk24"><path d="M512.09,332.8494 C558.53,339.4294 613.72,348.2094 663,358.6094 C722.84,371.2394 785.7564,388.8676 830.3964,402.1076" fill="none" id="Routes-to-Web" style="stroke:#315A7D;stroke-width:1.2;"/><polygon fill="#315A7D" points="835.19,403.5294,827.6989,397.1353,830.3964,402.1076,825.4241,404.8051,835.19,403.5294" style="stroke:#315A7D;stroke-width:1.2;stroke-linejoin:miter;stroke-miterlimit:10;"/><text fill="#000000" font-family="sans-serif" font-size="14" lengthAdjust="spacing" textLength="3.8896" x="602" y="335.1426">/</text></g><!--link Routes to API--><g class="link" data-entity-1="ent0006" data-entity-2="ent0010" data-link-type="dependency" data-source-line="38" id="lnk25"><path d="M512.29,326.7594 C521.06,330.6494 529.17,335.8194 536,342.6094 C549.79,356.3094 531.2,370.9794 544,385.6094 C580.66,427.4894 612.3,401.6394 663,424.6094 C729.13,454.5694 796.3788,496.5223 839.7388,525.1823" fill="none" id="Routes-to-API" style="stroke:#315A7D;stroke-width:1.2;"/><polygon fill="#315A7D" points="843.91,527.9394,838.6075,519.6397,839.7388,525.1823,834.1963,526.3136,843.91,527.9394" style="stroke:#315A7D;stroke-width:1.2;stroke-linejoin:miter;stroke-miterlimit:10;"/><text fill="#000000" font-family="sans-serif" font-size="14" lengthAdjust="spacing" textLength="47.4619" x="580" y="382.1426">/api /ws</text></g><!--link Routes to Media--><g class="link" data-entity-1="ent0006" data-entity-2="ent0014" data-link-type="dependency" data-source-line="39" id="lnk26"><path d="M462.22,300.5694 C556.06,267.9094 741.5179,203.373 831.0679,172.203" fill="none" id="Routes-to-Media" style="stroke:#315A7D;stroke-width:1.2;"/><polygon fill="#315A7D" points="835.79,170.5594,825.9753,169.7402,831.0679,172.203,828.6051,177.2956,835.79,170.5594" style="stroke:#315A7D;stroke-width:1.2;stroke-linejoin:miter;stroke-miterlimit:10;"/><text fill="#000000" font-family="sans-serif" font-size="14" lengthAdjust="spacing" textLength="60.6758" x="573.5" y="229.1426">/live /rtmp</text></g><!--link API to DB--><g class="link" data-entity-1="ent0010" data-entity-2="ent0016" data-link-type="dependency" data-source-line="40" id="lnk27"><path d="M961,555.6094 C1056.09,555.6094 1213.67,555.6094 1300.78,555.6094" fill="none" id="API-to-DB" style="stroke:#315A7D;stroke-width:1.2;"/><polygon fill="#315A7D" points="1305.78,555.6094,1296.78,551.6094,1300.78,555.6094,1296.78,559.6094,1305.78,555.6094" style="stroke:#315A7D;stroke-width:1.2;stroke-linejoin:miter;stroke-miterlimit:10;"/></g><!--link Worker to DB--><g class="link" data-entity-1="ent0012" data-entity-2="ent0016" data-link-type="dependency" data-source-line="41" id="lnk28"><path d="M949.09,296.0594 C993.55,306.0194 1054.75,319.1194 1109,328.6094 C1124.91,331.3894 1169.33,327.4394 1181,338.6094 C1243.04,397.9694 1155.2,467.9794 1216,528.6094 C1239.18,551.7194 1270.0533,558.5589 1300.7933,559.6689" fill="none" id="Worker-to-DB" style="stroke:#315A7D;stroke-width:1.2;"/><polygon fill="#315A7D" points="1305.79,559.8494,1296.9402,555.5272,1300.7933,559.6689,1296.6515,563.522,1305.79,559.8494" style="stroke:#315A7D;stroke-width:1.2;stroke-linejoin:miter;stroke-miterlimit:10;"/></g><!--link API to PV--><g class="link" data-entity-1="ent0010" data-entity-2="ent0017" data-link-type="dependency" data-source-line="42" id="lnk29"><path d="M941.86,527.9594 C1040.14,478.8694 1238.1969,379.9435 1322.4469,337.8635" fill="none" id="API-to-PV" style="stroke:#315A7D;stroke-width:1.2;"/><polygon fill="#315A7D" points="1326.92,335.6294,1317.0811,336.0724,1322.4469,337.8635,1320.6558,343.2293,1326.92,335.6294" style="stroke:#315A7D;stroke-width:1.2;stroke-linejoin:miter;stroke-miterlimit:10;"/><text fill="#000000" font-family="sans-serif" font-size="14" lengthAdjust="spacing" textLength="70" x="1110" y="411.1426">&#35270;&#39057;&#12289;&#23553;&#38754;</text></g><!--link Media to PV--><g class="link" data-entity-1="ent0014" data-entity-2="ent0017" data-link-type="dependency" data-source-line="43" id="lnk30"><path d="M935.01,170.1394 C1024.35,200.5694 1209.6371,263.6871 1304.2771,295.9271" fill="none" id="Media-to-PV" style="stroke:#315A7D;stroke-width:1.2;"/><polygon fill="#315A7D" points="1309.01,297.5394,1301.7806,290.8509,1304.2771,295.9271,1299.2009,298.4235,1309.01,297.5394" style="stroke:#315A7D;stroke-width:1.2;stroke-linejoin:miter;stroke-miterlimit:10;"/><text fill="#000000" font-family="sans-serif" font-size="14" lengthAdjust="spacing" textLength="59.124" x="1115.5" y="227.1426">HLS &#20998;&#29255;</text></g><!--link Config to Web--><g class="link" data-entity-1="ent0018" data-entity-2="ent0008" data-link-type="dependency" data-source-line="44" id="lnk31"><path d="M450.67,425.8894 C539.42,424.3994 736.8607,421.0833 830.4207,419.5133" fill="none" id="Config-to-Web" style="stroke:#315A7D;stroke-width:1.2;"/><polygon fill="#315A7D" points="835.42,419.4294,826.3542,415.5809,830.4207,419.5133,826.4884,423.5798,835.42,419.4294" style="stroke:#315A7D;stroke-width:1.2;stroke-linejoin:miter;stroke-miterlimit:10;"/></g><!--link Config to API--><g class="link" data-entity-1="ent0018" data-entity-2="ent0010" data-link-type="dependency" data-source-line="45" id="lnk32"><path d="M450.61,433.3094 C477.88,439.4894 512.32,451.0994 536,472.6094 C542.18,478.2194 537.41,484.4794 544,489.6094 C564.76,505.7594 710.8959,529.8736 804.7059,544.0236" fill="none" id="Config-to-API" style="stroke:#315A7D;stroke-width:1.2;"/><polygon fill="#315A7D" points="809.65,544.7694,801.3473,539.4718,804.7059,544.0236,800.1541,547.3823,809.65,544.7694" style="stroke:#315A7D;stroke-width:1.2;stroke-linejoin:miter;stroke-miterlimit:10;"/></g><!--link Config to Media--><g class="link" data-entity-1="ent0018" data-entity-2="ent0014" data-link-type="dependency" data-source-line="46" id="lnk33"><path d="M441.4,407.5894 C468.33,393.4494 507.43,375.0294 544,365.6094 C569.7,358.9894 640.17,369.1494 663,355.6094 C717.07,323.5394 695.35,280.8394 741,237.6094 C770.24,209.9194 805.7209,189.6507 836.0609,174.9407" fill="none" id="Config-to-Media" style="stroke:#315A7D;stroke-width:1.2;"/><polygon fill="#315A7D" points="840.56,172.7594,830.7166,173.0865,836.0609,174.9407,834.2067,180.285,840.56,172.7594" style="stroke:#315A7D;stroke-width:1.2;stroke-linejoin:miter;stroke-miterlimit:10;"/></g><!--link Secret to API--><g class="link" data-entity-1="ent0019" data-entity-2="ent0010" data-link-type="dependency" data-source-line="47" id="lnk34"><path d="M436.7,599.7294 C484.23,599.6694 581.27,598.4794 663,590.6094 C712.22,585.8694 762.1851,578.0829 805.0151,570.5729" fill="none" id="Secret-to-API" style="stroke:#315A7D;stroke-width:1.2;"/><polygon fill="#315A7D" points="809.94,569.7094,800.3844,567.3239,805.0151,570.5729,801.7661,575.2037,809.94,569.7094" style="stroke:#315A7D;stroke-width:1.2;stroke-linejoin:miter;stroke-miterlimit:10;"/></g><!--link Secret to DB--><g class="link" data-entity-1="ent0019" data-entity-2="ent0016" data-link-type="dependency" data-source-line="48" id="lnk35"><path d="M436.51,601.2594 C464.14,602.7294 506.89,604.7894 544,605.6094 C596.88,606.7694 610.11,606.0394 663,605.6094 C826.13,604.2794 867.31,611.5794 1030,599.6094 C1127.11,592.4594 1234.2022,576.8655 1300.9722,566.2355" fill="none" id="Secret-to-DB" style="stroke:#315A7D;stroke-width:1.2;"/><polygon fill="#315A7D" points="1305.91,565.4494,1296.393,562.9141,1300.9722,566.2355,1297.6508,570.8146,1305.91,565.4494" style="stroke:#315A7D;stroke-width:1.2;stroke-linejoin:miter;stroke-miterlimit:10;"/></g><!--link HPA to Web--><g class="link" data-entity-1="ent0020" data-entity-2="ent0008" data-link-type="dependency" data-source-line="49" id="lnk36"><path d="M431.15,504.1494 C505.22,490.1694 728.8467,447.9763 830.2467,428.8463" fill="none" id="HPA-to-Web" style="stroke:#315A7D;stroke-width:1.2;stroke-dasharray:7,7;"/><polygon fill="#315A7D" points="835.16,427.9194,825.5745,425.6572,830.2467,428.8463,827.0576,433.5185,835.16,427.9194" style="stroke:#315A7D;stroke-width:1.2;stroke-linejoin:miter;stroke-miterlimit:10;"/><text fill="#000000" font-family="sans-serif" font-size="14" lengthAdjust="spacing" textLength="103.4482" x="552" y="457.1426">CPU/&#27969;&#37327;&#25193;&#32553;&#23481;</text></g><!--link HPA to API--><g class="link" data-entity-1="ent0020" data-entity-2="ent0010" data-link-type="dependency" data-source-line="50" id="lnk37"><path d="M431.23,517.6494 C458.12,527.3994 503.48,542.3694 544,548.6094 C634.73,562.5794 735.6432,562.3582 804.9532,559.8782" fill="none" id="HPA-to-API" style="stroke:#315A7D;stroke-width:1.2;stroke-dasharray:7,7;"/><polygon fill="#315A7D" points="809.95,559.6994,800.8127,556.0238,804.9532,559.8782,801.0988,564.0186,809.95,559.6994" style="stroke:#315A7D;stroke-width:1.2;stroke-linejoin:miter;stroke-miterlimit:10;"/><text fill="#000000" font-family="sans-serif" font-size="14" lengthAdjust="spacing" textLength="117.4482" x="545" y="545.1426">CPU/&#36830;&#25509;&#25968;&#25193;&#32553;&#23481;</text></g><?plantuml-src RLHRJzH057wVNp7kgu4cFXaJIRX48R2aKbXUICniExlRqCvifbEH61BG17PD12-OU8b6I0nB31TD22AeFqRQxZxv5poTRjVMzMdcdEyxvpjpvinSiPdf-1R5WuFQNLcZBXsi-ww3f2qTYiFjiyxgX-3fvk-BDvD-cGf69VLmvr4h-lubUFi3ERGYiUHOsDMQn9Ojg2bjpX0YfkG25wBjLjWu3K-ssdkDu7MhW8c7vpmgKlpowtdu_23SR8KdQz6d8uKFCxF61J8TxbkuCC6aabLGQY34EDHSoDGqwlWUW8esUTt03n362Mc2LGNrFApXAKwi4U8GPdQ9AHIJCJQvM-UCCeaBuxEpEWJCqxB1pKKgOJy-PU3swL6q_Lc5pd0VP25kfITK4HpgOnOUetM7BxkGIL5lfVu-cUcgpUxZgxZaqmKc8CesWJzq4rzJWI2V4oWJgAK__qZNtPV-jitmi3wHFSZ_P82IardYOf6AVrNcbNSwPlG96MQDMZuCJ49QO0ub5XLQSFOmEcXUdfy7ZtSoIN9gneoHaO9Q3KaahVYEqRtqcD2dE3DRr9DBKPmYjMoIIrjSDkvCPNC1Eso-YWvtmfV7uPF3uDkB95BnalmMaQHCF8Ys27F98aoKeCHLlB6HRdeF1fTKWQDJuTamSqoMkEExLD7q4ihLESfPnQuMILsXYPLd6DGKwKdLDW-FwyCAWnMj81G_7ZmmCFJtAIJF9UzBDyhRdTHaKHwO1dm3QrbNF2RW8dKRQqivicfjZ3dsFOer8TqwYjan1ar9RZIrKa0lGKHxRxsp--pNwbfmlDPvjukIJ3quVb11OprgRg2aBsbjMJEUpOoPt7FIfnwUCQ44Q1HyPkaXH_Kv3VwMpiPMsDoFBlQ3mxCU8pbpp6Z_V1zkVem7eqVw0m00?></g></svg>