<svg xmlns="http://www.w3.org/2000/svg" xmlns:xlink="http://www.w3.org/1999/xlink" version="1.1" data-diagram-type="SEQUENCE" style="width:479px;height:694px;background:#FFFFFF;" width="479px" height="694px" viewBox="0 0 479 694" zoomAndPan="magnify" preserveAspectRatio="none" contentStyleType="text/css"><?plantuml 1.2026.7?><defs/><g font-family="sans-serif" lengthAdjust="spacing"><g class="title" data-source-line="2"><text x="76.87" y="31.044" fill="#000" font-size="14" textLength="323.511" font-weight="700">SYS-SEQ09 UC09 直播预约与用户预约（系统级）</text></g><rect x="21.5" y="175.36" width="307.286" height="159.721" fill="none" style="stroke:#7C93A8;stroke-width:1.5;" rx="5" ry="5"/><rect x="90" y="386.201" width="238.786" height="126.601" fill="none" style="stroke:#7C93A8;stroke-width:1.5;" rx="5" ry="5"/><g><title>..</title><rect x="34" y="130.24" width="8" height="472.802" fill="#000" fill-opacity="0"/><line x1="37.5" y1="130.24" x2="37.5" y2="603.042" style="stroke:#7C93A8;stroke-width:0.5;stroke-dasharray:5,5;"/></g><g><title>....</title><rect x="102.5" y="130.24" width="8" height="472.802" fill="#000" fill-opacity="0"/><line x1="106" y1="130.24" x2="106" y2="603.042" style="stroke:#7C93A8;stroke-width:0.5;stroke-dasharray:5,5;"/></g><g><title>DanmakuStream ..</title><rect x="309.286" y="130.24" width="8" height="472.802" fill="#000" fill-opacity="0"/><line x1="312.786" y1="130.24" x2="312.786" y2="603.042" style="stroke:#7C93A8;stroke-width:0.5;stroke-dasharray:5,5;"/></g><g><title>....</title><rect x="429.751" y="130.24" width="8" height="472.802" fill="#000" fill-opacity="0"/><line x1="433.251" y1="130.24" x2="433.251" y2="603.042" style="stroke:#7C93A8;stroke-width:0.5;stroke-dasharray:5,5;"/></g><text x="20.5" y="127.164" fill="#000" font-size="14" textLength="28">主播</text><ellipse cx="37.5" cy="66.62" rx="16" ry="16" fill="#EAF3FA" style="stroke:#315A7D;stroke-width:0.5;"/><path d="M37.5,86.62 C41.5,86.62 44.5,86.62 48.5,82.62 C56.5,82.62 64.5,90.62 64.5,98.62 L64.5,102.62 C64.5,106.62 60.5,110.62 56.5,110.62 L18.5,110.62 C14.5,110.62 10.5,106.62 10.5,102.62 L10.5,98.62 C10.5,90.62 18.5,82.62 26.5,82.62 C30.5,86.62 33.5,86.62 37.5,86.62" style="stroke:#315A7D;stroke-width:0.5;" fill="#EAF3FA"/><text x="75" y="127.164" fill="#000" font-size="14" textLength="56">普通用户</text><ellipse cx="106" cy="66.62" rx="16" ry="16" fill="#EAF3FA" style="stroke:#315A7D;stroke-width:0.5;"/><path d="M106,86.62 C110,86.62 113,86.62 117,82.62 C125,82.62 133,90.62 133,98.62 L133,102.62 C133,106.62 129,110.62 125,110.62 L87,110.62 C83,110.62 79,106.62 79,102.62 L79,98.62 C79,90.62 87,82.62 95,82.62 C99,86.62 102,86.62 106,86.62" style="stroke:#315A7D;stroke-width:0.5;" fill="#EAF3FA"/><rect x="237.321" y="96.12" width="150.931" height="33.12" fill="#F7FAFC" style="stroke:#315A7D;stroke-width:0.5;" rx="5" ry="5"/><text x="244.321" y="119.164" fill="#000" font-size="14" textLength="136.931">DanmakuStream 系统</text><rect x="398.251" y="96.12" width="70" height="33.12" fill="#F7FAFC" style="stroke:#315A7D;stroke-width:0.5;" rx="5" ry="5"/><text x="405.251" y="119.164" fill="#000" font-size="14" textLength="56">计划任务</text><text x="20.5" y="619.086" fill="#000" font-size="14" textLength="28">主播</text><ellipse cx="37.5" cy="638.662" rx="16" ry="16" fill="#EAF3FA" style="stroke:#315A7D;stroke-width:0.5;"/><path d="M37.5,658.662 C41.5,658.662 44.5,658.662 48.5,654.662 C56.5,654.662 64.5,662.662 64.5,670.662 L64.5,674.662 C64.5,678.662 60.5,682.662 56.5,682.662 L18.5,682.662 C14.5,682.662 10.5,678.662 10.5,674.662 L10.5,670.662 C10.5,662.662 18.5,654.662 26.5,654.662 C30.5,658.662 33.5,658.662 37.5,658.662" style="stroke:#315A7D;stroke-width:0.5;" fill="#EAF3FA"/><text x="75" y="619.086" fill="#000" font-size="14" textLength="56">普通用户</text><ellipse cx="106" cy="638.662" rx="16" ry="16" fill="#EAF3FA" style="stroke:#315A7D;stroke-width:0.5;"/><path d="M106,658.662 C110,658.662 113,658.662 117,654.662 C125,654.662 133,662.662 133,670.662 L133,674.662 C133,678.662 129,682.662 125,682.662 L87,682.662 C83,682.662 79,678.662 79,674.662 L79,670.662 C79,662.662 87,654.662 95,654.662 C99,658.662 102,658.662 106,658.662" style="stroke:#315A7D;stroke-width:0.5;" fill="#EAF3FA"/><rect x="237.321" y="603.042" width="150.931" height="33.12" fill="#F7FAFC" style="stroke:#315A7D;stroke-width:0.5;" rx="5" ry="5"/><text x="244.321" y="626.086" fill="#000" font-size="14" textLength="136.931">DanmakuStream 系统</text><rect x="398.251" y="603.042" width="70" height="33.12" fill="#F7FAFC" style="stroke:#315A7D;stroke-width:0.5;" rx="5" ry="5"/><text x="405.251" y="626.086" fill="#000" font-size="14" textLength="56">计划任务</text><polygon points="300.786,159.36,310.786,163.36,300.786,167.36,304.786,163.36" fill="#315A7D" style="stroke:#315A7D;stroke-width:1;stroke-linejoin:miter;stroke-miterlimit:10;"/><line x1="37.5" y1="163.36" x2="306.786" y2="163.36" style="stroke:#315A7D;stroke-width:1.2;"/><text x="44.5" y="158.284" fill="#000" font-size="14" textLength="84">发布直播计划</text><path d="M26.5,175.36 L82.838,175.36 L82.838,186.48 L72.838,196.48 L21.5,196.48 L21.5,180.36 A5,5 0 0 1 26.5,175.36" style="stroke:#7C93A8;stroke-width:1.5;" fill="#F3F7FA"/><rect x="21.5" y="175.36" width="307.286" height="159.721" fill="none" style="stroke:#7C93A8;stroke-width:1.5;" rx="5" ry="5"/><text x="36.5" y="192.404" fill="#000" font-size="14" textLength="16.338" font-weight="700">alt</text><text x="97.838" y="193.404" fill="#000" font-size="14" textLength="110.387" font-weight="700">[标题和时间合法]</text><polygon points="48.5,231.721,38.5,235.721,48.5,239.721,44.5,235.721" fill="#315A7D" style="stroke:#315A7D;stroke-width:1;stroke-linejoin:miter;stroke-miterlimit:10;"/><line x1="42.5" y1="235.721" x2="311.786" y2="235.721" style="stroke:#315A7D;stroke-width:1.2;stroke-dasharray:2,2;"/><text x="54.5" y="230.645" fill="#000" font-size="14" textLength="113.606">返回 pending 计划</text><polygon points="117,264.841,107,268.841,117,272.841,113,268.841" fill="#315A7D" style="stroke:#315A7D;stroke-width:1;stroke-linejoin:miter;stroke-miterlimit:10;"/><line x1="111" y1="268.841" x2="311.786" y2="268.841" style="stroke:#315A7D;stroke-width:1.2;stroke-dasharray:2,2;"/><text x="123" y="263.765" fill="#000" font-size="14" textLength="143.89">展示计划/产生关注通知</text><line x1="21.5" y1="277.841" x2="328.786" y2="277.841" style="stroke:#7C93A8;stroke-width:1;stroke-dasharray:2,2;"/><text x="26.5" y="295.885" fill="#000" font-size="14" textLength="139.262" font-weight="700">[参数非法或时间冲突]</text><polygon points="48.5,323.081,38.5,327.081,48.5,331.081,44.5,327.081" fill="#315A7D" style="stroke:#315A7D;stroke-width:1;stroke-linejoin:miter;stroke-miterlimit:10;"/><line x1="42.5" y1="327.081" x2="311.786" y2="327.081" style="stroke:#315A7D;stroke-width:1.2;stroke-dasharray:2,2;"/><text x="54.5" y="322.005" fill="#000" font-size="14" textLength="126">拒绝创建并说明原因</text><polygon points="300.786,370.201,310.786,374.201,300.786,378.201,304.786,374.201" fill="#315A7D" style="stroke:#315A7D;stroke-width:1;stroke-linejoin:miter;stroke-miterlimit:10;"/><line x1="106" y1="374.201" x2="306.786" y2="374.201" style="stroke:#315A7D;stroke-width:1.2;"/><text x="113" y="369.125" fill="#000" font-size="14" textLength="56">预约计划</text><path d="M95,386.201 L151.338,386.201 L151.338,397.321 L141.338,407.321 L90,407.321 L90,391.201 A5,5 0 0 1 95,386.201" style="stroke:#7C93A8;stroke-width:1.5;" fill="#F3F7FA"/><rect x="90" y="386.201" width="238.786" height="126.601" fill="none" style="stroke:#7C93A8;stroke-width:1.5;" rx="5" ry="5"/><text x="105" y="403.245" fill="#000" font-size="14" textLength="16.338" font-weight="700">alt</text><text x="166.338" y="404.245" fill="#000" font-size="14" textLength="139.262" font-weight="700">[计划可预约且非本人]</text><polygon points="117,442.562,107,446.562,117,450.562,113,446.562" fill="#315A7D" style="stroke:#315A7D;stroke-width:1;stroke-linejoin:miter;stroke-miterlimit:10;"/><line x1="111" y1="446.562" x2="311.786" y2="446.562" style="stroke:#315A7D;stroke-width:1.2;stroke-dasharray:2,2;"/><text x="123" y="441.485" fill="#000" font-size="14" textLength="107.741">已预约、人数 + 1</text><line x1="90" y1="455.562" x2="328.786" y2="455.562" style="stroke:#7C93A8;stroke-width:1;stroke-dasharray:2,2;"/><text x="95" y="473.605" fill="#000" font-size="14" textLength="67.074" font-weight="700">[不可预约]</text><polygon points="117,500.802,107,504.802,117,508.802,113,504.802" fill="#315A7D" style="stroke:#315A7D;stroke-width:1;stroke-linejoin:miter;stroke-miterlimit:10;"/><line x1="111" y1="504.802" x2="311.786" y2="504.802" style="stroke:#315A7D;stroke-width:1.2;stroke-dasharray:2,2;"/><text x="123" y="499.726" fill="#000" font-size="14" textLength="84">返回失败原因</text><polygon points="323.786,547.922,313.786,551.922,323.786,555.922,319.786,551.922" fill="#315A7D" style="stroke:#315A7D;stroke-width:1;stroke-linejoin:miter;stroke-miterlimit:10;"/><line x1="317.786" y1="551.922" x2="432.251" y2="551.922" style="stroke:#315A7D;stroke-width:1.2;"/><text x="329.786" y="546.846" fill="#000" font-size="14" textLength="84">扫描到期计划</text><polygon points="117,581.042,107,585.042,117,589.042,113,585.042" fill="#315A7D" style="stroke:#315A7D;stroke-width:1;stroke-linejoin:miter;stroke-miterlimit:10;"/><line x1="111" y1="585.042" x2="311.786" y2="585.042" style="stroke:#315A7D;stroke-width:1.2;stroke-dasharray:2,2;"/><text x="123" y="579.966" fill="#000" font-size="14" textLength="182.786">计划转为 live 并产生开播通知</text><?plantuml-src LLBBJi905DtFLrpP6a2NkZ0XwWUOAeahqs2ZZQKIBAxnNL-W17o1Lesl-5O8b1RZnzYPQLV-WaEdA6ucS-yzvzvppqoFh2QKpBG4aKXqIfkLab8abKagI9CrHG9XKWWBesDz0p0np0vQhf72atUvIgqRnypHuXtH6ppyRkcqQbFReDRjTsiJYGbjFWqXnxGP8mJY0iGwENByx6LFEDcln55AJ6joGaw9gWQX4L5DYdCPGKjBOX9uLnyd_CUvpnTOBpYsZRSk_FeuGZ483u4m23Y_ZyqLhfVZaAXeGCutlCiZNDWXXtNli8RtT58j8G01memN6mJtiuZBPv2Ir6bPdO60sW74MUEt4hsoU3xgMBUqQE2rAgdUjLSohf6aB4Xi-Z8flNgdPwmxqG-2OUllz7wfUnZPBb3x5EjbR5kuMNTVQkGeXtC6BfyZ9W35WsMumrrhy2lEltIUejYULNbqBEkVriOx1tnbbrY9IO9UwESI7NFtbz_DuGRWgpUtTjqbPJoGGZOVI3wFzLTICG91VrG_TZyU7TC2HLvaFZJhWKMjRFlZ-1Rz0000?></g></svg>