<svg xmlns="http://www.w3.org/2000/svg" xmlns:xlink="http://www.w3.org/1999/xlink" contentStyleType="text/css" data-diagram-type="SEQUENCE" height="699px" preserveAspectRatio="none" style="width:538px;height:699px;background:#FFFFFF;" version="1.1" viewBox="0 0 538 699" width="538px" zoomAndPan="magnify"><?plantuml 1.2026.6?><defs/><g><g class="title" data-source-line="34"><text fill="#000000" font-family="sans-serif" font-size="14" font-weight="700" lengthAdjust="spacing" textLength="348.0167" x="91.6057" y="27.9951">SYS-SEQ02 UC02 &#35270;&#39057;&#21457;&#29616;&#12289;&#25628;&#32034;&#19982;&#25773;&#25918;&#65288;&#31995;&#32479;&#32423;&#65289;</text></g><rect fill="none" height="432.6406" rx="5" ry="5" style="stroke:#7C93A8;stroke-width:1.5;" width="512.228" x="10" y="166.8906"/><rect fill="none" height="241.2656" rx="5" ry="5" style="stroke:#7C93A8;stroke-width:1.5;" width="492.228" x="20" y="254.0781"/><rect fill="none" height="98.4844" rx="5" ry="5" style="stroke:#7C93A8;stroke-width:1.5;" width="472.228" x="30" y="341.2656"/><g class="participant-lifeline" data-entity-uid="part1" data-qualified-name="User" data-source-line="36" id="part1-lifeline"><g><title>.. . ....</title><rect fill="#000000" fill-opacity="0.00000" height="496.9375" width="8" x="87.8084" y="119.5938"/><line style="stroke:#7C93A8;stroke-width:0.5;stroke-dasharray:5,5;" x1="91" x2="91" y1="119.5938" y2="616.5313"/></g></g><g class="participant-lifeline" data-entity-uid="part2" data-qualified-name="System" data-source-line="37" id="part2-lifeline"><g><title>DanmakuStream ..</title><rect fill="#000000" fill-opacity="0.00000" height="496.9375" width="8" x="405.8071" y="119.5938"/><line style="stroke:#7C93A8;stroke-width:0.5;stroke-dasharray:5,5;" x1="409.3863" x2="409.3863" y1="119.5938" y2="616.5313"/></g></g><g class="participant participant-head" data-entity-uid="part1" data-qualified-name="User" data-source-line="36" id="part1-head"><text fill="#000000" font-family="sans-serif" font-size="14" lengthAdjust="spacing" textLength="97.6168" x="40" y="116.292">&#28216;&#23458; / &#26222;&#36890;&#29992;&#25143;</text><ellipse cx="91.8084" cy="58.7969" fill="#EAF3FA" rx="16" ry="16" style="stroke:#315A7D;stroke-width:0.5;"/><path d="M91.8084,78.7969 C95.8084,78.7969 98.8084,78.7969 102.8084,74.7969 C110.8084,74.7969 118.8084,82.7969 118.8084,90.7969 L118.8084,94.7969 C118.8084,98.7969 114.8084,102.7969 110.8084,102.7969 L72.8084,102.7969 C68.8084,102.7969 64.8084,98.7969 64.8084,94.7969 L64.8084,90.7969 C64.8084,82.7969 72.8084,74.7969 80.8084,74.7969 C84.8084,78.7969 87.8084,78.7969 91.8084,78.7969" fill="#EAF3FA" style="stroke:#315A7D;stroke-width:0.5;"/></g><g class="participant participant-tail" data-entity-uid="part1" data-qualified-name="User" data-source-line="36" id="part1-tail"><text fill="#000000" font-family="sans-serif" font-size="14" lengthAdjust="spacing" textLength="97.6168" x="40" y="628.5264">&#28216;&#23458; / &#26222;&#36890;&#29992;&#25143;</text><ellipse cx="91.8084" cy="648.3281" fill="#EAF3FA" rx="16" ry="16" style="stroke:#315A7D;stroke-width:0.5;"/><path d="M91.8084,668.3281 C95.8084,668.3281 98.8084,668.3281 102.8084,664.3281 C110.8084,664.3281 118.8084,672.3281 118.8084,680.3281 L118.8084,684.3281 C118.8084,688.3281 114.8084,692.3281 110.8084,692.3281 L72.8084,692.3281 C68.8084,692.3281 64.8084,688.3281 64.8084,684.3281 L64.8084,680.3281 C64.8084,672.3281 72.8084,664.3281 80.8084,664.3281 C84.8084,668.3281 87.8084,668.3281 91.8084,668.3281" fill="#EAF3FA" style="stroke:#315A7D;stroke-width:0.5;"/></g><g class="participant participant-head" data-entity-uid="part2" data-qualified-name="System" data-source-line="37" id="part2-head"><rect fill="#F7FAFC" height="30.2969" rx="5" ry="5" style="stroke:#315A7D;stroke-width:0.5;" width="164.8417" x="327.3863" y="88.2969"/><text fill="#000000" font-family="sans-serif" font-size="14" lengthAdjust="spacing" textLength="150.8417" x="334.3863" y="108.292">DanmakuStream &#31995;&#32479;</text></g><g class="participant participant-tail" data-entity-uid="part2" data-qualified-name="System" data-source-line="37" id="part2-tail"><rect fill="#F7FAFC" height="30.2969" rx="5" ry="5" style="stroke:#315A7D;stroke-width:0.5;" width="164.8417" x="327.3863" y="615.5313"/><text fill="#000000" font-family="sans-serif" font-size="14" lengthAdjust="spacing" textLength="150.8417" x="334.3863" y="635.5264">DanmakuStream &#31995;&#32479;</text></g><g class="message" data-entity-1="part1" data-entity-2="part2" data-source-line="39" id="msg1"><polygon fill="#315A7D" points="397.8071,147.8906,407.8071,151.8906,397.8071,155.8906,401.8071,151.8906" style="stroke:#315A7D;stroke-width:1;stroke-linejoin:miter;stroke-miterlimit:10;"/><line style="stroke:#315A7D;stroke-width:1.2;" x1="91.8084" x2="403.8071" y1="151.8906" y2="151.8906"/><text fill="#000000" font-family="sans-serif" font-size="14" lengthAdjust="spacing" textLength="293.9987" x="98.8084" y="146.5889">&#27983;&#35272;&#39318;&#39029;&#25110;&#25552;&#20132;&#20851;&#38190;&#35789;&#12289;&#20998;&#31867;&#12289;&#26631;&#31614;&#19982;&#25490;&#24207;&#26465;&#20214;</text></g><path d="M15,166.8906 L75.9385,166.8906 L75.9385,175.1875 L65.9385,185.1875 L10,185.1875 L10,171.8906 A5,5 0 0 1 15,166.8906" fill="#F3F7FA" style="stroke:#7C93A8;stroke-width:1.5;"/><rect fill="none" height="432.6406" rx="5" ry="5" style="stroke:#7C93A8;stroke-width:1.5;" width="512.228" x="10" y="166.8906"/><text fill="#000000" font-family="sans-serif" font-size="14" font-weight="700" lengthAdjust="spacing" textLength="20.9385" x="25" y="180.8857">alt</text><text fill="#000000" font-family="sans-serif" font-size="14" font-weight="700" lengthAdjust="spacing" textLength="166.7962" x="90.9385" y="181.8857">[&#26597;&#35810;&#25104;&#21151;&#19988;&#23384;&#22312;&#21305;&#37197;&#35270;&#39057;]</text><g class="message" data-entity-1="part2" data-entity-2="part1" data-source-line="41" id="msg2"><polygon fill="#315A7D" points="102.8084,204.7813,92.8084,208.7813,102.8084,212.7813,98.8084,208.7813" style="stroke:#315A7D;stroke-width:1;stroke-linejoin:miter;stroke-miterlimit:10;"/><line style="stroke:#315A7D;stroke-width:1.2;stroke-dasharray:2,2;" x1="96.8084" x2="408.8071" y1="208.7813" y2="208.7813"/><text fill="#000000" font-family="sans-serif" font-size="14" lengthAdjust="spacing" textLength="181.9992" x="108.8084" y="203.4795">&#36820;&#22238;&#23457;&#26680;&#36890;&#36807;&#30340;&#35270;&#39057;&#20998;&#39029;&#21015;&#34920;</text></g><g class="message" data-entity-1="part1" data-entity-2="part2" data-source-line="42" id="msg3"><polygon fill="#315A7D" points="397.8071,235.0781,407.8071,239.0781,397.8071,243.0781,401.8071,239.0781" style="stroke:#315A7D;stroke-width:1;stroke-linejoin:miter;stroke-miterlimit:10;"/><line style="stroke:#315A7D;stroke-width:1.2;" x1="91.8084" x2="403.8071" y1="239.0781" y2="239.0781"/><text fill="#000000" font-family="sans-serif" font-size="14" lengthAdjust="spacing" textLength="125.9995" x="98.8084" y="233.7764">&#36873;&#25321;&#35270;&#39057;&#24182;&#25171;&#24320;&#35814;&#24773;</text></g><path d="M25,254.0781 L85.9385,254.0781 L85.9385,262.375 L75.9385,272.375 L20,272.375 L20,259.0781 A5,5 0 0 1 25,254.0781" fill="#F3F7FA" style="stroke:#7C93A8;stroke-width:1.5;"/><rect fill="none" height="241.2656" rx="5" ry="5" style="stroke:#7C93A8;stroke-width:1.5;" width="492.228" x="20" y="254.0781"/><text fill="#000000" font-family="sans-serif" font-size="14" font-weight="700" lengthAdjust="spacing" textLength="20.9385" x="35" y="268.0732">alt</text><text fill="#000000" font-family="sans-serif" font-size="14" font-weight="700" lengthAdjust="spacing" textLength="152.7963" x="100.9385" y="269.0732">[&#35270;&#39057;&#23384;&#22312;&#19988;&#24050;&#23457;&#26680;&#36890;&#36807;]</text><g class="message" data-entity-1="part2" data-entity-2="part1" data-source-line="44" id="msg4"><polygon fill="#315A7D" points="102.8084,291.9688,92.8084,295.9688,102.8084,299.9688,98.8084,295.9688" style="stroke:#315A7D;stroke-width:1;stroke-linejoin:miter;stroke-miterlimit:10;"/><line style="stroke:#315A7D;stroke-width:1.2;stroke-dasharray:2,2;" x1="96.8084" x2="408.8071" y1="295.9688" y2="295.9688"/><text fill="#000000" font-family="sans-serif" font-size="14" lengthAdjust="spacing" textLength="237.999" x="108.8084" y="290.667">&#36820;&#22238;&#35814;&#24773;&#12289;&#20316;&#32773;&#12289;&#20114;&#21160;&#35745;&#25968;&#21644;&#25773;&#25918;&#22320;&#22336;</text></g><g class="message" data-entity-1="part1" data-entity-2="part2" data-source-line="45" id="msg5"><polygon fill="#315A7D" points="397.8071,322.2656,407.8071,326.2656,397.8071,330.2656,401.8071,326.2656" style="stroke:#315A7D;stroke-width:1;stroke-linejoin:miter;stroke-miterlimit:10;"/><line style="stroke:#315A7D;stroke-width:1.2;" x1="91.8084" x2="403.8071" y1="326.2656" y2="326.2656"/><text fill="#000000" font-family="sans-serif" font-size="14" lengthAdjust="spacing" textLength="125.9995" x="98.8084" y="320.9639">&#35831;&#27714;&#24182;&#25773;&#25918;&#23186;&#20307;&#36164;&#28304;</text></g><path d="M35,341.2656 L95.9385,341.2656 L95.9385,349.5625 L85.9385,359.5625 L30,359.5625 L30,346.2656 A5,5 0 0 1 35,341.2656" fill="#F3F7FA" style="stroke:#7C93A8;stroke-width:1.5;"/><rect fill="none" height="98.4844" rx="5" ry="5" style="stroke:#7C93A8;stroke-width:1.5;" width="472.228" x="30" y="341.2656"/><text fill="#000000" font-family="sans-serif" font-size="14" font-weight="700" lengthAdjust="spacing" textLength="20.9385" x="45" y="355.2607">alt</text><text fill="#000000" font-family="sans-serif" font-size="14" font-weight="700" lengthAdjust="spacing" textLength="96.7965" x="110.9385" y="356.2607">[&#23186;&#20307;&#36164;&#28304;&#21487;&#29992;]</text><g class="message" data-entity-1="part2" data-entity-2="part1" data-source-line="47" id="msg6"><polygon fill="#315A7D" points="102.8084,379.1563,92.8084,383.1563,102.8084,387.1563,98.8084,383.1563" style="stroke:#315A7D;stroke-width:1;stroke-linejoin:miter;stroke-miterlimit:10;"/><line style="stroke:#315A7D;stroke-width:1.2;stroke-dasharray:2,2;" x1="96.8084" x2="408.8071" y1="383.1563" y2="383.1563"/><text fill="#000000" font-family="sans-serif" font-size="14" lengthAdjust="spacing" textLength="195.9991" x="108.8084" y="377.8545">&#36820;&#22238;&#23186;&#20307;&#28165;&#21333;&#19982;&#20998;&#29255;&#65292;&#24320;&#22987;&#25773;&#25918;</text></g><line style="stroke:#7C93A8;stroke-width:1;stroke-dasharray:2,2;" x1="30" x2="502.228" y1="392.1563" y2="392.1563"/><text fill="#000000" font-family="sans-serif" font-size="14" font-weight="700" lengthAdjust="spacing" textLength="110.7964" x="35" y="405.1514">[&#23186;&#20307;&#36164;&#28304;&#19981;&#21487;&#29992;]</text><g class="message" data-entity-1="part2" data-entity-2="part1" data-source-line="49" id="msg7"><polygon fill="#315A7D" points="102.8084,427.75,92.8084,431.75,102.8084,435.75,98.8084,431.75" style="stroke:#315A7D;stroke-width:1;stroke-linejoin:miter;stroke-miterlimit:10;"/><line style="stroke:#315A7D;stroke-width:1.2;stroke-dasharray:2,2;" x1="96.8084" x2="408.8071" y1="431.75" y2="431.75"/><text fill="#000000" font-family="sans-serif" font-size="14" lengthAdjust="spacing" textLength="111.9995" x="108.8084" y="426.4482">&#36820;&#22238;&#25773;&#25918;&#22833;&#36133;&#29366;&#24577;</text></g><line style="stroke:#7C93A8;stroke-width:1;stroke-dasharray:2,2;" x1="20" x2="512.228" y1="447.75" y2="447.75"/><text fill="#000000" font-family="sans-serif" font-size="14" font-weight="700" lengthAdjust="spacing" textLength="152.7963" x="25" y="460.7451">[&#35270;&#39057;&#19981;&#23384;&#22312;&#25110;&#19981;&#21487;&#20844;&#24320;]</text><g class="message" data-entity-1="part2" data-entity-2="part1" data-source-line="52" id="msg8"><polygon fill="#315A7D" points="102.8084,483.3438,92.8084,487.3438,102.8084,491.3438,98.8084,487.3438" style="stroke:#315A7D;stroke-width:1;stroke-linejoin:miter;stroke-miterlimit:10;"/><line style="stroke:#315A7D;stroke-width:1.2;stroke-dasharray:2,2;" x1="96.8084" x2="408.8071" y1="487.3438" y2="487.3438"/><text fill="#000000" font-family="sans-serif" font-size="14" lengthAdjust="spacing" textLength="97.9996" x="108.8084" y="482.042">&#36820;&#22238;&#35270;&#39057;&#19981;&#23384;&#22312;</text></g><line style="stroke:#7C93A8;stroke-width:1;stroke-dasharray:2,2;" x1="10" x2="522.228" y1="503.3438" y2="503.3438"/><text fill="#000000" font-family="sans-serif" font-size="14" font-weight="700" lengthAdjust="spacing" textLength="166.7962" x="15" y="516.3389">[&#26597;&#35810;&#25104;&#21151;&#20294;&#27809;&#26377;&#21305;&#37197;&#32467;&#26524;]</text><g class="message" data-entity-1="part2" data-entity-2="part1" data-source-line="55" id="msg9"><polygon fill="#315A7D" points="102.8084,538.9375,92.8084,542.9375,102.8084,546.9375,98.8084,542.9375" style="stroke:#315A7D;stroke-width:1;stroke-linejoin:miter;stroke-miterlimit:10;"/><line style="stroke:#315A7D;stroke-width:1.2;stroke-dasharray:2,2;" x1="96.8084" x2="408.8071" y1="542.9375" y2="542.9375"/><text fill="#000000" font-family="sans-serif" font-size="14" lengthAdjust="spacing" textLength="69.9997" x="108.8084" y="537.6357">&#36820;&#22238;&#31354;&#21015;&#34920;</text></g><line style="stroke:#7C93A8;stroke-width:1;stroke-dasharray:2,2;" x1="10" x2="522.228" y1="551.9375" y2="551.9375"/><text fill="#000000" font-family="sans-serif" font-size="14" font-weight="700" lengthAdjust="spacing" textLength="138.7963" x="15" y="564.9326">[&#26597;&#35810;&#21442;&#25968;&#25110;&#26381;&#21153;&#24322;&#24120;]</text><g class="message" data-entity-1="part2" data-entity-2="part1" data-source-line="57" id="msg10"><polygon fill="#315A7D" points="102.8084,587.5313,92.8084,591.5313,102.8084,595.5313,98.8084,591.5313" style="stroke:#315A7D;stroke-width:1;stroke-linejoin:miter;stroke-miterlimit:10;"/><line style="stroke:#315A7D;stroke-width:1.2;stroke-dasharray:2,2;" x1="96.8084" x2="408.8071" y1="591.5313" y2="591.5313"/><text fill="#000000" font-family="sans-serif" font-size="14" lengthAdjust="spacing" textLength="153.9993" x="108.8084" y="586.2295">&#36820;&#22238;&#21442;&#25968;&#38169;&#35823;&#25110;&#26381;&#21153;&#22833;&#36133;</text></g><?plantuml-src bLNVJzDG67tlNt63poXZAiY3IGLcJ8pHL1zyl7GNQDZQsNOX-ZJHmGQCmHWeECKHvOSH1YfGjw5_ZBkttHF_WhUt1RlH3LooPTjtldFETxvlcJOcoJ6emYWOWkBOYAh4vN2_4b5KS2N47fnsXWYZOHYFw255rX_0A082b3K1gTAmFqQGNY0GkEufQgCmh8nByWWOXX4DUIfCLrHK6QaWqEKfyAggZBk6We4RVCz0S_7ng2IEoKZJGE1gjwSOe_F04IJepoC8g4ZKeJmIyMgAIZIco8WQRGc1egweJXcE8qs9DlH7eARnkgvAGt4TtHCLcKtSrGovSoxOdX0VwZy7KzGmKbkDoY1sgYuWq1FilZxWDyqbvCwWxILFOUraPIMCBbPagBPYOQZ38QZvS8L2lOEzVaWl7t_ZvfqkR_8QUXP7ieXuUuFjfHkXpVg3V2WOudtW3w6gIw8KWnVbwDTmOMAdJVUbOVgK6wVjwRyLv7jzq7SfP-n_eETy16qd7dXSGwBlMfeDdmBRHY4h-YKsp50-s-LqIQU_HE6fq2aCFkhg1a_wwOkrELbVNy3P1NDkxq_Y9Palc3_MQyOSoUsG_A-JQihyNZ4hQsPvywIQvZZsamOTn33mxZgu1iZARZsnQkQtIEge0q0DFD6GoiN-xGfq340v2iVYWguYwiwXOr3XkQQZACVPBQ3pjlkv3v23hBMPgcyirui79BLCilEryYUS_5xFxrgb33M9KvFcViLs-t7AtFbbkvtBuNAMl2_MAeSSZEY0h7ssIkiaDO-drsf67k-ynOKjFFkpdimu4tF0rGETLDgsq0UittdyxWFUBPAF1ftA-Zrbhhvs0qfDKZSuzSOgRj7MPilrH9hCRBlGduSalOYh2QkqGLubATesvDQO3zlGqJUl3WMrzEFGq6bhnmKhmTwKStXwowBzItiuD-ki2XVsyFi48sfsPvMEoFw4xSj1VidLZXUjWzUaFC_mjZ_lbpXReXjbfTOfCJmnaZYpH1TWhoGzTLATfNFZpHb7Y34W-bVLm5upCfSHSBr-shT-V3Qd3qdYfKCdXpcNr8dKfcEfqbDng77oAtNHDjB6JiwXPQGDXtCyIRuLII7j78vPMIGV2gqFnzmkkmVYOSBP2Reb-umB6JnTnDK9R1XjZe_1w_aLgrJwryH2uAZ7lm00?></g></svg>