<svg xmlns="http://www.w3.org/2000/svg" xmlns:xlink="http://www.w3.org/1999/xlink" contentStyleType="text/css" data-diagram-type="SEQUENCE" height="622px" preserveAspectRatio="none" style="width:489px;height:622px;background:#FFFFFF;" version="1.1" viewBox="0 0 489 622" width="489px" zoomAndPan="magnify"><?plantuml 1.2026.6?><defs/><g><g class="title" data-source-line="2"><text fill="#000000" font-family="sans-serif" font-size="14" font-weight="700" lengthAdjust="spacing" textLength="323.5107" x="79.3704" y="29.5332">SYS-SEQ09 UC09 &#30452;&#25773;&#39044;&#32422;&#19982;&#29992;&#25143;&#39044;&#32422;&#65288;&#31995;&#32479;&#32423;&#65289;</text></g><rect fill="none" height="136.6563" rx="5" ry="5" style="stroke:#7C93A8;stroke-width:1.5;" width="398.2515" x="10" y="170.8281"/><rect fill="none" height="105.0469" rx="5" ry="5" style="stroke:#7C93A8;stroke-width:1.5;" width="333.2515" x="75" y="353.0938"/><g class="participant-lifeline" data-entity-uid="part1" data-qualified-name="A" data-source-line="3" id="part1-lifeline"><g><title>..</title><rect fill="#000000" fill-opacity="0.00000" height="416.1406" width="8" x="43.5" y="122.2188"/><line style="stroke:#7C93A8;stroke-width:0.5;stroke-dasharray:5,5;" x1="47" x2="47" y1="122.2188" y2="538.3594"/></g></g><g class="participant-lifeline" data-entity-uid="part2" data-qualified-name="V" data-source-line="4" id="part2-lifeline"><g><title>....</title><rect fill="#000000" fill-opacity="0.00000" height="416.1406" width="8" x="112" y="122.2188"/><line style="stroke:#7C93A8;stroke-width:0.5;stroke-dasharray:5,5;" x1="116" x2="116" y1="122.2188" y2="538.3594"/></g></g><g class="participant-lifeline" data-entity-uid="part3" data-qualified-name="S" data-source-line="5" id="part3-lifeline"><g><title>DanmakuStream ..</title><rect fill="#000000" fill-opacity="0.00000" height="416.1406" width="8" x="318.7861" y="122.2188"/><line style="stroke:#7C93A8;stroke-width:0.5;stroke-dasharray:5,5;" x1="322.3208" x2="322.3208" y1="122.2188" y2="538.3594"/></g></g><g class="participant-lifeline" data-entity-uid="part4" data-qualified-name="T" data-source-line="6" id="part4-lifeline"><g><title>....</title><rect fill="#000000" fill-opacity="0.00000" height="416.1406" width="8" x="439.2515" y="122.2188"/><line style="stroke:#7C93A8;stroke-width:0.5;stroke-dasharray:5,5;" x1="443.2515" x2="443.2515" y1="122.2188" y2="538.3594"/></g></g><g class="participant participant-head" data-entity-uid="part1" data-qualified-name="A" data-source-line="3" id="part1-head"><text fill="#000000" font-family="sans-serif" font-size="14" lengthAdjust="spacing" textLength="28" x="30.5" y="119.1426">&#20027;&#25773;</text><ellipse cx="47.5" cy="60.1094" fill="#EAF3FA" rx="16" ry="16" style="stroke:#315A7D;stroke-width:0.5;"/><path d="M47.5,80.1094 C51.5,80.1094 54.5,80.1094 58.5,76.1094 C66.5,76.1094 74.5,84.1094 74.5,92.1094 L74.5,96.1094 C74.5,100.1094 70.5,104.1094 66.5,104.1094 L28.5,104.1094 C24.5,104.1094 20.5,100.1094 20.5,96.1094 L20.5,92.1094 C20.5,84.1094 28.5,76.1094 36.5,76.1094 C40.5,80.1094 43.5,80.1094 47.5,80.1094" fill="#EAF3FA" style="stroke:#315A7D;stroke-width:0.5;"/></g><g class="participant participant-tail" data-entity-uid="part1" data-qualified-name="A" data-source-line="3" id="part1-tail"><text fill="#000000" font-family="sans-serif" font-size="14" lengthAdjust="spacing" textLength="28" x="30.5" y="551.8926">&#20027;&#25773;</text><ellipse cx="47.5" cy="571.4688" fill="#EAF3FA" rx="16" ry="16" style="stroke:#315A7D;stroke-width:0.5;"/><path d="M47.5,591.4688 C51.5,591.4688 54.5,591.4688 58.5,587.4688 C66.5,587.4688 74.5,595.4688 74.5,603.4688 L74.5,607.4688 C74.5,611.4688 70.5,615.4688 66.5,615.4688 L28.5,615.4688 C24.5,615.4688 20.5,611.4688 20.5,607.4688 L20.5,603.4688 C20.5,595.4688 28.5,587.4688 36.5,587.4688 C40.5,591.4688 43.5,591.4688 47.5,591.4688" fill="#EAF3FA" style="stroke:#315A7D;stroke-width:0.5;"/></g><g class="participant participant-head" data-entity-uid="part2" data-qualified-name="V" data-source-line="4" id="part2-head"><text fill="#000000" font-family="sans-serif" font-size="14" lengthAdjust="spacing" textLength="56" x="85" y="119.1426">&#26222;&#36890;&#29992;&#25143;</text><ellipse cx="116" cy="60.1094" fill="#EAF3FA" rx="16" ry="16" style="stroke:#315A7D;stroke-width:0.5;"/><path d="M116,80.1094 C120,80.1094 123,80.1094 127,76.1094 C135,76.1094 143,84.1094 143,92.1094 L143,96.1094 C143,100.1094 139,104.1094 135,104.1094 L97,104.1094 C93,104.1094 89,100.1094 89,96.1094 L89,92.1094 C89,84.1094 97,76.1094 105,76.1094 C109,80.1094 112,80.1094 116,80.1094" fill="#EAF3FA" style="stroke:#315A7D;stroke-width:0.5;"/></g><g class="participant participant-tail" data-entity-uid="part2" data-qualified-name="V" data-source-line="4" id="part2-tail"><text fill="#000000" font-family="sans-serif" font-size="14" lengthAdjust="spacing" textLength="56" x="85" y="551.8926">&#26222;&#36890;&#29992;&#25143;</text><ellipse cx="116" cy="571.4688" fill="#EAF3FA" rx="16" ry="16" style="stroke:#315A7D;stroke-width:0.5;"/><path d="M116,591.4688 C120,591.4688 123,591.4688 127,587.4688 C135,587.4688 143,595.4688 143,603.4688 L143,607.4688 C143,611.4688 139,615.4688 135,615.4688 L97,615.4688 C93,615.4688 89,611.4688 89,607.4688 L89,603.4688 C89,595.4688 97,587.4688 105,587.4688 C109,591.4688 112,591.4688 116,591.4688" fill="#EAF3FA" style="stroke:#315A7D;stroke-width:0.5;"/></g><g class="participant participant-head" data-entity-uid="part3" data-qualified-name="S" data-source-line="5" id="part3-head"><rect fill="#F7FAFC" height="31.6094" rx="5" ry="5" style="stroke:#315A7D;stroke-width:0.5;" width="150.9307" x="247.3208" y="89.6094"/><text fill="#000000" font-family="sans-serif" font-size="14" lengthAdjust="spacing" textLength="136.9307" x="254.3208" y="111.1426">DanmakuStream &#31995;&#32479;</text></g><g class="participant participant-tail" data-entity-uid="part3" data-qualified-name="S" data-source-line="5" id="part3-tail"><rect fill="#F7FAFC" height="31.6094" rx="5" ry="5" style="stroke:#315A7D;stroke-width:0.5;" width="150.9307" x="247.3208" y="537.3594"/><text fill="#000000" font-family="sans-serif" font-size="14" lengthAdjust="spacing" textLength="136.9307" x="254.3208" y="558.8926">DanmakuStream &#31995;&#32479;</text></g><g class="participant participant-head" data-entity-uid="part4" data-qualified-name="T" data-source-line="6" id="part4-head"><rect fill="#F7FAFC" height="31.6094" rx="5" ry="5" style="stroke:#315A7D;stroke-width:0.5;" width="70" x="408.2515" y="89.6094"/><text fill="#000000" font-family="sans-serif" font-size="14" lengthAdjust="spacing" textLength="56" x="415.2515" y="111.1426">&#35745;&#21010;&#20219;&#21153;</text></g><g class="participant participant-tail" data-entity-uid="part4" data-qualified-name="T" data-source-line="6" id="part4-tail"><rect fill="#F7FAFC" height="31.6094" rx="5" ry="5" style="stroke:#315A7D;stroke-width:0.5;" width="70" x="408.2515" y="537.3594"/><text fill="#000000" font-family="sans-serif" font-size="14" lengthAdjust="spacing" textLength="56" x="415.2515" y="558.8926">&#35745;&#21010;&#20219;&#21153;</text></g><g class="message" data-entity-1="part1" data-entity-2="part3" data-source-line="8" id="msg1"><polygon fill="#315A7D" points="310.7861,151.8281,320.7861,155.8281,310.7861,159.8281,314.7861,155.8281" style="stroke:#315A7D;stroke-width:1;stroke-linejoin:miter;stroke-miterlimit:10;"/><line style="stroke:#315A7D;stroke-width:1.2;" x1="47.5" x2="316.7861" y1="155.8281" y2="155.8281"/><text fill="#000000" font-family="sans-serif" font-size="14" lengthAdjust="spacing" textLength="84" x="54.5" y="150.752">&#21457;&#24067;&#30452;&#25773;&#35745;&#21010;</text></g><path d="M15,170.8281 L71.3379,170.8281 L71.3379,180.4375 L61.3379,190.4375 L10,190.4375 L10,175.8281 A5,5 0 0 1 15,170.8281" fill="#F3F7FA" style="stroke:#7C93A8;stroke-width:1.5;"/><rect fill="none" height="136.6563" rx="5" ry="5" style="stroke:#7C93A8;stroke-width:1.5;" width="398.2515" x="10" y="170.8281"/><text fill="#000000" font-family="sans-serif" font-size="14" font-weight="700" lengthAdjust="spacing" textLength="16.3379" x="25" y="186.3613">alt</text><text fill="#000000" font-family="sans-serif" font-size="14" font-weight="700" lengthAdjust="spacing" textLength="110.3867" x="86.3379" y="187.3613">[&#26631;&#39064;&#21644;&#26102;&#38388;&#21512;&#27861;]</text><g class="message" data-entity-1="part3" data-entity-2="part1" data-source-line="10" id="msg2"><polygon fill="#315A7D" points="58.5,212.6563,48.5,216.6563,58.5,220.6563,54.5,216.6563" style="stroke:#315A7D;stroke-width:1;stroke-linejoin:miter;stroke-miterlimit:10;"/><line style="stroke:#315A7D;stroke-width:1.2;stroke-dasharray:2,2;" x1="52.5" x2="321.7861" y1="216.6563" y2="216.6563"/><text fill="#000000" font-family="sans-serif" font-size="14" lengthAdjust="spacing" textLength="113.6064" x="64.5" y="211.5801">&#36820;&#22238; pending &#35745;&#21010;</text></g><g class="message" data-entity-1="part3" data-entity-2="part2" data-source-line="11" id="msg3"><polygon fill="#315A7D" points="127,244.2656,117,248.2656,127,252.2656,123,248.2656" style="stroke:#315A7D;stroke-width:1;stroke-linejoin:miter;stroke-miterlimit:10;"/><line style="stroke:#315A7D;stroke-width:1.2;stroke-dasharray:2,2;" x1="121" x2="321.7861" y1="248.2656" y2="248.2656"/><text fill="#000000" font-family="sans-serif" font-size="14" lengthAdjust="spacing" textLength="143.8896" x="133" y="243.1895">&#23637;&#31034;&#35745;&#21010;/&#20135;&#29983;&#20851;&#27880;&#36890;&#30693;</text></g><line style="stroke:#7C93A8;stroke-width:1;stroke-dasharray:2,2;" x1="10" x2="408.2515" y1="257.2656" y2="257.2656"/><text fill="#000000" font-family="sans-serif" font-size="14" font-weight="700" lengthAdjust="spacing" textLength="139.2617" x="15" y="271.7988">[&#21442;&#25968;&#38750;&#27861;&#25110;&#26102;&#38388;&#20914;&#31361;]</text><g class="message" data-entity-1="part3" data-entity-2="part1" data-source-line="13" id="msg4"><polygon fill="#315A7D" points="58.5,295.4844,48.5,299.4844,58.5,303.4844,54.5,299.4844" style="stroke:#315A7D;stroke-width:1;stroke-linejoin:miter;stroke-miterlimit:10;"/><line style="stroke:#315A7D;stroke-width:1.2;stroke-dasharray:2,2;" x1="52.5" x2="321.7861" y1="299.4844" y2="299.4844"/><text fill="#000000" font-family="sans-serif" font-size="14" lengthAdjust="spacing" textLength="126" x="64.5" y="294.4082">&#25298;&#32477;&#21019;&#24314;&#24182;&#35828;&#26126;&#21407;&#22240;</text></g><g class="message" data-entity-1="part2" data-entity-2="part3" data-source-line="15" id="msg5"><polygon fill="#315A7D" points="310.7861,334.0938,320.7861,338.0938,310.7861,342.0938,314.7861,338.0938" style="stroke:#315A7D;stroke-width:1;stroke-linejoin:miter;stroke-miterlimit:10;"/><line style="stroke:#315A7D;stroke-width:1.2;" x1="116" x2="316.7861" y1="338.0938" y2="338.0938"/><text fill="#000000" font-family="sans-serif" font-size="14" lengthAdjust="spacing" textLength="56" x="123" y="333.0176">&#39044;&#32422;&#35745;&#21010;</text></g><path d="M80,353.0938 L136.3379,353.0938 L136.3379,362.7031 L126.3379,372.7031 L75,372.7031 L75,358.0938 A5,5 0 0 1 80,353.0938" fill="#F3F7FA" style="stroke:#7C93A8;stroke-width:1.5;"/><rect fill="none" height="105.0469" rx="5" ry="5" style="stroke:#7C93A8;stroke-width:1.5;" width="333.2515" x="75" y="353.0938"/><text fill="#000000" font-family="sans-serif" font-size="14" font-weight="700" lengthAdjust="spacing" textLength="16.3379" x="90" y="368.627">alt</text><text fill="#000000" font-family="sans-serif" font-size="14" font-weight="700" lengthAdjust="spacing" textLength="139.2617" x="151.3379" y="369.627">[&#35745;&#21010;&#21487;&#39044;&#32422;&#19988;&#38750;&#26412;&#20154;]</text><g class="message" data-entity-1="part3" data-entity-2="part2" data-source-line="17" id="msg6"><polygon fill="#315A7D" points="127,394.9219,117,398.9219,127,402.9219,123,398.9219" style="stroke:#315A7D;stroke-width:1;stroke-linejoin:miter;stroke-miterlimit:10;"/><line style="stroke:#315A7D;stroke-width:1.2;stroke-dasharray:2,2;" x1="121" x2="321.7861" y1="398.9219" y2="398.9219"/><text fill="#000000" font-family="sans-serif" font-size="14" lengthAdjust="spacing" textLength="107.7412" x="133" y="393.8457">&#24050;&#39044;&#32422;&#12289;&#20154;&#25968; + 1</text></g><line style="stroke:#7C93A8;stroke-width:1;stroke-dasharray:2,2;" x1="75" x2="408.2515" y1="407.9219" y2="407.9219"/><text fill="#000000" font-family="sans-serif" font-size="14" font-weight="700" lengthAdjust="spacing" textLength="67.0742" x="80" y="422.4551">[&#19981;&#21487;&#39044;&#32422;]</text><g class="message" data-entity-1="part3" data-entity-2="part2" data-source-line="19" id="msg7"><polygon fill="#315A7D" points="127,446.1406,117,450.1406,127,454.1406,123,450.1406" style="stroke:#315A7D;stroke-width:1;stroke-linejoin:miter;stroke-miterlimit:10;"/><line style="stroke:#315A7D;stroke-width:1.2;stroke-dasharray:2,2;" x1="121" x2="321.7861" y1="450.1406" y2="450.1406"/><text fill="#000000" font-family="sans-serif" font-size="14" lengthAdjust="spacing" textLength="84" x="133" y="445.0645">&#36820;&#22238;&#22833;&#36133;&#21407;&#22240;</text></g><g class="message" data-entity-1="part4" data-entity-2="part3" data-source-line="21" id="msg8"><polygon fill="#315A7D" points="333.7861,484.75,323.7861,488.75,333.7861,492.75,329.7861,488.75" style="stroke:#315A7D;stroke-width:1;stroke-linejoin:miter;stroke-miterlimit:10;"/><line style="stroke:#315A7D;stroke-width:1.2;" x1="327.7861" x2="442.2515" y1="488.75" y2="488.75"/><text fill="#000000" font-family="sans-serif" font-size="14" lengthAdjust="spacing" textLength="84" x="339.7861" y="483.6738">&#25195;&#25551;&#21040;&#26399;&#35745;&#21010;</text></g><g class="message" data-entity-1="part3" data-entity-2="part2" data-source-line="22" id="msg9"><polygon fill="#315A7D" points="127,516.3594,117,520.3594,127,524.3594,123,520.3594" style="stroke:#315A7D;stroke-width:1;stroke-linejoin:miter;stroke-miterlimit:10;"/><line style="stroke:#315A7D;stroke-width:1.2;stroke-dasharray:2,2;" x1="121" x2="321.7861" y1="520.3594" y2="520.3594"/><text fill="#000000" font-family="sans-serif" font-size="14" lengthAdjust="spacing" textLength="182.7861" x="133" y="515.2832">&#35745;&#21010;&#36716;&#20026; live &#24182;&#20135;&#29983;&#24320;&#25773;&#36890;&#30693;</text></g><?plantuml-src LLBBJi905DtFLrpP6a2NkZ0XwWUOAeahqs2ZZQKIBAxnNL-W17o1Lesl-5O8b1RZnzYPQLV-WaEdA6ucS-yzvzvppqoFh2QKpBG4aKXqIfkLab8abKagI9CrHG9XKWWBesDz0p0np0vQhf72atUvIgqRnypHuXtH6ppyRkcqQbFReDRjTsiJYGbjFWqXnxGP8mJY0iGwENByx6LFEDcln55AJ6joGaw9gWQX4L5DYdCPGKjBOX9uLnyd_CUvpnTOBpYsZRSk_FeuGZ483u4m23Y_ZyqLhfVZaAXeGCutlCiZNDWXXtNli8RtT58j8G01memN6mJtiuZBPv2Ir6bPdO60sW74MUEt4hsoU3xgMBUqQE2rAgdUjLSohf6aB4Xi-Z8flNgdPwmxqG-2OUllz7wfUnZPBb3x5EjbR5kuMNTVQkGeXtC6BfyZ9W35WsMumrrhy2lEltIUejYULNbqBEkVriOx1tnbbrY9IO9UwESI7NFtbz_DuGRWgpUtTjqbPJoGGZOVI3wFzLTICG91VrG_TZyU7TC2HLvaFZJhWKMjRFlZ-1Rz0000?></g></svg>