<svg xmlns="http://www.w3.org/2000/svg" xmlns:xlink="http://www.w3.org/1999/xlink" contentStyleType="text/css" data-diagram-type="SEQUENCE" height="567px" preserveAspectRatio="none" style="width:386px;height:567px;background:#FFFFFF;" version="1.1" viewBox="0 0 386 567" width="386px" zoomAndPan="magnify"><?plantuml 1.2026.6?><defs/><g><g class="title" data-source-line="2"><text fill="#000000" font-family="sans-serif" font-size="14" font-weight="700" lengthAdjust="spacing" textLength="280.1982" x="49.6335" y="29.5332">SYS-SEQ05 UC05 &#35270;&#39057;&#35266;&#30475;&#20114;&#21160;&#65288;&#31995;&#32479;&#32423;&#65289;</text></g><rect fill="none" height="105.0469" rx="5" ry="5" style="stroke:#7C93A8;stroke-width:1.5;" width="360.4653" x="10" y="234.0469"/><g class="participant-lifeline" data-entity-uid="part1" data-qualified-name="U" data-source-line="3" id="part1-lifeline"><g><title>....</title><rect fill="#000000" fill-opacity="0.00000" height="360.3125" width="8" x="47" y="122.2188"/><line style="stroke:#7C93A8;stroke-width:0.5;stroke-dasharray:5,5;" x1="51" x2="51" y1="122.2188" y2="482.5313"/></g></g><g class="participant-lifeline" data-entity-uid="part2" data-qualified-name="S" data-source-line="4" id="part2-lifeline"><g><title>DanmakuStream ..</title><rect fill="#000000" fill-opacity="0.00000" height="360.3125" width="8" x="281" y="122.2188"/><line style="stroke:#7C93A8;stroke-width:0.5;stroke-dasharray:5,5;" x1="284.5347" x2="284.5347" y1="122.2188" y2="482.5313"/></g></g><g class="participant participant-head" data-entity-uid="part1" data-qualified-name="U" data-source-line="3" id="part1-head"><text fill="#000000" font-family="sans-serif" font-size="14" lengthAdjust="spacing" textLength="56" x="20" y="119.1426">&#26222;&#36890;&#29992;&#25143;</text><ellipse cx="51" cy="60.1094" fill="#EAF3FA" rx="16" ry="16" style="stroke:#315A7D;stroke-width:0.5;"/><path d="M51,80.1094 C55,80.1094 58,80.1094 62,76.1094 C70,76.1094 78,84.1094 78,92.1094 L78,96.1094 C78,100.1094 74,104.1094 70,104.1094 L32,104.1094 C28,104.1094 24,100.1094 24,96.1094 L24,92.1094 C24,84.1094 32,76.1094 40,76.1094 C44,80.1094 47,80.1094 51,80.1094" fill="#EAF3FA" style="stroke:#315A7D;stroke-width:0.5;"/></g><g class="participant participant-tail" data-entity-uid="part1" data-qualified-name="U" data-source-line="3" id="part1-tail"><text fill="#000000" font-family="sans-serif" font-size="14" lengthAdjust="spacing" textLength="56" x="20" y="496.0645">&#26222;&#36890;&#29992;&#25143;</text><ellipse cx="51" cy="515.6406" fill="#EAF3FA" rx="16" ry="16" style="stroke:#315A7D;stroke-width:0.5;"/><path d="M51,535.6406 C55,535.6406 58,535.6406 62,531.6406 C70,531.6406 78,539.6406 78,547.6406 L78,551.6406 C78,555.6406 74,559.6406 70,559.6406 L32,559.6406 C28,559.6406 24,555.6406 24,551.6406 L24,547.6406 C24,539.6406 32,531.6406 40,531.6406 C44,535.6406 47,535.6406 51,535.6406" fill="#EAF3FA" style="stroke:#315A7D;stroke-width:0.5;"/></g><g class="participant participant-head" data-entity-uid="part2" data-qualified-name="S" data-source-line="4" id="part2-head"><rect fill="#F7FAFC" height="31.6094" rx="5" ry="5" style="stroke:#315A7D;stroke-width:0.5;" width="150.9307" x="209.5347" y="89.6094"/><text fill="#000000" font-family="sans-serif" font-size="14" lengthAdjust="spacing" textLength="136.9307" x="216.5347" y="111.1426">DanmakuStream &#31995;&#32479;</text></g><g class="participant participant-tail" data-entity-uid="part2" data-qualified-name="S" data-source-line="4" id="part2-tail"><rect fill="#F7FAFC" height="31.6094" rx="5" ry="5" style="stroke:#315A7D;stroke-width:0.5;" width="150.9307" x="209.5347" y="481.5313"/><text fill="#000000" font-family="sans-serif" font-size="14" lengthAdjust="spacing" textLength="136.9307" x="216.5347" y="503.0645">DanmakuStream &#31995;&#32479;</text></g><g class="message" data-entity-1="part1" data-entity-2="part2" data-source-line="6" id="msg1"><polygon fill="#315A7D" points="273,151.8281,283,155.8281,273,159.8281,277,155.8281" style="stroke:#315A7D;stroke-width:1;stroke-linejoin:miter;stroke-miterlimit:10;"/><line style="stroke:#315A7D;stroke-width:1.2;" x1="51" x2="279" y1="155.8281" y2="155.8281"/><text fill="#000000" font-family="sans-serif" font-size="14" lengthAdjust="spacing" textLength="98" x="58" y="150.752">&#25171;&#24320;&#21487;&#25773;&#25918;&#35270;&#39057;</text></g><g class="message" data-entity-1="part2" data-entity-2="part1" data-source-line="7" id="msg2"><polygon fill="#315A7D" points="62,183.4375,52,187.4375,62,191.4375,58,187.4375" style="stroke:#315A7D;stroke-width:1;stroke-linejoin:miter;stroke-miterlimit:10;"/><line style="stroke:#315A7D;stroke-width:1.2;stroke-dasharray:2,2;" x1="56" x2="284" y1="187.4375" y2="187.4375"/><text fill="#000000" font-family="sans-serif" font-size="14" lengthAdjust="spacing" textLength="210" x="68" y="182.3613">&#35270;&#39057;&#35814;&#24773;&#12289;&#24377;&#24149;&#12289;&#35780;&#35770;&#21644;&#20114;&#21160;&#29366;&#24577;</text></g><g class="message" data-entity-1="part1" data-entity-2="part2" data-source-line="8" id="msg3"><polygon fill="#315A7D" points="273,215.0469,283,219.0469,273,223.0469,277,219.0469" style="stroke:#315A7D;stroke-width:1;stroke-linejoin:miter;stroke-miterlimit:10;"/><line style="stroke:#315A7D;stroke-width:1.2;" x1="51" x2="279" y1="219.0469" y2="219.0469"/><text fill="#000000" font-family="sans-serif" font-size="14" lengthAdjust="spacing" textLength="210" x="58" y="213.9707">&#21457;&#36865;&#24377;&#24149;&#65288;&#26102;&#38388;&#28857;&#12289;&#20869;&#23481;&#12289;&#26679;&#24335;&#65289;</text></g><path d="M15,234.0469 L71.3379,234.0469 L71.3379,243.6563 L61.3379,253.6563 L10,253.6563 L10,239.0469 A5,5 0 0 1 15,234.0469" fill="#F3F7FA" style="stroke:#7C93A8;stroke-width:1.5;"/><rect fill="none" height="105.0469" rx="5" ry="5" style="stroke:#7C93A8;stroke-width:1.5;" width="360.4653" x="10" y="234.0469"/><text fill="#000000" font-family="sans-serif" font-size="14" font-weight="700" lengthAdjust="spacing" textLength="16.3379" x="25" y="249.5801">alt</text><text fill="#000000" font-family="sans-serif" font-size="14" font-weight="700" lengthAdjust="spacing" textLength="67.0742" x="86.3379" y="250.5801">[&#36755;&#20837;&#21512;&#27861;]</text><g class="message" data-entity-1="part2" data-entity-2="part1" data-source-line="10" id="msg4"><polygon fill="#315A7D" points="62,275.875,52,279.875,62,283.875,58,279.875" style="stroke:#315A7D;stroke-width:1;stroke-linejoin:miter;stroke-miterlimit:10;"/><line style="stroke:#315A7D;stroke-width:1.2;stroke-dasharray:2,2;" x1="56" x2="284" y1="279.875" y2="279.875"/><text fill="#000000" font-family="sans-serif" font-size="14" lengthAdjust="spacing" textLength="98" x="68" y="274.7988">&#20445;&#23384;&#24182;&#36820;&#22238;&#24377;&#24149;</text></g><line style="stroke:#7C93A8;stroke-width:1;stroke-dasharray:2,2;" x1="10" x2="370.4653" y1="288.875" y2="288.875"/><text fill="#000000" font-family="sans-serif" font-size="14" font-weight="700" lengthAdjust="spacing" textLength="153.6992" x="15" y="303.4082">[&#36755;&#20837;&#38750;&#27861;&#25110;&#35270;&#39057;&#19981;&#21487;&#29992;]</text><g class="message" data-entity-1="part2" data-entity-2="part1" data-source-line="12" id="msg5"><polygon fill="#315A7D" points="62,327.0938,52,331.0938,62,335.0938,58,331.0938" style="stroke:#315A7D;stroke-width:1;stroke-linejoin:miter;stroke-miterlimit:10;"/><line style="stroke:#315A7D;stroke-width:1.2;stroke-dasharray:2,2;" x1="56" x2="284" y1="331.0938" y2="331.0938"/><text fill="#000000" font-family="sans-serif" font-size="14" lengthAdjust="spacing" textLength="98" x="68" y="326.0176">&#25298;&#32477;&#24182;&#35828;&#26126;&#21407;&#22240;</text></g><g class="message" data-entity-1="part1" data-entity-2="part2" data-source-line="14" id="msg6"><polygon fill="#315A7D" points="273,365.7031,283,369.7031,273,373.7031,277,369.7031" style="stroke:#315A7D;stroke-width:1;stroke-linejoin:miter;stroke-miterlimit:10;"/><line style="stroke:#315A7D;stroke-width:1.2;" x1="51" x2="279" y1="369.7031" y2="369.7031"/><text fill="#000000" font-family="sans-serif" font-size="14" lengthAdjust="spacing" textLength="56" x="58" y="364.627">&#21457;&#34920;&#35780;&#35770;</text></g><g class="message" data-entity-1="part2" data-entity-2="part1" data-source-line="15" id="msg7"><polygon fill="#315A7D" points="62,397.3125,52,401.3125,62,405.3125,58,401.3125" style="stroke:#315A7D;stroke-width:1;stroke-linejoin:miter;stroke-miterlimit:10;"/><line style="stroke:#315A7D;stroke-width:1.2;stroke-dasharray:2,2;" x1="56" x2="284" y1="401.3125" y2="401.3125"/><text fill="#000000" font-family="sans-serif" font-size="14" lengthAdjust="spacing" textLength="84" x="68" y="396.2363">&#36820;&#22238;&#26032;&#22686;&#35780;&#35770;</text></g><g class="message" data-entity-1="part1" data-entity-2="part2" data-source-line="16" id="msg8"><polygon fill="#315A7D" points="273,428.9219,283,432.9219,273,436.9219,277,432.9219" style="stroke:#315A7D;stroke-width:1;stroke-linejoin:miter;stroke-miterlimit:10;"/><line style="stroke:#315A7D;stroke-width:1.2;" x1="51" x2="279" y1="432.9219" y2="432.9219"/><text fill="#000000" font-family="sans-serif" font-size="14" lengthAdjust="spacing" textLength="87.8896" x="58" y="427.8457">&#28857;&#36190;/&#25910;&#34255;&#35270;&#39057;</text></g><g class="message" data-entity-1="part2" data-entity-2="part1" data-source-line="17" id="msg9"><polygon fill="#315A7D" points="62,460.5313,52,464.5313,62,468.5313,58,464.5313" style="stroke:#315A7D;stroke-width:1;stroke-linejoin:miter;stroke-miterlimit:10;"/><line style="stroke:#315A7D;stroke-width:1.2;stroke-dasharray:2,2;" x1="56" x2="284" y1="464.5313" y2="464.5313"/><text fill="#000000" font-family="sans-serif" font-size="14" lengthAdjust="spacing" textLength="154" x="68" y="459.4551">&#36820;&#22238;&#20999;&#25442;&#21518;&#30340;&#29366;&#24577;&#21644;&#35745;&#25968;</text></g><?plantuml-src PL2zJi9G5DxlKrpP0HSN1XVr0Kp3u6GQR2An886oeu9M4L04KPGVIHGMMn8GBJJuC7BElPru1IyK38dBoKdE-NxNmj6GcZnGgC_dtzSEbOZYYoKZAj72cgfGQK_oIZkxwniqk2K6RvyxhLlUFcNFsScm25UTgQspteYD6cpOdjgNH0vfnt7gmKV3ILLPgOFwfuVA2HeaCJckXKFXc1pLg6TRZaRaewIanHKvGbs6-Pz4I91wDwaKe7Xv1tOA2YOMtx4qThM9HBtY70milPXlU9RvIPs0RO5L5WitqzmOGl7QDSYk1fWw-IE5mgspV1RUiJ9mAdrsQiqOpZDWp1PiVe9TcATHDSh7Tv1vXHiTUsL2wP_-vBi6xmzW3VXt2PxgBYLHr8IoW3Yrke2WVkywdNpbH1PHoIe9PejiL9kHc7ryo4E-0KzDeaGFLWtpbuuRQYNyN1Flkz2gBsvBW0Z3F-f-B0rufV2lDDUhVe6v5jpaMJNjzYFguiOBbhk_?></g></svg>