<svg xmlns="http://www.w3.org/2000/svg" xmlns:xlink="http://www.w3.org/1999/xlink" version="1.1" data-diagram-type="SEQUENCE" style="width:464px;height:748px;background:#FFFFFF;" width="464px" height="748px" viewBox="0 0 464 748" zoomAndPan="magnify" preserveAspectRatio="none" contentStyleType="text/css"><?plantuml 1.2026.7?><defs/><g font-family="sans-serif" lengthAdjust="spacing"><g class="title" data-source-line="2"><text x="48.026" y="31.044" fill="#000" font-size="14" textLength="366.823" font-weight="700">SYS-SEQ10 UC10 直播发布、观看与实时互动（系统级）</text></g><rect x="21.5" y="407.201" width="320.124" height="159.721" fill="none" style="stroke:#7C93A8;stroke-width:1.5;" rx="5" ry="5"/><g><title>..</title><rect x="34" y="130.24" width="8" height="526.922" fill="#000" fill-opacity="0"/><line x1="37.5" y1="130.24" x2="37.5" y2="657.162" style="stroke:#7C93A8;stroke-width:0.5;stroke-dasharray:5,5;"/></g><g><title>..</title><rect x="99" y="130.24" width="8" height="526.922" fill="#000" fill-opacity="0"/><line x1="102.5" y1="130.24" x2="102.5" y2="657.162" style="stroke:#7C93A8;stroke-width:0.5;stroke-dasharray:5,5;"/></g><g><title>DanmakuStream ..</title><rect x="322.124" y="130.24" width="8" height="526.922" fill="#000" fill-opacity="0"/><line x1="325.624" y1="130.24" x2="325.624" y2="657.162" style="stroke:#7C93A8;stroke-width:0.5;stroke-dasharray:5,5;"/></g><g><title>SRS</title><rect x="428.982" y="130.24" width="8" height="526.922" fill="#000" fill-opacity="0"/><line x1="432.482" y1="130.24" x2="432.482" y2="657.162" style="stroke:#7C93A8;stroke-width:0.5;stroke-dasharray:5,5;"/></g><text x="20.5" y="127.164" fill="#000" font-size="14" textLength="28">主播</text><ellipse cx="37.5" cy="66.62" rx="16" ry="16" fill="#EAF3FA" style="stroke:#315A7D;stroke-width:0.5;"/><path d="M37.5,86.62 C41.5,86.62 44.5,86.62 48.5,82.62 C56.5,82.62 64.5,90.62 64.5,98.62 L64.5,102.62 C64.5,106.62 60.5,110.62 56.5,110.62 L18.5,110.62 C14.5,110.62 10.5,106.62 10.5,102.62 L10.5,98.62 C10.5,90.62 18.5,82.62 26.5,82.62 C30.5,86.62 33.5,86.62 37.5,86.62" style="stroke:#315A7D;stroke-width:0.5;" fill="#EAF3FA"/><text x="85.5" y="127.164" fill="#000" font-size="14" textLength="28">观众</text><ellipse cx="102.5" cy="66.62" rx="16" ry="16" fill="#EAF3FA" style="stroke:#315A7D;stroke-width:0.5;"/><path d="M102.5,86.62 C106.5,86.62 109.5,86.62 113.5,82.62 C121.5,82.62 129.5,90.62 129.5,98.62 L129.5,102.62 C129.5,106.62 125.5,110.62 121.5,110.62 L83.5,110.62 C79.5,110.62 75.5,106.62 75.5,102.62 L75.5,98.62 C75.5,90.62 83.5,82.62 91.5,82.62 C95.5,86.62 98.5,86.62 102.5,86.62" style="stroke:#315A7D;stroke-width:0.5;" fill="#EAF3FA"/><rect x="250.159" y="96.12" width="150.931" height="33.12" fill="#F7FAFC" style="stroke:#315A7D;stroke-width:0.5;" rx="5" ry="5"/><text x="257.159" y="119.164" fill="#000" font-size="14" textLength="136.931">DanmakuStream 系统</text><rect x="411.089" y="96.12" width="42.786" height="33.12" fill="#F7FAFC" style="stroke:#315A7D;stroke-width:0.5;" rx="5" ry="5"/><text x="418.089" y="119.164" fill="#000" font-size="14" textLength="28.786">SRS</text><text x="20.5" y="673.206" fill="#000" font-size="14" textLength="28">主播</text><ellipse cx="37.5" cy="692.782" rx="16" ry="16" fill="#EAF3FA" style="stroke:#315A7D;stroke-width:0.5;"/><path d="M37.5,712.782 C41.5,712.782 44.5,712.782 48.5,708.782 C56.5,708.782 64.5,716.782 64.5,724.782 L64.5,728.782 C64.5,732.782 60.5,736.782 56.5,736.782 L18.5,736.782 C14.5,736.782 10.5,732.782 10.5,728.782 L10.5,724.782 C10.5,716.782 18.5,708.782 26.5,708.782 C30.5,712.782 33.5,712.782 37.5,712.782" style="stroke:#315A7D;stroke-width:0.5;" fill="#EAF3FA"/><text x="85.5" y="673.206" fill="#000" font-size="14" textLength="28">观众</text><ellipse cx="102.5" cy="692.782" rx="16" ry="16" fill="#EAF3FA" style="stroke:#315A7D;stroke-width:0.5;"/><path d="M102.5,712.782 C106.5,712.782 109.5,712.782 113.5,708.782 C121.5,708.782 129.5,716.782 129.5,724.782 L129.5,728.782 C129.5,732.782 125.5,736.782 121.5,736.782 L83.5,736.782 C79.5,736.782 75.5,732.782 75.5,728.782 L75.5,724.782 C75.5,716.782 83.5,708.782 91.5,708.782 C95.5,712.782 98.5,712.782 102.5,712.782" style="stroke:#315A7D;stroke-width:0.5;" fill="#EAF3FA"/><rect x="250.159" y="657.162" width="150.931" height="33.12" fill="#F7FAFC" style="stroke:#315A7D;stroke-width:0.5;" rx="5" ry="5"/><text x="257.159" y="680.206" fill="#000" font-size="14" textLength="136.931">DanmakuStream 系统</text><rect x="411.089" y="657.162" width="42.786" height="33.12" fill="#F7FAFC" style="stroke:#315A7D;stroke-width:0.5;" rx="5" ry="5"/><text x="418.089" y="680.206" fill="#000" font-size="14" textLength="28.786">SRS</text><polygon points="313.624,159.36,323.624,163.36,313.624,167.36,317.624,163.36" fill="#315A7D" style="stroke:#315A7D;stroke-width:1;stroke-linejoin:miter;stroke-miterlimit:10;"/><line x1="37.5" y1="163.36" x2="319.624" y2="163.36" style="stroke:#315A7D;stroke-width:1.2;"/><text x="44.5" y="158.284" fill="#000" font-size="14" textLength="98">创建并开始直播</text><polygon points="48.5,192.48,38.5,196.48,48.5,200.48,44.5,196.48" fill="#315A7D" style="stroke:#315A7D;stroke-width:1;stroke-linejoin:miter;stroke-miterlimit:10;"/><line x1="42.5" y1="196.48" x2="324.624" y2="196.48" style="stroke:#315A7D;stroke-width:1.2;stroke-dasharray:2,2;"/><text x="54.5" y="191.404" fill="#000" font-size="14" textLength="168">房间、推流密钥和播放信息</text><polygon points="313.624,225.601,323.624,229.601,313.624,233.601,317.624,229.601" fill="#315A7D" style="stroke:#315A7D;stroke-width:1;stroke-linejoin:miter;stroke-miterlimit:10;"/><line x1="37.5" y1="229.601" x2="319.624" y2="229.601" style="stroke:#315A7D;stroke-width:1.2;"/><text x="44.5" y="224.524" fill="#000" font-size="14" textLength="219.365">通过发布 WebSocket 上传媒体分片</text><polygon points="420.482,258.721,430.482,262.721,420.482,266.721,424.482,262.721" fill="#315A7D" style="stroke:#315A7D;stroke-width:1;stroke-linejoin:miter;stroke-miterlimit:10;"/><line x1="325.624" y1="262.721" x2="426.482" y2="262.721" style="stroke:#315A7D;stroke-width:1.2;"/><text x="332.624" y="257.645" fill="#000" font-size="14" textLength="70">转发媒体流</text><polygon points="313.624,291.841,323.624,295.841,313.624,299.841,317.624,295.841" fill="#315A7D" style="stroke:#315A7D;stroke-width:1;stroke-linejoin:miter;stroke-miterlimit:10;"/><line x1="102.5" y1="295.841" x2="319.624" y2="295.841" style="stroke:#315A7D;stroke-width:1.2;"/><text x="109.5" y="290.765" fill="#000" font-size="14" textLength="168">进入直播间并连接实时通道</text><polygon points="113.5,324.961,103.5,328.961,113.5,332.961,109.5,328.961" fill="#315A7D" style="stroke:#315A7D;stroke-width:1;stroke-linejoin:miter;stroke-miterlimit:10;"/><line x1="107.5" y1="328.961" x2="324.624" y2="328.961" style="stroke:#315A7D;stroke-width:1.2;stroke-dasharray:2,2;"/><text x="119.5" y="323.885" fill="#000" font-size="14" textLength="199.124">房间详情、HLS 地址和当前互动</text><polygon points="113.5,358.081,103.5,362.081,113.5,366.081,109.5,362.081" fill="#315A7D" style="stroke:#315A7D;stroke-width:1;stroke-linejoin:miter;stroke-miterlimit:10;"/><line x1="107.5" y1="362.081" x2="431.482" y2="362.081" style="stroke:#315A7D;stroke-width:1.2;stroke-dasharray:2,2;"/><text x="119.5" y="357.005" fill="#000" font-size="14" textLength="59.124">HLS 媒体</text><polygon points="313.624,391.201,323.624,395.201,313.624,399.201,317.624,395.201" fill="#315A7D" style="stroke:#315A7D;stroke-width:1;stroke-linejoin:miter;stroke-miterlimit:10;"/><line x1="102.5" y1="395.201" x2="319.624" y2="395.201" style="stroke:#315A7D;stroke-width:1.2;"/><text x="109.5" y="390.125" fill="#000" font-size="14" textLength="180.489">弹幕/点赞/礼物或 Super Chat</text><path d="M26.5,407.201 L82.838,407.201 L82.838,418.321 L72.838,428.321 L21.5,428.321 L21.5,412.201 A5,5 0 0 1 26.5,407.201" style="stroke:#7C93A8;stroke-width:1.5;" fill="#F3F7FA"/><rect x="21.5" y="407.201" width="320.124" height="159.721" fill="none" style="stroke:#7C93A8;stroke-width:1.5;" rx="5" ry="5"/><text x="36.5" y="424.245" fill="#000" font-size="14" textLength="16.338" font-weight="700">alt</text><text x="97.838" y="425.245" fill="#000" font-size="14" textLength="110.387" font-weight="700">[权限与参数合法]</text><polygon points="48.5,463.562,38.5,467.562,48.5,471.562,44.5,467.562" fill="#315A7D" style="stroke:#315A7D;stroke-width:1;stroke-linejoin:miter;stroke-miterlimit:10;"/><line x1="42.5" y1="467.562" x2="324.624" y2="467.562" style="stroke:#315A7D;stroke-width:1.2;stroke-dasharray:2,2;"/><text x="54.5" y="462.485" fill="#000" font-size="14" textLength="84">广播监控事件</text><polygon points="113.5,496.682,103.5,500.682,113.5,504.682,109.5,500.682" fill="#315A7D" style="stroke:#315A7D;stroke-width:1;stroke-linejoin:miter;stroke-miterlimit:10;"/><line x1="107.5" y1="500.682" x2="324.624" y2="500.682" style="stroke:#315A7D;stroke-width:1.2;stroke-dasharray:2,2;"/><text x="119.5" y="495.605" fill="#000" font-size="14" textLength="98">广播互动与统计</text><line x1="21.5" y1="509.682" x2="341.624" y2="509.682" style="stroke:#7C93A8;stroke-width:1;stroke-dasharray:2,2;"/><text x="26.5" y="527.726" fill="#000" font-size="14" textLength="124.824" font-weight="700">[校验或持久化失败]</text><polygon points="113.5,554.922,103.5,558.922,113.5,562.922,109.5,558.922" fill="#315A7D" style="stroke:#315A7D;stroke-width:1;stroke-linejoin:miter;stroke-miterlimit:10;"/><line x1="107.5" y1="558.922" x2="324.624" y2="558.922" style="stroke:#315A7D;stroke-width:1.2;stroke-dasharray:2,2;"/><text x="119.5" y="553.846" fill="#000" font-size="14" textLength="168">返回错误且不广播失败数据</text><polygon points="313.624,602.042,323.624,606.042,313.624,610.042,317.624,606.042" fill="#315A7D" style="stroke:#315A7D;stroke-width:1;stroke-linejoin:miter;stroke-miterlimit:10;"/><line x1="37.5" y1="606.042" x2="319.624" y2="606.042" style="stroke:#315A7D;stroke-width:1.2;"/><text x="44.5" y="600.966" fill="#000" font-size="14" textLength="56">结束直播</text><polygon points="48.5,635.162,38.5,639.162,48.5,643.162,44.5,639.162" fill="#315A7D" style="stroke:#315A7D;stroke-width:1;stroke-linejoin:miter;stroke-miterlimit:10;"/><line x1="42.5" y1="639.162" x2="324.624" y2="639.162" style="stroke:#315A7D;stroke-width:1.2;stroke-dasharray:2,2;"/><text x="54.5" y="634.086" fill="#000" font-size="14" textLength="98.82">房间状态 ended</text><?plantuml-src RP7BRjf058RtynIdx85soo8IIYjrKHRjg5HTLIwC51GWY9Wz5v6OQn8kGIc112cKD6eXLGYoiLC_J6V6zYglqC4Eg9MwcSKv__d_RyvvbaZ7ahauWK0W-4dU8IaIoEHIIIGdv2G1_17xyQktBvx3-stnMFqvR_rWHoTCBVtE5-n9qJglKRN9faFUMz1bYrMl7mt5kjCj_S9QJXwD2f9YybuMV5JLnQWFf7q8hsjYdXezjnP56Iah9sA9Z9IMmVTIIgUatHoMiqHAWUVdwl2_ElmEk-K8Gc7mRm4E0LFwJ5yoRS6CF9lKF6I4mI_QuH1mnNHwSm7FczVyli1c1qvhp5fr8UATNzGSyS9iu-NalzZceVTV-40-uxtOBf61gbLgNBAR5dreC-N0gXok_BSW4WBxuVjAxhQ4FOe-ETbcdvN77ep85tYsEUJDiRSvaUCKsa-GqJMaFVlAIsM1-leD1dP-omPv0Sf4PgNXxHf5rXEkn4tTH393OretQ1Kr-tuOjAuCg_ADAwU0SncIXUqTIKPIKWO-A3bdnwiZ7XLvzvOTA_okYm0s6sEQAQ2j_WblJkYoHlN5fXjTTpqSOIBkP4z7Y2Jt2V3BaNDJ5v6yNg1QcTLFsTLFUpx-UzmsEwm_T3fdzcn6rGvL6vwXfnGyl35591tVdCJIstnmyV-hMjK5pnT0o4dy3m00?></g></svg>