<svg xmlns="http://www.w3.org/2000/svg" xmlns:xlink="http://www.w3.org/1999/xlink" version="1.1" data-diagram-type="SEQUENCE" style="width:1295px;height:1333px;background:#FFFFFF;" width="1295px" height="1333px" viewBox="0 0 1295 1333" zoomAndPan="magnify" preserveAspectRatio="none" contentStyleType="text/css"><?plantuml 1.2026.7?><defs/><g font-family="sans-serif" lengthAdjust="spacing"><g class="title" data-source-line="2"><text x="477.331" y="31.044" fill="#000" font-size="14" textLength="338.721" font-weight="700">OBJ-SEQ01 UC01 用户服务对象顺序图（代码追溯）</text></g><rect x="21.5" y="142.24" width="1217.365" height="1076.084" fill="none" style="stroke:#7C93A8;stroke-width:1.5;" rx="5" ry="5"/><g><title>..</title><rect x="34" y="130.24" width="8" height="1112.084" fill="#000" fill-opacity="0"/><line x1="37.5" y1="130.24" x2="37.5" y2="1242.324" style="stroke:#7C93A8;stroke-width:0.5;stroke-dasharray:5,5;"/></g><g><title>auth_handler</title><rect x="252.654" y="130.24" width="8" height="1112.084" fill="#000" fill-opacity="0"/><line x1="256.154" y1="130.24" x2="256.154" y2="1242.324" style="stroke:#7C93A8;stroke-width:0.5;stroke-dasharray:5,5;"/></g><g><title>user_handler</title><rect x="350.385" y="130.24" width="8" height="1112.084" fill="#000" fill-opacity="0"/><line x1="353.885" y1="130.24" x2="353.885" y2="1242.324" style="stroke:#7C93A8;stroke-width:0.5;stroke-dasharray:5,5;"/></g><g><title>RegisterLogic</title><rect x="450.046" y="130.24" width="8" height="1112.084" fill="#000" fill-opacity="0"/><line x1="453.546" y1="130.24" x2="453.546" y2="1242.324" style="stroke:#7C93A8;stroke-width:0.5;stroke-dasharray:5,5;"/></g><g><title>LoginLogic</title><rect x="542.708" y="130.24" width="8" height="1112.084" fill="#000" fill-opacity="0"/><line x1="546.208" y1="130.24" x2="546.208" y2="1242.324" style="stroke:#7C93A8;stroke-width:0.5;stroke-dasharray:5,5;"/></g><g><title>MeLogic</title><rect x="804.259" y="130.24" width="8" height="1112.084" fill="#000" fill-opacity="0"/><line x1="807.759" y1="130.24" x2="807.759" y2="1242.324" style="stroke:#7C93A8;stroke-width:0.5;stroke-dasharray:5,5;"/></g><g><title>.gorm.DB</title><rect x="1023.651" y="130.24" width="8" height="1112.084" fill="#000" fill-opacity="0"/><line x1="1027.151" y1="130.24" x2="1027.151" y2="1242.324" style="stroke:#7C93A8;stroke-width:0.5;stroke-dasharray:5,5;"/></g><g><title>model.User</title><rect x="1109.058" y="130.24" width="8" height="1112.084" fill="#000" fill-opacity="0"/><line x1="1112.558" y1="130.24" x2="1112.558" y2="1242.324" style="stroke:#7C93A8;stroke-width:0.5;stroke-dasharray:5,5;"/></g><g><title>avatar filesystem</title><rect x="1219.365" y="130.24" width="8" height="1112.084" fill="#000" fill-opacity="0"/><line x1="1222.865" y1="130.24" x2="1222.865" y2="1242.324" style="stroke:#7C93A8;stroke-width:0.5;stroke-dasharray:5,5;"/></g><text x="20.5" y="127.164" fill="#000" font-size="14" textLength="28">用户</text><ellipse cx="37.5" cy="66.62" rx="16" ry="16" fill="#EAF3FA" style="stroke:#315A7D;stroke-width:0.5;"/><path d="M37.5,86.62 C41.5,86.62 44.5,86.62 48.5,82.62 C56.5,82.62 64.5,90.62 64.5,98.62 L64.5,102.62 C64.5,106.62 60.5,110.62 56.5,110.62 L18.5,110.62 C14.5,110.62 10.5,106.62 10.5,102.62 L10.5,98.62 C10.5,90.62 18.5,82.62 26.5,82.62 C30.5,86.62 33.5,86.62 37.5,86.62" style="stroke:#315A7D;stroke-width:0.5;" fill="#EAF3FA"/><text x="212.286" y="127.164" fill="#000" font-size="14" textLength="81.737">auth_handler</text><path d="M235.654,83.12 L235.654,107.12 M235.654,95.12 L252.654,95.12" style="stroke:#181818;stroke-width:0.5;" fill="none"/><ellipse cx="264.654" cy="95.12" rx="12" ry="12" fill="#E2E2F0" style="stroke:#181818;stroke-width:0.5;"/><text x="310.023" y="127.164" fill="#000" font-size="14" textLength="81.724">user_handler</text><path d="M333.385,83.12 L333.385,107.12 M333.385,95.12 L350.385,95.12" style="stroke:#181818;stroke-width:0.5;" fill="none"/><ellipse cx="362.385" cy="95.12" rx="12" ry="12" fill="#E2E2F0" style="stroke:#181818;stroke-width:0.5;"/><text x="407.747" y="127.164" fill="#000" font-size="14" textLength="85.6">RegisterLogic</text><ellipse cx="453.546" cy="95.12" rx="12" ry="12" fill="#E2E2F0" style="stroke:#181818;stroke-width:0.5;"/><polygon points="449.546,83.12,455.546,78.12,453.546,83.12,455.546,88.12,449.546,83.12" fill="#181818" style="stroke:#181818;stroke-width:1;stroke-linejoin:miter;stroke-miterlimit:10;"/><text x="509.346" y="127.164" fill="#000" font-size="14" textLength="67.724">LoginLogic</text><ellipse cx="546.208" cy="95.12" rx="12" ry="12" fill="#E2E2F0" style="stroke:#181818;stroke-width:0.5;"/><polygon points="542.208,83.12,548.208,78.12,546.208,83.12,548.208,88.12,542.208,83.12" fill="#181818" style="stroke:#181818;stroke-width:1;stroke-linejoin:miter;stroke-miterlimit:10;"/><text x="778.3" y="127.164" fill="#000" font-size="14" textLength="52.917">MeLogic</text><ellipse cx="807.759" cy="95.12" rx="12" ry="12" fill="#E2E2F0" style="stroke:#181818;stroke-width:0.5;"/><polygon points="803.759,83.12,809.759,78.12,807.759,83.12,809.759,88.12,803.759,83.12" fill="#181818" style="stroke:#181818;stroke-width:1;stroke-linejoin:miter;stroke-miterlimit:10;"/><ellipse cx="996.034" cy="122.74" rx="2.5" ry="2.5" fill="#000"/><text x="1002.534" y="127.164" fill="#000" font-size="14" textLength="55.234">gorm.DB</text><path d="M1009.151,75.12 C1009.151,65.12 1027.151,65.12 1027.151,65.12 C1027.151,65.12 1045.151,65.12 1045.151,75.12 L1045.151,101.12 C1045.151,111.12 1027.151,111.12 1027.151,111.12 C1027.151,111.12 1009.151,111.12 1009.151,101.12 L1009.151,75.12" style="stroke:#A56B00;stroke-width:0.5;" fill="#FFF8E8"/><path d="M1009.151,75.12 C1009.151,85.12 1027.151,85.12 1027.151,85.12 C1027.151,85.12 1045.151,85.12 1045.151,75.12" style="stroke:#A56B00;stroke-width:0.5;" fill="none"/><text x="1073.769" y="127.164" fill="#000" font-size="14" textLength="71.579">model.User</text><ellipse cx="1112.558" cy="95.12" rx="12" ry="12" fill="#E2E2F0" style="stroke:#181818;stroke-width:0.5;"/><line x1="1100.558" y1="109.12" x2="1124.558" y2="109.12" style="stroke:#181818;stroke-width:0.5;"/><rect x="1165.348" y="92.12" width="119.034" height="33.12" fill="#E2E2F0" style="stroke:#181818;stroke-width:0.5;" rx="5" ry="5"/><rect x="1161.348" y="96.12" width="119.034" height="33.12" fill="#E2E2F0" style="stroke:#181818;stroke-width:0.5;" rx="5" ry="5"/><text x="1168.348" y="119.164" fill="#000" font-size="14" textLength="105.034">avatar filesystem</text><text x="20.5" y="1258.368" fill="#000" font-size="14" textLength="28">用户</text><ellipse cx="37.5" cy="1277.944" rx="16" ry="16" fill="#EAF3FA" style="stroke:#315A7D;stroke-width:0.5;"/><path d="M37.5,1297.944 C41.5,1297.944 44.5,1297.944 48.5,1293.944 C56.5,1293.944 64.5,1301.944 64.5,1309.944 L64.5,1313.944 C64.5,1317.944 60.5,1321.944 56.5,1321.944 L18.5,1321.944 C14.5,1321.944 10.5,1317.944 10.5,1313.944 L10.5,1309.944 C10.5,1301.944 18.5,1293.944 26.5,1293.944 C30.5,1297.944 33.5,1297.944 37.5,1297.944" style="stroke:#315A7D;stroke-width:0.5;" fill="#EAF3FA"/><text x="212.286" y="1258.368" fill="#000" font-size="14" textLength="81.737">auth_handler</text><path d="M235.654,1265.444 L235.654,1289.444 M235.654,1277.444 L252.654,1277.444" style="stroke:#181818;stroke-width:0.5;" fill="none"/><ellipse cx="264.654" cy="1277.444" rx="12" ry="12" fill="#E2E2F0" style="stroke:#181818;stroke-width:0.5;"/><text x="310.023" y="1258.368" fill="#000" font-size="14" textLength="81.724">user_handler</text><path d="M333.385,1265.444 L333.385,1289.444 M333.385,1277.444 L350.385,1277.444" style="stroke:#181818;stroke-width:0.5;" fill="none"/><ellipse cx="362.385" cy="1277.444" rx="12" ry="12" fill="#E2E2F0" style="stroke:#181818;stroke-width:0.5;"/><text x="407.747" y="1258.368" fill="#000" font-size="14" textLength="85.6">RegisterLogic</text><ellipse cx="453.546" cy="1277.444" rx="12" ry="12" fill="#E2E2F0" style="stroke:#181818;stroke-width:0.5;"/><polygon points="449.546,1265.444,455.546,1260.444,453.546,1265.444,455.546,1270.444,449.546,1265.444" fill="#181818" style="stroke:#181818;stroke-width:1;stroke-linejoin:miter;stroke-miterlimit:10;"/><text x="509.346" y="1258.368" fill="#000" font-size="14" textLength="67.724">LoginLogic</text><ellipse cx="546.208" cy="1277.444" rx="12" ry="12" fill="#E2E2F0" style="stroke:#181818;stroke-width:0.5;"/><polygon points="542.208,1265.444,548.208,1260.444,546.208,1265.444,548.208,1270.444,542.208,1265.444" fill="#181818" style="stroke:#181818;stroke-width:1;stroke-linejoin:miter;stroke-miterlimit:10;"/><text x="778.3" y="1258.368" fill="#000" font-size="14" textLength="52.917">MeLogic</text><ellipse cx="807.759" cy="1277.444" rx="12" ry="12" fill="#E2E2F0" style="stroke:#181818;stroke-width:0.5;"/><polygon points="803.759,1265.444,809.759,1260.444,807.759,1265.444,809.759,1270.444,803.759,1265.444" fill="#181818" style="stroke:#181818;stroke-width:1;stroke-linejoin:miter;stroke-miterlimit:10;"/><ellipse cx="996.034" cy="1253.944" rx="2.5" ry="2.5" fill="#000"/><text x="1002.534" y="1258.368" fill="#000" font-size="14" textLength="55.234">gorm.DB</text><path d="M1009.151,1271.444 C1009.151,1261.444 1027.151,1261.444 1027.151,1261.444 C1027.151,1261.444 1045.151,1261.444 1045.151,1271.444 L1045.151,1297.444 C1045.151,1307.444 1027.151,1307.444 1027.151,1307.444 C1027.151,1307.444 1009.151,1307.444 1009.151,1297.444 L1009.151,1271.444" style="stroke:#A56B00;stroke-width:0.5;" fill="#FFF8E8"/><path d="M1009.151,1271.444 C1009.151,1281.444 1027.151,1281.444 1027.151,1281.444 C1027.151,1281.444 1045.151,1281.444 1045.151,1271.444" style="stroke:#A56B00;stroke-width:0.5;" fill="none"/><text x="1073.769" y="1258.368" fill="#000" font-size="14" textLength="71.579">model.User</text><ellipse cx="1112.558" cy="1277.444" rx="12" ry="12" fill="#E2E2F0" style="stroke:#181818;stroke-width:0.5;"/><line x1="1100.558" y1="1291.444" x2="1124.558" y2="1291.444" style="stroke:#181818;stroke-width:0.5;"/><rect x="1165.348" y="1242.324" width="119.034" height="33.12" fill="#E2E2F0" style="stroke:#181818;stroke-width:0.5;" rx="5" ry="5"/><rect x="1161.348" y="1246.324" width="119.034" height="33.12" fill="#E2E2F0" style="stroke:#181818;stroke-width:0.5;" rx="5" ry="5"/><text x="1168.348" y="1269.368" fill="#000" font-size="14" textLength="105.034">avatar filesystem</text><path d="M26.5,142.24 L82.838,142.24 L82.838,153.36 L72.838,163.36 L21.5,163.36 L21.5,147.24 A5,5 0 0 1 26.5,142.24" style="stroke:#7C93A8;stroke-width:1.5;" fill="#F3F7FA"/><rect x="21.5" y="142.24" width="1217.365" height="1076.084" fill="none" style="stroke:#7C93A8;stroke-width:1.5;" rx="5" ry="5"/><text x="36.5" y="159.284" fill="#000" font-size="14" textLength="16.338" font-weight="700">alt</text><text x="97.838" y="160.284" fill="#000" font-size="14" textLength="38.199" font-weight="700">[注册]</text><polygon points="244.154,198.601,254.154,202.601,244.154,206.601,248.154,202.601" fill="#315A7D" style="stroke:#315A7D;stroke-width:1;stroke-linejoin:miter;stroke-miterlimit:10;"/><line x1="37.5" y1="202.601" x2="250.154" y2="202.601" style="stroke:#315A7D;stroke-width:1.2;"/><text x="44.5" y="197.524" fill="#000" font-size="14" font-weight="700">1</text><text x="56.286" y="197.524" fill="#000" font-size="14" textLength="130.717">RegisterHandler(req)</text><polygon points="441.546,231.721,451.546,235.721,441.546,239.721,445.546,235.721" fill="#315A7D" style="stroke:#315A7D;stroke-width:1;stroke-linejoin:miter;stroke-miterlimit:10;"/><line x1="256.154" y1="235.721" x2="447.546" y2="235.721" style="stroke:#315A7D;stroke-width:1.2;"/><text x="263.154" y="230.645" fill="#000" font-size="14" font-weight="700">2</text><text x="274.94" y="230.645" fill="#000" font-size="14" textLength="81.689">Register(req)</text><polygon points="1015.151,264.841,1025.151,268.841,1015.151,272.841,1019.151,268.841" fill="#315A7D" style="stroke:#315A7D;stroke-width:1;stroke-linejoin:miter;stroke-miterlimit:10;"/><line x1="453.546" y1="268.841" x2="1021.151" y2="268.841" style="stroke:#315A7D;stroke-width:1.2;"/><text x="460.546" y="263.765" fill="#000" font-size="14" font-weight="700">3</text><text x="472.333" y="263.765" fill="#000" font-size="14" textLength="254.413">Model(&amp;model.User{}).Where(...).Count()</text><polygon points="1015.151,297.961,1025.151,301.961,1015.151,305.961,1019.151,301.961" fill="#315A7D" style="stroke:#315A7D;stroke-width:1;stroke-linejoin:miter;stroke-miterlimit:10;"/><line x1="453.546" y1="301.961" x2="1021.151" y2="301.961" style="stroke:#315A7D;stroke-width:1.2;"/><text x="460.546" y="296.885" fill="#000" font-size="14" font-weight="700">4</text><text x="472.333" y="296.885" fill="#000" font-size="14" textLength="141.613">Create(&amp;model.User{})</text><polygon points="1015.151,331.081,1025.151,335.081,1015.151,339.081,1019.151,335.081" fill="#315A7D" style="stroke:#315A7D;stroke-width:1;stroke-linejoin:miter;stroke-miterlimit:10;"/><line x1="453.546" y1="335.081" x2="1021.151" y2="335.081" style="stroke:#315A7D;stroke-width:1.2;"/><text x="460.546" y="330.005" fill="#000" font-size="14" font-weight="700">5</text><text x="472.333" y="330.005" fill="#000" font-size="14" textLength="234.028">Model(&amp;user).Update("username", ...)</text><polygon points="267.154,364.201,257.154,368.201,267.154,372.201,263.154,368.201" fill="#315A7D" style="stroke:#315A7D;stroke-width:1;stroke-linejoin:miter;stroke-miterlimit:10;"/><line x1="261.154" y1="368.201" x2="452.546" y2="368.201" style="stroke:#315A7D;stroke-width:1.2;stroke-dasharray:2,2;"/><text x="273.154" y="363.125" fill="#000" font-size="14" font-weight="700">6</text><text x="284.94" y="363.125" fill="#000" font-size="14" textLength="108.165">LoginResp / error</text><polygon points="48.5,397.321,38.5,401.321,48.5,405.321,44.5,401.321" fill="#315A7D" style="stroke:#315A7D;stroke-width:1;stroke-linejoin:miter;stroke-miterlimit:10;"/><line x1="42.5" y1="401.321" x2="255.154" y2="401.321" style="stroke:#315A7D;stroke-width:1.2;stroke-dasharray:2,2;"/><text x="54.5" y="396.245" fill="#000" font-size="14" font-weight="700">7</text><text x="66.286" y="396.245" fill="#000" font-size="14" textLength="175.082">response.Ok / response.Fail</text><line x1="21.5" y1="410.321" x2="1238.865" y2="410.321" style="stroke:#7C93A8;stroke-width:1;stroke-dasharray:2,2;"/><text x="26.5" y="428.365" fill="#000" font-size="14" textLength="38.199" font-weight="700">[登录]</text><polygon points="244.154,455.562,254.154,459.562,244.154,463.562,248.154,459.562" fill="#315A7D" style="stroke:#315A7D;stroke-width:1;stroke-linejoin:miter;stroke-miterlimit:10;"/><line x1="37.5" y1="459.562" x2="250.154" y2="459.562" style="stroke:#315A7D;stroke-width:1.2;"/><text x="44.5" y="454.485" fill="#000" font-size="14" font-weight="700">8</text><text x="56.286" y="454.485" fill="#000" font-size="14" textLength="112.841">LoginHandler(req)</text><polygon points="534.208,488.682,544.208,492.682,534.208,496.682,538.208,492.682" fill="#315A7D" style="stroke:#315A7D;stroke-width:1;stroke-linejoin:miter;stroke-miterlimit:10;"/><line x1="256.154" y1="492.682" x2="540.208" y2="492.682" style="stroke:#315A7D;stroke-width:1.2;"/><text x="263.154" y="487.605" fill="#000" font-size="14" font-weight="700">9</text><text x="274.94" y="487.605" fill="#000" font-size="14" textLength="63.813">Login(req)</text><polygon points="1015.151,521.802,1025.151,525.802,1015.151,529.802,1019.151,525.802" fill="#315A7D" style="stroke:#315A7D;stroke-width:1;stroke-linejoin:miter;stroke-miterlimit:10;"/><line x1="546.208" y1="525.802" x2="1021.151" y2="525.802" style="stroke:#315A7D;stroke-width:1.2;"/><text x="553.208" y="520.726" fill="#000" font-size="14" textLength="15.572" font-weight="700">10</text><text x="572.78" y="520.726" fill="#000" font-size="14" textLength="274.853">Where("nickname = ?").First(&amp;model.User{})</text><line x1="546.208" y1="558.922" x2="588.208" y2="558.922" style="stroke:#315A7D;stroke-width:1.2;"/><line x1="588.208" y1="558.922" x2="588.208" y2="571.922" style="stroke:#315A7D;stroke-width:1.2;"/><line x1="547.208" y1="571.922" x2="588.208" y2="571.922" style="stroke:#315A7D;stroke-width:1.2;"/><polygon points="557.208,567.922,547.208,571.922,557.208,575.922,553.208,571.922" fill="#315A7D" style="stroke:#315A7D;stroke-width:1;stroke-linejoin:miter;stroke-miterlimit:10;"/><text x="553.208" y="553.846" fill="#000" font-size="14" textLength="15.572" font-weight="700">11</text><text x="572.78" y="553.846" fill="#000" font-size="14" textLength="227.979">bcrypt.CompareHashAndPassword()</text><polygon points="267.154,601.042,257.154,605.042,267.154,609.042,263.154,605.042" fill="#315A7D" style="stroke:#315A7D;stroke-width:1;stroke-linejoin:miter;stroke-miterlimit:10;"/><line x1="261.154" y1="605.042" x2="545.208" y2="605.042" style="stroke:#315A7D;stroke-width:1.2;stroke-dasharray:2,2;"/><text x="273.154" y="599.966" fill="#000" font-size="14" textLength="15.572" font-weight="700">12</text><text x="292.727" y="599.966" fill="#000" font-size="14" textLength="108.165">LoginResp / error</text><polygon points="48.5,634.162,38.5,638.162,48.5,642.162,44.5,638.162" fill="#315A7D" style="stroke:#315A7D;stroke-width:1;stroke-linejoin:miter;stroke-miterlimit:10;"/><line x1="42.5" y1="638.162" x2="255.154" y2="638.162" style="stroke:#315A7D;stroke-width:1.2;stroke-dasharray:2,2;"/><text x="54.5" y="633.086" fill="#000" font-size="14" textLength="15.572" font-weight="700">13</text><text x="74.072" y="633.086" fill="#000" font-size="14" textLength="175.082">response.Ok / response.Fail</text><line x1="21.5" y1="647.162" x2="1238.865" y2="647.162" style="stroke:#7C93A8;stroke-width:1;stroke-dasharray:2,2;"/><text x="26.5" y="665.206" fill="#000" font-size="14" textLength="67.074" font-weight="700">[查看资料]</text><polygon points="244.154,692.402,254.154,696.402,244.154,700.402,248.154,696.402" fill="#315A7D" style="stroke:#315A7D;stroke-width:1;stroke-linejoin:miter;stroke-miterlimit:10;"/><line x1="37.5" y1="696.402" x2="250.154" y2="696.402" style="stroke:#315A7D;stroke-width:1.2;"/><text x="44.5" y="691.326" fill="#000" font-size="14" textLength="15.572" font-weight="700">14</text><text x="64.072" y="691.326" fill="#000" font-size="14" textLength="77.8">MeHandler()</text><polygon points="795.759,725.522,805.759,729.522,795.759,733.522,799.759,729.522" fill="#315A7D" style="stroke:#315A7D;stroke-width:1;stroke-linejoin:miter;stroke-miterlimit:10;"/><line x1="256.154" y1="729.522" x2="801.759" y2="729.522" style="stroke:#315A7D;stroke-width:1.2;"/><text x="263.154" y="724.446" fill="#000" font-size="14" textLength="15.572" font-weight="700">15</text><text x="282.727" y="724.446" fill="#000" font-size="14" textLength="70.007">Me(userID)</text><polygon points="1015.151,758.643,1025.151,762.643,1015.151,766.643,1019.151,762.643" fill="#315A7D" style="stroke:#315A7D;stroke-width:1;stroke-linejoin:miter;stroke-miterlimit:10;"/><line x1="807.759" y1="762.643" x2="1021.151" y2="762.643" style="stroke:#315A7D;stroke-width:1.2;"/><text x="814.759" y="757.566" fill="#000" font-size="14" textLength="15.572" font-weight="700">16</text><text x="834.331" y="757.566" fill="#000" font-size="14" textLength="175.82">First(&amp;model.User{}, userID)</text><polygon points="267.154,791.763,257.154,795.763,267.154,799.763,263.154,795.763" fill="#315A7D" style="stroke:#315A7D;stroke-width:1;stroke-linejoin:miter;stroke-miterlimit:10;"/><line x1="261.154" y1="795.763" x2="806.759" y2="795.763" style="stroke:#315A7D;stroke-width:1.2;stroke-dasharray:2,2;"/><text x="273.154" y="790.687" fill="#000" font-size="14" textLength="15.572" font-weight="700">17</text><text x="292.727" y="790.687" fill="#000" font-size="14" textLength="84.027">MeInfo / error</text><polygon points="48.5,824.883,38.5,828.883,48.5,832.883,44.5,828.883" fill="#315A7D" style="stroke:#315A7D;stroke-width:1;stroke-linejoin:miter;stroke-miterlimit:10;"/><line x1="42.5" y1="828.883" x2="255.154" y2="828.883" style="stroke:#315A7D;stroke-width:1.2;stroke-dasharray:2,2;"/><text x="54.5" y="823.807" fill="#000" font-size="14" textLength="15.572" font-weight="700">18</text><text x="74.072" y="823.807" fill="#000" font-size="14" textLength="175.082">response.Ok / response.Fail</text><line x1="21.5" y1="837.883" x2="1238.865" y2="837.883" style="stroke:#7C93A8;stroke-width:1;stroke-dasharray:2,2;"/><text x="26.5" y="855.927" fill="#000" font-size="14" textLength="67.074" font-weight="700">[修改资料]</text><polygon points="341.885,883.123,351.885,887.123,341.885,891.123,345.885,887.123" fill="#315A7D" style="stroke:#315A7D;stroke-width:1;stroke-linejoin:miter;stroke-miterlimit:10;"/><line x1="37.5" y1="887.123" x2="347.885" y2="887.123" style="stroke:#315A7D;stroke-width:1.2;"/><text x="44.5" y="882.047" fill="#000" font-size="14" textLength="15.572" font-weight="700">19</text><text x="64.072" y="882.047" fill="#000" font-size="14" textLength="210.896">UpdateMeHandler(updateMeReq)</text><polygon points="1015.151,916.243,1025.151,920.243,1015.151,924.243,1019.151,920.243" fill="#315A7D" style="stroke:#315A7D;stroke-width:1;stroke-linejoin:miter;stroke-miterlimit:10;"/><line x1="353.885" y1="920.243" x2="1021.151" y2="920.243" style="stroke:#315A7D;stroke-width:1.2;"/><text x="360.885" y="915.167" fill="#000" font-size="14" textLength="15.572" font-weight="700">20</text><text x="380.457" y="915.167" fill="#000" font-size="14" textLength="351.928">Model(&amp;model.User{}).Where("id = ?").Updates(updates)</text><polygon points="364.885,949.363,354.885,953.363,364.885,957.363,360.885,953.363" fill="#315A7D" style="stroke:#315A7D;stroke-width:1;stroke-linejoin:miter;stroke-miterlimit:10;"/><line x1="358.885" y1="953.363" x2="1026.151" y2="953.363" style="stroke:#315A7D;stroke-width:1.2;stroke-dasharray:2,2;"/><text x="370.885" y="948.287" fill="#000" font-size="14" textLength="15.572" font-weight="700">21</text><text x="390.457" y="948.287" fill="#000" font-size="14" textLength="34.234">result</text><polygon points="48.5,982.483,38.5,986.483,48.5,990.483,44.5,986.483" fill="#315A7D" style="stroke:#315A7D;stroke-width:1;stroke-linejoin:miter;stroke-miterlimit:10;"/><line x1="42.5" y1="986.483" x2="352.885" y2="986.483" style="stroke:#315A7D;stroke-width:1.2;stroke-dasharray:2,2;"/><text x="54.5" y="981.407" fill="#000" font-size="14" textLength="15.572" font-weight="700">22</text><text x="74.072" y="981.407" fill="#000" font-size="14" textLength="175.082">response.Ok / response.Fail</text><line x1="21.5" y1="995.483" x2="1238.865" y2="995.483" style="stroke:#7C93A8;stroke-width:1;stroke-dasharray:2,2;"/><text x="26.5" y="1013.527" fill="#000" font-size="14" textLength="67.074" font-weight="700">[上传头像]</text><polygon points="341.885,1040.724,351.885,1044.724,341.885,1048.724,345.885,1044.724" fill="#315A7D" style="stroke:#315A7D;stroke-width:1;stroke-linejoin:miter;stroke-miterlimit:10;"/><line x1="37.5" y1="1044.724" x2="347.885" y2="1044.724" style="stroke:#315A7D;stroke-width:1.2;"/><text x="44.5" y="1039.647" fill="#000" font-size="14" textLength="15.572" font-weight="700">23</text><text x="64.072" y="1039.647" fill="#000" font-size="14" textLength="239.661">UploadAvatarHandler(multipart avatar)</text><polygon points="1210.865,1073.844,1220.865,1077.844,1210.865,1081.844,1214.865,1077.844" fill="#315A7D" style="stroke:#315A7D;stroke-width:1;stroke-linejoin:miter;stroke-miterlimit:10;"/><line x1="353.885" y1="1077.844" x2="1216.865" y2="1077.844" style="stroke:#315A7D;stroke-width:1.2;"/><text x="360.885" y="1072.768" fill="#000" font-size="14" textLength="15.572" font-weight="700">24</text><text x="380.457" y="1072.768" fill="#000" font-size="14" textLength="199.958">os.MkdirAll / os.Create / io.Copy</text><polygon points="364.885,1106.964,354.885,1110.964,364.885,1114.964,360.885,1110.964" fill="#315A7D" style="stroke:#315A7D;stroke-width:1;stroke-linejoin:miter;stroke-miterlimit:10;"/><line x1="358.885" y1="1110.964" x2="1221.865" y2="1110.964" style="stroke:#315A7D;stroke-width:1.2;stroke-dasharray:2,2;"/><text x="370.885" y="1105.888" fill="#000" font-size="14" textLength="15.572" font-weight="700">25</text><text x="390.457" y="1105.888" fill="#000" font-size="14" textLength="108.938">avatarPath / error</text><polygon points="1015.151,1140.084,1025.151,1144.084,1015.151,1148.084,1019.151,1144.084" fill="#315A7D" style="stroke:#315A7D;stroke-width:1;stroke-linejoin:miter;stroke-miterlimit:10;"/><line x1="353.885" y1="1144.084" x2="1021.151" y2="1144.084" style="stroke:#315A7D;stroke-width:1.2;"/><text x="360.885" y="1139.008" fill="#000" font-size="14" textLength="15.572" font-weight="700">26</text><text x="380.457" y="1139.008" fill="#000" font-size="14" textLength="319.628">Model(&amp;model.User{}).Update("avatar", avatarURL)</text><polygon points="364.885,1173.204,354.885,1177.204,364.885,1181.204,360.885,1177.204" fill="#315A7D" style="stroke:#315A7D;stroke-width:1;stroke-linejoin:miter;stroke-miterlimit:10;"/><line x1="358.885" y1="1177.204" x2="1026.151" y2="1177.204" style="stroke:#315A7D;stroke-width:1.2;stroke-dasharray:2,2;"/><text x="370.885" y="1172.128" fill="#000" font-size="14" textLength="15.572" font-weight="700">27</text><text x="390.457" y="1172.128" fill="#000" font-size="14" textLength="34.234">result</text><polygon points="48.5,1206.324,38.5,1210.324,48.5,1214.324,44.5,1210.324" fill="#315A7D" style="stroke:#315A7D;stroke-width:1;stroke-linejoin:miter;stroke-miterlimit:10;"/><line x1="42.5" y1="1210.324" x2="352.885" y2="1210.324" style="stroke:#315A7D;stroke-width:1.2;stroke-dasharray:2,2;"/><text x="54.5" y="1205.248" fill="#000" font-size="14" textLength="15.572" font-weight="700">28</text><text x="74.072" y="1205.248" fill="#000" font-size="14" textLength="164.186">{avatar: avatarURL} / error</text><?plantuml-src hLDDQnD16BxlhnZt88cqKxq6L9B6i9KihHiMZsMoEssMpkx4cLabb1v4aLgLNgfGBDYYGayMKT5-sJ_JtSHJ_u8psQz42otYPPbvdtUUVPvdvhtY1Gu9NGmWd9eN7UnZs0rzeWbF40ncQtSdMtVkNRy1x6dvwM_inglVuwrNqTfEjBS_-BppQ-SWEbYFtluyErezFNpVttuyE3cE3_REZfvhA1Gq2FqsPXfo16NfSO0uiBKs3GCNiHwGNPtv3WfSWfc2gaQ1XHopKSmsD8S6Wb42BBpeSO5PaovwZiAi75Ab8Aytyxg9ywAfkKYWDk8OwDSMAVDXlQOhe5xJS22zzu3kKnSJQ4i9GqGj91KXs14U3JZGqKF9mS22Hp3lIIt-iA_HqZH418Y_x4RFNce0s63obdHLoIKRYQ4Imm_A4gyQgi4gy0omLBrUgm1JAIbTBGGjhvJX_Gvck0GXBCDfcPSeZHsPPXW9_CUPSpXLmcLeTrtLhQjTW7oiJm15dFIdweUfMfXtmHJ0Z56MIfUmNG5C0Z8K36UN99xl6iWZ6YOovlxcONJyUZIE8U6vMJHJCAisCz69Pptmd2Kb4zm4j_KoR7YCYx-jDbEgjiDwNI53yhk8OGFnJZLmvn3dZoXpIsdd_p4Pl_lOtten-FOqVhCvQjN4cS_2fAdA9PNuJ5rLpSpaENOcm5XVpZeJBD1_KtfwyYdUs1zNQalEv2KKUiDqRoKtOHkNU9EwvwOtax3nb8KhXdejqMWCHOP4fAoNrVrZxVHeE_hmDNgoFgwRKEHMXnEPQVSbkoVlN81aKWi3ZLO5K0xD9TTZLKBah-Gk6HcvzgXyBDsUx6wqSh49nHmIdP70BuWZ6wlah1ogP65RpOkJM4vwAyMPbVp7E71_0m00?></g></svg>