<svg xmlns="http://www.w3.org/2000/svg" xmlns:xlink="http://www.w3.org/1999/xlink" version="1.1" data-diagram-type="SEQUENCE" style="width:1292px;height:1349px;background:#FFFFFF;" width="1292px" height="1349px" viewBox="0 0 1292 1349" zoomAndPan="magnify" preserveAspectRatio="none" contentStyleType="text/css"><?plantuml 1.2026.7?><defs/><g font-family="sans-serif" lengthAdjust="spacing"><g class="title" data-source-line="2"><text x="476.096" y="31.044" fill="#000" font-size="14" textLength="338.721" font-weight="700">OBJ-SEQ07 UC07 关注关系对象顺序图（代码追溯）</text></g><rect x="366.995" y="241.601" width="404.688" height="325.321" fill="none" style="stroke:#7C93A8;stroke-width:1.5;" rx="5" ry="5"/><rect x="366.995" y="982.363" width="404.688" height="218.841" fill="none" style="stroke:#7C93A8;stroke-width:1.5;" rx="5" ry="5"/><g><title>..</title><rect x="34" y="130.24" width="8" height="1128.084" fill="#000" fill-opacity="0"/><line x1="37.5" y1="130.24" x2="37.5" y2="1258.324" style="stroke:#7C93A8;stroke-width:0.5;stroke-dasharray:5,5;"/></g><g><title>relationship_handler</title><rect x="379.495" y="130.24" width="8" height="1128.084" fill="#000" fill-opacity="0"/><line x1="382.995" y1="130.24" x2="382.995" y2="1258.324" style="stroke:#7C93A8;stroke-width:0.5;stroke-dasharray:5,5;"/></g><g><title>.gorm.DB</title><rect x="752.184" y="130.24" width="8" height="1128.084" fill="#000" fill-opacity="0"/><line x1="755.684" y1="130.24" x2="755.684" y2="1258.324" style="stroke:#7C93A8;stroke-width:0.5;stroke-dasharray:5,5;"/></g><g><title>model.User</title><rect x="837.59" y="130.24" width="8" height="1128.084" fill="#000" fill-opacity="0"/><line x1="841.09" y1="130.24" x2="841.09" y2="1258.324" style="stroke:#7C93A8;stroke-width:0.5;stroke-dasharray:5,5;"/></g><g><title>model.Follow</title><rect x="930.618" y="130.24" width="8" height="1128.084" fill="#000" fill-opacity="0"/><line x1="934.118" y1="130.24" x2="934.118" y2="1258.324" style="stroke:#7C93A8;stroke-width:0.5;stroke-dasharray:5,5;"/></g><g><title>model.UserBlock</title><rect x="1040.762" y="130.24" width="8" height="1128.084" fill="#000" fill-opacity="0"/><line x1="1044.262" y1="130.24" x2="1044.262" y2="1258.324" style="stroke:#7C93A8;stroke-width:0.5;stroke-dasharray:5,5;"/></g><g><title>model.CreatorSubscription</title><rect x="1192.541" y="130.24" width="8" height="1128.084" fill="#000" fill-opacity="0"/><line x1="1196.041" y1="130.24" x2="1196.041" y2="1258.324" style="stroke:#7C93A8;stroke-width:0.5;stroke-dasharray:5,5;"/></g><text x="20.5" y="127.164" fill="#000" font-size="14" textLength="28">用户</text><ellipse cx="37.5" cy="66.62" rx="16" ry="16" fill="#EAF3FA" style="stroke:#315A7D;stroke-width:0.5;"/><path d="M37.5,86.62 C41.5,86.62 44.5,86.62 48.5,82.62 C56.5,82.62 64.5,90.62 64.5,98.62 L64.5,102.62 C64.5,106.62 60.5,110.62 56.5,110.62 L18.5,110.62 C14.5,110.62 10.5,106.62 10.5,102.62 L10.5,98.62 C10.5,90.62 18.5,82.62 26.5,82.62 C30.5,86.62 33.5,86.62 37.5,86.62" style="stroke:#315A7D;stroke-width:0.5;" fill="#EAF3FA"/><text x="316.951" y="127.164" fill="#000" font-size="14" textLength="126.089">relationship_handler</text><path d="M362.495,83.12 L362.495,107.12 M362.495,95.12 L379.495,95.12" style="stroke:#181818;stroke-width:0.5;" fill="none"/><ellipse cx="391.495" cy="95.12" rx="12" ry="12" fill="#E2E2F0" style="stroke:#181818;stroke-width:0.5;"/><ellipse cx="724.566" cy="122.74" rx="2.5" ry="2.5" fill="#000"/><text x="731.066" y="127.164" fill="#000" font-size="14" textLength="55.234">gorm.DB</text><path d="M737.684,75.12 C737.684,65.12 755.684,65.12 755.684,65.12 C755.684,65.12 773.684,65.12 773.684,75.12 L773.684,101.12 C773.684,111.12 755.684,111.12 755.684,111.12 C755.684,111.12 737.684,111.12 737.684,101.12 L737.684,75.12" style="stroke:#A56B00;stroke-width:0.5;" fill="#FFF8E8"/><path d="M737.684,75.12 C737.684,85.12 755.684,85.12 755.684,85.12 C755.684,85.12 773.684,85.12 773.684,75.12" style="stroke:#A56B00;stroke-width:0.5;" fill="none"/><text x="802.301" y="127.164" fill="#000" font-size="14" textLength="71.579">model.User</text><ellipse cx="841.09" cy="95.12" rx="12" ry="12" fill="#E2E2F0" style="stroke:#181818;stroke-width:0.5;"/><line x1="829.09" y1="109.12" x2="853.09" y2="109.12" style="stroke:#181818;stroke-width:0.5;"/><text x="889.88" y="127.164" fill="#000" font-size="14" textLength="82.476">model.Follow</text><ellipse cx="934.118" cy="95.12" rx="12" ry="12" fill="#E2E2F0" style="stroke:#181818;stroke-width:0.5;"/><line x1="922.118" y1="109.12" x2="946.118" y2="109.12" style="stroke:#181818;stroke-width:0.5;"/><text x="988.355" y="127.164" fill="#000" font-size="14" textLength="105.813">model.UserBlock</text><ellipse cx="1044.262" cy="95.12" rx="12" ry="12" fill="#E2E2F0" style="stroke:#181818;stroke-width:0.5;"/><line x1="1032.262" y1="109.12" x2="1056.262" y2="109.12" style="stroke:#181818;stroke-width:0.5;"/><text x="1110.169" y="127.164" fill="#000" font-size="14" textLength="165.744">model.CreatorSubscription</text><ellipse cx="1196.041" cy="95.12" rx="12" ry="12" fill="#E2E2F0" style="stroke:#181818;stroke-width:0.5;"/><line x1="1184.041" y1="109.12" x2="1208.041" y2="109.12" style="stroke:#181818;stroke-width:0.5;"/><text x="20.5" y="1274.368" fill="#000" font-size="14" textLength="28">用户</text><ellipse cx="37.5" cy="1293.944" rx="16" ry="16" fill="#EAF3FA" style="stroke:#315A7D;stroke-width:0.5;"/><path d="M37.5,1313.944 C41.5,1313.944 44.5,1313.944 48.5,1309.944 C56.5,1309.944 64.5,1317.944 64.5,1325.944 L64.5,1329.944 C64.5,1333.944 60.5,1337.944 56.5,1337.944 L18.5,1337.944 C14.5,1337.944 10.5,1333.944 10.5,1329.944 L10.5,1325.944 C10.5,1317.944 18.5,1309.944 26.5,1309.944 C30.5,1313.944 33.5,1313.944 37.5,1313.944" style="stroke:#315A7D;stroke-width:0.5;" fill="#EAF3FA"/><text x="316.951" y="1274.368" fill="#000" font-size="14" textLength="126.089">relationship_handler</text><path d="M362.495,1281.444 L362.495,1305.444 M362.495,1293.444 L379.495,1293.444" style="stroke:#181818;stroke-width:0.5;" fill="none"/><ellipse cx="391.495" cy="1293.444" rx="12" ry="12" fill="#E2E2F0" style="stroke:#181818;stroke-width:0.5;"/><ellipse cx="724.566" cy="1269.944" rx="2.5" ry="2.5" fill="#000"/><text x="731.066" y="1274.368" fill="#000" font-size="14" textLength="55.234">gorm.DB</text><path d="M737.684,1287.444 C737.684,1277.444 755.684,1277.444 755.684,1277.444 C755.684,1277.444 773.684,1277.444 773.684,1287.444 L773.684,1313.444 C773.684,1323.444 755.684,1323.444 755.684,1323.444 C755.684,1323.444 737.684,1323.444 737.684,1313.444 L737.684,1287.444" style="stroke:#A56B00;stroke-width:0.5;" fill="#FFF8E8"/><path d="M737.684,1287.444 C737.684,1297.444 755.684,1297.444 755.684,1297.444 C755.684,1297.444 773.684,1297.444 773.684,1287.444" style="stroke:#A56B00;stroke-width:0.5;" fill="none"/><text x="802.301" y="1274.368" fill="#000" font-size="14" textLength="71.579">model.User</text><ellipse cx="841.09" cy="1293.444" rx="12" ry="12" fill="#E2E2F0" style="stroke:#181818;stroke-width:0.5;"/><line x1="829.09" y1="1307.444" x2="853.09" y2="1307.444" style="stroke:#181818;stroke-width:0.5;"/><text x="889.88" y="1274.368" fill="#000" font-size="14" textLength="82.476">model.Follow</text><ellipse cx="934.118" cy="1293.444" rx="12" ry="12" fill="#E2E2F0" style="stroke:#181818;stroke-width:0.5;"/><line x1="922.118" y1="1307.444" x2="946.118" y2="1307.444" style="stroke:#181818;stroke-width:0.5;"/><text x="988.355" y="1274.368" fill="#000" font-size="14" textLength="105.813">model.UserBlock</text><ellipse cx="1044.262" cy="1293.444" rx="12" ry="12" fill="#E2E2F0" style="stroke:#181818;stroke-width:0.5;"/><line x1="1032.262" y1="1307.444" x2="1056.262" y2="1307.444" style="stroke:#181818;stroke-width:0.5;"/><text x="1110.169" y="1274.368" fill="#000" font-size="14" textLength="165.744">model.CreatorSubscription</text><ellipse cx="1196.041" cy="1293.444" rx="12" ry="12" fill="#E2E2F0" style="stroke:#181818;stroke-width:0.5;"/><line x1="1184.041" y1="1307.444" x2="1208.041" y2="1307.444" style="stroke:#181818;stroke-width:0.5;"/><polygon points="370.995,159.36,380.995,163.36,370.995,167.36,374.995,163.36" fill="#315A7D" style="stroke:#315A7D;stroke-width:1;stroke-linejoin:miter;stroke-miterlimit:10;"/><line x1="37.5" y1="163.36" x2="376.995" y2="163.36" style="stroke:#315A7D;stroke-width:1.2;"/><text x="44.5" y="158.284" fill="#000" font-size="14" font-weight="700">1</text><text x="56.286" y="158.284" fill="#000" font-size="14" textLength="148.606">FollowHandler(targetID)</text><polygon points="743.684,192.48,753.684,196.48,743.684,200.48,747.684,196.48" fill="#315A7D" style="stroke:#315A7D;stroke-width:1;stroke-linejoin:miter;stroke-miterlimit:10;"/><line x1="382.995" y1="196.48" x2="749.684" y2="196.48" style="stroke:#315A7D;stroke-width:1.2;"/><text x="389.995" y="191.404" fill="#000" font-size="14" font-weight="700">2</text><text x="401.781" y="191.404" fill="#000" font-size="14" textLength="257.346">Select("id").First(&amp;model.User{}, targetID)</text><polygon points="743.684,225.601,753.684,229.601,743.684,233.601,747.684,229.601" fill="#315A7D" style="stroke:#315A7D;stroke-width:1;stroke-linejoin:miter;stroke-miterlimit:10;"/><line x1="382.995" y1="229.601" x2="749.684" y2="229.601" style="stroke:#315A7D;stroke-width:1.2;"/><text x="389.995" y="224.524" fill="#000" font-size="14" font-weight="700">3</text><text x="401.781" y="224.524" fill="#000" font-size="14" textLength="222.53">Model(&amp;model.UserBlock{}).Count()</text><path d="M371.995,241.601 L428.333,241.601 L428.333,252.721 L418.333,262.721 L366.995,262.721 L366.995,246.601 A5,5 0 0 1 371.995,241.601" style="stroke:#7C93A8;stroke-width:1.5;" fill="#F3F7FA"/><rect x="366.995" y="241.601" width="404.688" height="325.321" fill="none" style="stroke:#7C93A8;stroke-width:1.5;" rx="5" ry="5"/><text x="381.995" y="258.645" fill="#000" font-size="14" textLength="16.338" font-weight="700">alt</text><text x="443.333" y="259.645" fill="#000" font-size="14" textLength="81.512" font-weight="700">[已存在关注]</text><polygon points="743.684,297.961,753.684,301.961,743.684,305.961,747.684,301.961" fill="#315A7D" style="stroke:#315A7D;stroke-width:1;stroke-linejoin:miter;stroke-miterlimit:10;"/><line x1="382.995" y1="301.961" x2="749.684" y2="301.961" style="stroke:#315A7D;stroke-width:1.2;"/><text x="389.995" y="296.885" fill="#000" font-size="14" font-weight="700">4</text><text x="401.781" y="296.885" fill="#000" font-size="14" textLength="336.902">Where(follower_id, followee_id).First(&amp;model.Follow{})</text><polygon points="743.684,331.081,753.684,335.081,743.684,339.081,747.684,335.081" fill="#315A7D" style="stroke:#315A7D;stroke-width:1;stroke-linejoin:miter;stroke-miterlimit:10;"/><line x1="382.995" y1="335.081" x2="749.684" y2="335.081" style="stroke:#315A7D;stroke-width:1.2;"/><text x="389.995" y="330.005" fill="#000" font-size="14" font-weight="700">5</text><text x="401.781" y="330.005" fill="#000" font-size="14" textLength="282.461">Model(&amp;model.CreatorSubscription{}).Count()</text><polygon points="743.684,364.201,753.684,368.201,743.684,372.201,747.684,368.201" fill="#315A7D" style="stroke:#315A7D;stroke-width:1;stroke-linejoin:miter;stroke-miterlimit:10;"/><line x1="382.995" y1="368.201" x2="749.684" y2="368.201" style="stroke:#315A7D;stroke-width:1.2;"/><text x="389.995" y="363.125" fill="#000" font-size="14" font-weight="700">6</text><text x="401.781" y="363.125" fill="#000" font-size="14" textLength="171.179">Unscoped().Delete(&amp;follow)</text><polygon points="743.684,397.321,753.684,401.321,743.684,405.321,747.684,401.321" fill="#315A7D" style="stroke:#315A7D;stroke-width:1;stroke-linejoin:miter;stroke-miterlimit:10;"/><line x1="382.995" y1="401.321" x2="749.684" y2="401.321" style="stroke:#315A7D;stroke-width:1.2;"/><text x="389.995" y="396.245" fill="#000" font-size="14" font-weight="700">7</text><text x="401.781" y="396.245" fill="#000" font-size="14" textLength="210.704">UpdateColumn("follow_count", -1)</text><polygon points="743.684,430.441,753.684,434.441,743.684,438.441,747.684,434.441" fill="#315A7D" style="stroke:#315A7D;stroke-width:1;stroke-linejoin:miter;stroke-miterlimit:10;"/><line x1="382.995" y1="434.441" x2="749.684" y2="434.441" style="stroke:#315A7D;stroke-width:1.2;"/><text x="389.995" y="429.365" fill="#000" font-size="14" font-weight="700">8</text><text x="401.781" y="429.365" fill="#000" font-size="14" textLength="194.373">UpdateColumn("fan_count", -1)</text><line x1="366.995" y1="443.441" x2="771.684" y2="443.441" style="stroke:#7C93A8;stroke-width:1;stroke-dasharray:2,2;"/><text x="371.995" y="461.485" fill="#000" font-size="14" textLength="67.074" font-weight="700">[尚未关注]</text><polygon points="743.684,488.682,753.684,492.682,743.684,496.682,747.684,492.682" fill="#315A7D" style="stroke:#315A7D;stroke-width:1;stroke-linejoin:miter;stroke-miterlimit:10;"/><line x1="382.995" y1="492.682" x2="749.684" y2="492.682" style="stroke:#315A7D;stroke-width:1.2;"/><text x="389.995" y="487.605" fill="#000" font-size="14" font-weight="700">9</text><text x="401.781" y="487.605" fill="#000" font-size="14" textLength="297.22">Create(&amp;model.Follow{FollowerID, FolloweeID})</text><polygon points="743.684,521.802,753.684,525.802,743.684,529.802,747.684,525.802" fill="#315A7D" style="stroke:#315A7D;stroke-width:1;stroke-linejoin:miter;stroke-miterlimit:10;"/><line x1="382.995" y1="525.802" x2="749.684" y2="525.802" style="stroke:#315A7D;stroke-width:1.2;"/><text x="389.995" y="520.726" fill="#000" font-size="14" textLength="15.572" font-weight="700">10</text><text x="409.567" y="520.726" fill="#000" font-size="14" textLength="214.218">UpdateColumn("follow_count", +1)</text><polygon points="743.684,554.922,753.684,558.922,743.684,562.922,747.684,558.922" fill="#315A7D" style="stroke:#315A7D;stroke-width:1;stroke-linejoin:miter;stroke-miterlimit:10;"/><line x1="382.995" y1="558.922" x2="749.684" y2="558.922" style="stroke:#315A7D;stroke-width:1.2;"/><text x="389.995" y="553.846" fill="#000" font-size="14" textLength="15.572" font-weight="700">11</text><text x="409.567" y="553.846" fill="#000" font-size="14" textLength="197.887">UpdateColumn("fan_count", +1)</text><polygon points="48.5,602.042,38.5,606.042,48.5,610.042,44.5,606.042" fill="#315A7D" style="stroke:#315A7D;stroke-width:1;stroke-linejoin:miter;stroke-miterlimit:10;"/><line x1="42.5" y1="606.042" x2="381.995" y2="606.042" style="stroke:#315A7D;stroke-width:1.2;stroke-dasharray:2,2;"/><text x="54.5" y="600.966" fill="#000" font-size="14" textLength="15.572" font-weight="700">12</text><text x="74.072" y="600.966" fill="#000" font-size="14" textLength="94.965">{followed: bool}</text><polygon points="370.995,635.162,380.995,639.162,370.995,643.162,374.995,639.162" fill="#315A7D" style="stroke:#315A7D;stroke-width:1;stroke-linejoin:miter;stroke-miterlimit:10;"/><line x1="37.5" y1="639.162" x2="376.995" y2="639.162" style="stroke:#315A7D;stroke-width:1.2;"/><text x="44.5" y="634.086" fill="#000" font-size="14" textLength="15.572" font-weight="700">13</text><text x="64.072" y="634.086" fill="#000" font-size="14" textLength="214.758">CreateFollowGroupHandler(name)</text><polygon points="743.684,668.282,753.684,672.282,743.684,676.282,747.684,672.282" fill="#315A7D" style="stroke:#315A7D;stroke-width:1;stroke-linejoin:miter;stroke-miterlimit:10;"/><line x1="382.995" y1="672.282" x2="749.684" y2="672.282" style="stroke:#315A7D;stroke-width:1.2;"/><text x="389.995" y="667.206" fill="#000" font-size="14" textLength="15.572" font-weight="700">14</text><text x="409.567" y="667.206" fill="#000" font-size="14" textLength="291.778">Create(&amp;model.FollowGroup{OwnerID, Name})</text><polygon points="393.995,701.402,383.995,705.402,393.995,709.402,389.995,705.402" fill="#315A7D" style="stroke:#315A7D;stroke-width:1;stroke-linejoin:miter;stroke-miterlimit:10;"/><line x1="387.995" y1="705.402" x2="754.684" y2="705.402" style="stroke:#315A7D;stroke-width:1.2;stroke-dasharray:2,2;"/><text x="399.995" y="700.326" fill="#000" font-size="14" textLength="15.572" font-weight="700">15</text><text x="419.567" y="700.326" fill="#000" font-size="14" textLength="77.034">group / error</text><polygon points="48.5,734.522,38.5,738.522,48.5,742.522,44.5,738.522" fill="#315A7D" style="stroke:#315A7D;stroke-width:1;stroke-linejoin:miter;stroke-miterlimit:10;"/><line x1="42.5" y1="738.522" x2="381.995" y2="738.522" style="stroke:#315A7D;stroke-width:1.2;stroke-dasharray:2,2;"/><text x="54.5" y="733.446" fill="#000" font-size="14" textLength="15.572" font-weight="700">16</text><text x="74.072" y="733.446" fill="#000" font-size="14" textLength="98.055">followGroupInfo</text><polygon points="370.995,767.643,380.995,771.643,370.995,775.643,374.995,771.643" fill="#315A7D" style="stroke:#315A7D;stroke-width:1;stroke-linejoin:miter;stroke-miterlimit:10;"/><line x1="37.5" y1="771.643" x2="376.995" y2="771.643" style="stroke:#315A7D;stroke-width:1.2;"/><text x="44.5" y="766.566" fill="#000" font-size="14" textLength="15.572" font-weight="700">17</text><text x="64.072" y="766.566" fill="#000" font-size="14" textLength="301.923">UpdateFollowSettingsHandler(targetID, groupID)</text><polygon points="743.684,800.763,753.684,804.763,743.684,808.763,747.684,804.763" fill="#315A7D" style="stroke:#315A7D;stroke-width:1;stroke-linejoin:miter;stroke-miterlimit:10;"/><line x1="382.995" y1="804.763" x2="749.684" y2="804.763" style="stroke:#315A7D;stroke-width:1.2;"/><text x="389.995" y="799.687" fill="#000" font-size="14" textLength="15.572" font-weight="700">18</text><text x="409.567" y="799.687" fill="#000" font-size="14" textLength="238.103">Model(&amp;model.FollowGroup{}).Count()</text><polygon points="743.684,833.883,753.684,837.883,743.684,841.883,747.684,837.883" fill="#315A7D" style="stroke:#315A7D;stroke-width:1;stroke-linejoin:miter;stroke-miterlimit:10;"/><line x1="382.995" y1="837.883" x2="749.684" y2="837.883" style="stroke:#315A7D;stroke-width:1.2;"/><text x="389.995" y="832.807" fill="#000" font-size="14" textLength="15.572" font-weight="700">19</text><text x="409.567" y="832.807" fill="#000" font-size="14" textLength="268.468">Model(&amp;model.Follow{}).Updates(group_id)</text><polygon points="393.995,867.003,383.995,871.003,393.995,875.003,389.995,871.003" fill="#315A7D" style="stroke:#315A7D;stroke-width:1;stroke-linejoin:miter;stroke-miterlimit:10;"/><line x1="387.995" y1="871.003" x2="754.684" y2="871.003" style="stroke:#315A7D;stroke-width:1.2;stroke-dasharray:2,2;"/><text x="399.995" y="865.927" fill="#000" font-size="14" textLength="15.572" font-weight="700">20</text><text x="419.567" y="865.927" fill="#000" font-size="14" textLength="86.372">RowsAffected</text><polygon points="48.5,900.123,38.5,904.123,48.5,908.123,44.5,904.123" fill="#315A7D" style="stroke:#315A7D;stroke-width:1;stroke-linejoin:miter;stroke-miterlimit:10;"/><line x1="42.5" y1="904.123" x2="381.995" y2="904.123" style="stroke:#315A7D;stroke-width:1.2;stroke-dasharray:2,2;"/><text x="54.5" y="899.047" fill="#000" font-size="14" textLength="15.572" font-weight="700">21</text><text x="74.072" y="899.047" fill="#000" font-size="14" textLength="147.041">response.Ok / 请先关注</text><polygon points="370.995,933.243,380.995,937.243,370.995,941.243,374.995,937.243" fill="#315A7D" style="stroke:#315A7D;stroke-width:1;stroke-linejoin:miter;stroke-miterlimit:10;"/><line x1="37.5" y1="937.243" x2="376.995" y2="937.243" style="stroke:#315A7D;stroke-width:1.2;"/><text x="44.5" y="932.167" fill="#000" font-size="14" textLength="15.572" font-weight="700">22</text><text x="64.072" y="932.167" fill="#000" font-size="14" textLength="142.386">BlockHandler(targetID)</text><polygon points="743.684,966.363,753.684,970.363,743.684,974.363,747.684,970.363" fill="#315A7D" style="stroke:#315A7D;stroke-width:1;stroke-linejoin:miter;stroke-miterlimit:10;"/><line x1="382.995" y1="970.363" x2="749.684" y2="970.363" style="stroke:#315A7D;stroke-width:1.2;"/><text x="389.995" y="965.287" fill="#000" font-size="14" textLength="15.572" font-weight="700">23</text><text x="409.567" y="965.287" fill="#000" font-size="14" textLength="193.717">Transaction(func(tx *gorm.DB))</text><path d="M371.995,982.363 L428.333,982.363 L428.333,993.483 L418.333,1003.483 L366.995,1003.483 L366.995,987.363 A5,5 0 0 1 371.995,982.363" style="stroke:#7C93A8;stroke-width:1.5;" fill="#F3F7FA"/><rect x="366.995" y="982.363" width="404.688" height="218.841" fill="none" style="stroke:#7C93A8;stroke-width:1.5;" rx="5" ry="5"/><text x="381.995" y="999.407" fill="#000" font-size="14" textLength="16.338" font-weight="700">alt</text><text x="443.333" y="1000.407" fill="#000" font-size="14" textLength="67.074" font-weight="700">[尚未屏蔽]</text><polygon points="743.684,1038.724,753.684,1042.724,743.684,1046.724,747.684,1042.724" fill="#315A7D" style="stroke:#315A7D;stroke-width:1;stroke-linejoin:miter;stroke-miterlimit:10;"/><line x1="382.995" y1="1042.724" x2="749.684" y2="1042.724" style="stroke:#315A7D;stroke-width:1.2;"/><text x="389.995" y="1037.647" fill="#000" font-size="14" textLength="15.572" font-weight="700">24</text><text x="409.567" y="1037.647" fill="#000" font-size="14" textLength="308.116">Create(&amp;model.UserBlock{BlockerID, BlockedID})</text><line x1="382.995" y1="1075.844" x2="424.995" y2="1075.844" style="stroke:#315A7D;stroke-width:1.2;"/><line x1="424.995" y1="1075.844" x2="424.995" y2="1088.844" style="stroke:#315A7D;stroke-width:1.2;"/><line x1="383.995" y1="1088.844" x2="424.995" y2="1088.844" style="stroke:#315A7D;stroke-width:1.2;"/><polygon points="393.995,1084.844,383.995,1088.844,393.995,1092.844,389.995,1088.844" fill="#315A7D" style="stroke:#315A7D;stroke-width:1;stroke-linejoin:miter;stroke-miterlimit:10;"/><text x="389.995" y="1070.768" fill="#000" font-size="14" textLength="15.572" font-weight="700">25</text><text x="409.567" y="1070.768" fill="#000" font-size="14" textLength="213.944">removeFollow(tx, userID, targetID)</text><line x1="382.995" y1="1121.964" x2="424.995" y2="1121.964" style="stroke:#315A7D;stroke-width:1.2;"/><line x1="424.995" y1="1121.964" x2="424.995" y2="1134.964" style="stroke:#315A7D;stroke-width:1.2;"/><line x1="383.995" y1="1134.964" x2="424.995" y2="1134.964" style="stroke:#315A7D;stroke-width:1.2;"/><polygon points="393.995,1130.964,383.995,1134.964,393.995,1138.964,389.995,1134.964" fill="#315A7D" style="stroke:#315A7D;stroke-width:1;stroke-linejoin:miter;stroke-miterlimit:10;"/><text x="389.995" y="1116.888" fill="#000" font-size="14" textLength="15.572" font-weight="700">26</text><text x="409.567" y="1116.888" fill="#000" font-size="14" textLength="213.944">removeFollow(tx, targetID, userID)</text><line x1="366.995" y1="1143.964" x2="771.684" y2="1143.964" style="stroke:#7C93A8;stroke-width:1;stroke-dasharray:2,2;"/><text x="371.995" y="1162.008" fill="#000" font-size="14" textLength="52.637" font-weight="700">[已屏蔽]</text><polygon points="743.684,1189.204,753.684,1193.204,743.684,1197.204,747.684,1193.204" fill="#315A7D" style="stroke:#315A7D;stroke-width:1;stroke-linejoin:miter;stroke-miterlimit:10;"/><line x1="382.995" y1="1193.204" x2="749.684" y2="1193.204" style="stroke:#315A7D;stroke-width:1.2;"/><text x="389.995" y="1188.128" fill="#000" font-size="14" textLength="15.572" font-weight="700">27</text><text x="409.567" y="1188.128" fill="#000" font-size="14" textLength="181.303">Unscoped().Delete(&amp;relation)</text><polygon points="48.5,1236.324,38.5,1240.324,48.5,1244.324,44.5,1240.324" fill="#315A7D" style="stroke:#315A7D;stroke-width:1;stroke-linejoin:miter;stroke-miterlimit:10;"/><line x1="42.5" y1="1240.324" x2="381.995" y2="1240.324" style="stroke:#315A7D;stroke-width:1.2;stroke-dasharray:2,2;"/><text x="54.5" y="1235.248" fill="#000" font-size="14" textLength="15.572" font-weight="700">28</text><text x="74.072" y="1235.248" fill="#000" font-size="14" textLength="91.854">{blocked: bool}</text><?plantuml-src ZLHDRzD04BtxLom-L0waBfoGSa0YCIL1WWf2n37Qs9F4wdhNMgyfLPG3Xqhbr4iF27gWub8XeL1ogEW7_1cSXbF_0hjUft7JDEfbjVQycNqpysRk-DGbiGV8jbUQeWi1s64S44FuWW1QApzRhZzvUVyXQbJaaMmDHyC3UPuFJvB1h_7X_h_zu-Hu9_dy--9q--_9r_ClxyT_paR7WulJ3mQE1QDnq09kO5SmZivt3qRRHmX7g66qM4mzp3SH1uA5psZKzSDc5rEF05UGgk5XWLiu0cJUxJ0Us4xPL0QdR02Lz3QH6J0FYDs8WASMTPcnhJ92s4PgrTSvlcN2tFKKajvc41KEM9Alnwt8vNwegAPO-SDeeEL7g5hAGbSrUKjWtW5HSmf6LTcTSWdLWO0hBDFtp8AzwlD8M4jJ0hr-4SrnUgu0ULnAhzSls1LPF64L34m4Iev-9jy_9di7kZa6GfS1tdI1WzLEoG5l-buHPHyWFsQ8w1naz7o4AnJcL29F9kVMe97BGl2iWkt8p0LOI_hXgwXGTXWgZCG1jKmDQBegcbb4omyMOJ6z0WGYLPBy-3JQ-tQz2Ybjc4bpDIjApIbctGEeEVtRyxjtMtuA2DHJRPNOHWdriXvu9THYZFGlLQI9QZPFEOl3YQ0e3Y2dYta9fVZUsWRLARsG7Z8Pfvm-AcDtb1sj8E2SyIcNzjIvHjliaefEHuUkWn0-xKIpyYxge3TBDiyifvD5O8NJRqTM6btfD9V6AxOHFMwtvIn1hg8Seb0k4B3NrcMAuy5HihMTwM2IK3ew2mRqDSSqabjAQjfgnzIrn3iqsJg5RD2qlWvtnhjdD-jhEgVfgTkXhrvUO5L5Es1lioBBzueeZZHyocy1UDe6xJQP0haEhb6SCu-JjJihpfQcccdpFm00?></g></svg>