<svg xmlns="http://www.w3.org/2000/svg" xmlns:xlink="http://www.w3.org/1999/xlink" contentStyleType="text/css" data-diagram-type="SEQUENCE" height="1335px" preserveAspectRatio="none" style="width:2441px;height:1335px;background:#FFFFFF;" version="1.1" viewBox="0 0 2441 1335" width="2441px" zoomAndPan="magnify"><title>OBJ-SEQ13 UC13 &#23545;&#35937;&#32423;&#39034;&#24207;&#22270;&#65288;&#20195;&#34920;&#27969;&#31243;&#65306;&#31649;&#29702;&#21592;&#20462;&#25913;&#29992;&#25143;&#35282;&#33394;&#65289;</title><defs/><g><text fill="#000000" font-family="sans-serif" font-size="14" font-weight="bold" lengthAdjust="spacing" textLength="432.8305" x="1005.328" y="29.9659">OBJ-SEQ13 UC13 &#23545;&#35937;&#32423;&#39034;&#24207;&#22270;&#65288;&#20195;&#34920;&#27969;&#31243;&#65306;&#31649;&#29702;&#21592;&#20462;&#25913;&#29992;&#25143;&#35282;&#33394;&#65289;</text><rect fill="none" height="994.402" style="stroke:#000000;stroke-width:1.5;" width="2424.4864" x="10" y="317.3719"/><rect fill="none" height="816.8901" style="stroke:#000000;stroke-width:1.5;" width="2404.4864" x="20" y="487.8839"/><rect fill="none" height="594.6721" style="stroke:#000000;stroke-width:1.5;" width="2384.4864" x="30" y="703.1019"/><rect fill="none" height="353.7481" style="stroke:#000000;stroke-width:1.5;" width="2364.4864" x="40" y="937.0259"/><g><title>...</title><rect fill="#000000" fill-opacity="0.00000" height="1204.6381" width="8" x="70" y="124.1358"/><line style="stroke:#181818;stroke-width:0.5;stroke-dasharray:5,5;" x1="74" x2="74" y1="124.1358" y2="1328.774"/></g><g><title>.AdminUsersPage</title><rect fill="#000000" fill-opacity="0.00000" height="1204.6381" width="8" x="311.0701" y="124.1358"/><line style="stroke:#181818;stroke-width:0.5;stroke-dasharray:5,5;" x1="314.6623" x2="314.6623" y1="124.1358" y2="1328.774"/></g><g><title>.adminApi</title><rect fill="#000000" fill-opacity="0.00000" height="1204.6381" width="8" x="555.7413" y="124.1358"/><line style="stroke:#181818;stroke-width:0.5;stroke-dasharray:5,5;" x1="559.3725" x2="559.3725" y1="124.1358" y2="1328.774"/></g><g><title>.request.Axios.</title><rect fill="#000000" fill-opacity="0.00000" height="1204.6381" width="8" x="807.4845" y="124.1358"/><line style="stroke:#181818;stroke-width:0.5;stroke-dasharray:5,5;" x1="810.5407" x2="810.5407" y1="124.1358" y2="1328.774"/></g><g><title>.GinEngine</title><rect fill="#000000" fill-opacity="0.00000" height="1204.6381" width="8" x="1049.7637" y="124.1358"/><line style="stroke:#181818;stroke-width:0.5;stroke-dasharray:5,5;" x1="1053.0568" x2="1053.0568" y1="124.1358" y2="1328.774"/></g><g><title>.AuthMiddleware</title><rect fill="#000000" fill-opacity="0.00000" height="1204.6381" width="8" x="1231.2938" y="124.1358"/><line style="stroke:#181818;stroke-width:0.5;stroke-dasharray:5,5;" x1="1234.979" x2="1234.979" y1="124.1358" y2="1328.774"/></g><g><title>.AdminMiddleware</title><rect fill="#000000" fill-opacity="0.00000" height="1204.6381" width="8" x="1395.3519" y="124.1358"/><line style="stroke:#181818;stroke-width:0.5;stroke-dasharray:5,5;" x1="1399.2341" x2="1399.2341" y1="124.1358" y2="1328.774"/></g><g><title>.UpdateUserRoleHandler</title><rect fill="#000000" fill-opacity="0.00000" height="1204.6381" width="8" x="1616.493" y="124.1358"/><line style="stroke:#181818;stroke-width:0.5;stroke-dasharray:5,5;" x1="1620.4463" x2="1620.4463" y1="124.1358" y2="1328.774"/></g><g><title>.gorm.DB</title><rect fill="#000000" fill-opacity="0.00000" height="1204.6381" width="8" x="1945.0273" y="124.1358"/><line style="stroke:#181818;stroke-width:0.5;stroke-dasharray:5,5;" x1="1948.6394" x2="1948.6394" y1="124.1358" y2="1328.774"/></g><g><title>.User</title><rect fill="#000000" fill-opacity="0.00000" height="1204.6381" width="8" x="2092.8483" y="124.1358"/><line style="stroke:#181818;stroke-width:0.5;stroke-dasharray:5,5;" x1="2096.6634" x2="2096.6634" y1="124.1358" y2="1328.774"/></g><g><title>.MySQL</title><rect fill="#000000" fill-opacity="0.00000" height="1204.6381" width="8" x="2362.7135" y="124.1358"/><line style="stroke:#181818;stroke-width:0.5;stroke-dasharray:5,5;" x1="2365.9406" x2="2365.9406" y1="124.1358" y2="1328.774"/></g><g class="participant participant-head" data-participant="Admin"><text fill="#000000" font-family="sans-serif" font-size="14" lengthAdjust="spacing" textLength="42" x="50" y="120.0339">&#31649;&#29702;&#21592;</text><ellipse cx="74" cy="53.5679" fill="#E2E2F0" rx="8" ry="8" style="stroke:#181818;stroke-width:0.5;"/><path d="M74,61.5679 L74,88.5679 M61,69.5679 L87,69.5679 M74,88.5679 L61,103.5679 M74,88.5679 L87,103.5679" fill="none" style="stroke:#181818;stroke-width:0.5;"/></g><g class="participant participant-head" data-participant="Page"><text fill="#000000" font-family="sans-serif" font-size="14" lengthAdjust="spacing" textLength="116.8156" x="253.6623" y="120.0339">:AdminUsersPage</text><path d="M294.5701,77.0679 L294.5701,101.0679 M294.5701,89.0679 L311.5701,89.0679" fill="none" style="stroke:#181818;stroke-width:0.5;"/><ellipse cx="323.5701" cy="89.0679" fill="#E2E2F0" rx="12" ry="12" style="stroke:#181818;stroke-width:0.5;"/></g><g class="participant participant-head" data-participant="Api"><text fill="#000000" font-family="sans-serif" font-size="14" lengthAdjust="spacing" textLength="66.7377" x="523.3725" y="120.0339">:adminApi</text><ellipse cx="559.7413" cy="89.0679" fill="#E2E2F0" rx="12" ry="12" style="stroke:#181818;stroke-width:0.5;"/><polygon fill="#181818" points="555.7413,77.0679,561.7413,72.0679,559.7413,77.0679,561.7413,82.0679,555.7413,77.0679" style="stroke:#181818;stroke-width:1;"/></g><g class="participant participant-head" data-participant="Request"><text fill="#000000" font-family="sans-serif" font-size="14" lengthAdjust="spacing" textLength="97.8876" x="759.5407" y="120.0339">:request(Axios)</text><ellipse cx="811.4845" cy="89.0679" fill="#E2E2F0" rx="12" ry="12" style="stroke:#181818;stroke-width:0.5;"/><polygon fill="#181818" points="807.4845,77.0679,813.4845,72.0679,811.4845,77.0679,813.4845,82.0679,807.4845,77.0679" style="stroke:#181818;stroke-width:1;"/></g><g class="participant participant-head" data-participant="Gin"><text fill="#000000" font-family="sans-serif" font-size="14" lengthAdjust="spacing" textLength="71.4137" x="1015.0568" y="120.0339">:GinEngine</text><ellipse cx="1053.7637" cy="89.0679" fill="#E2E2F0" rx="12" ry="12" style="stroke:#181818;stroke-width:0.5;"/><polygon fill="#181818" points="1049.7637,77.0679,1055.7637,72.0679,1053.7637,77.0679,1055.7637,82.0679,1049.7637,77.0679" style="stroke:#181818;stroke-width:1;"/></g><g class="participant participant-head" data-participant="AuthMW"><text fill="#000000" font-family="sans-serif" font-size="14" lengthAdjust="spacing" textLength="112.6296" x="1175.979" y="120.0339">:AuthMiddleware</text><ellipse cx="1235.2938" cy="89.0679" fill="#E2E2F0" rx="12" ry="12" style="stroke:#181818;stroke-width:0.5;"/><polygon fill="#181818" points="1231.2938,77.0679,1237.2938,72.0679,1235.2938,77.0679,1237.2938,82.0679,1231.2938,77.0679" style="stroke:#181818;stroke-width:1;"/></g><g class="participant participant-head" data-participant="AdminMW"><text fill="#000000" font-family="sans-serif" font-size="14" lengthAdjust="spacing" textLength="124.2355" x="1334.2341" y="120.0339">:AdminMiddleware</text><ellipse cx="1399.3519" cy="89.0679" fill="#E2E2F0" rx="12" ry="12" style="stroke:#181818;stroke-width:0.5;"/><polygon fill="#181818" points="1395.3519,77.0679,1401.3519,72.0679,1399.3519,77.0679,1401.3519,82.0679,1395.3519,77.0679" style="stroke:#181818;stroke-width:1;"/></g><g class="participant participant-head" data-participant="Handler"><text fill="#000000" font-family="sans-serif" font-size="14" lengthAdjust="spacing" textLength="164.0934" x="1535.4463" y="120.0339">:UpdateUserRoleHandler</text><ellipse cx="1620.493" cy="89.0679" fill="#E2E2F0" rx="12" ry="12" style="stroke:#181818;stroke-width:0.5;"/><polygon fill="#181818" points="1616.493,77.0679,1622.493,72.0679,1620.493,77.0679,1622.493,82.0679,1616.493,77.0679" style="stroke:#181818;stroke-width:1;"/></g><g class="participant participant-head" data-participant="Gorm"><text fill="#000000" font-family="sans-serif" font-size="14" lengthAdjust="spacing" textLength="62.7758" x="1914.6394" y="120.0339">:gorm.DB</text><ellipse cx="1949.0273" cy="89.0679" fill="#E2E2F0" rx="12" ry="12" style="stroke:#181818;stroke-width:0.5;"/><line style="stroke:#181818;stroke-width:0.5;" x1="1937.0273" x2="1961.0273" y1="103.0679" y2="103.0679"/></g><g class="participant participant-head" data-participant="UserModel"><text fill="#000000" font-family="sans-serif" font-size="14" lengthAdjust="spacing" textLength="34.3699" x="2076.6634" y="120.0339">:User</text><ellipse cx="2096.8483" cy="89.0679" fill="#E2E2F0" rx="12" ry="12" style="stroke:#181818;stroke-width:0.5;"/><line style="stroke:#181818;stroke-width:0.5;" x1="2084.8483" x2="2108.8483" y1="103.0679" y2="103.0679"/></g><g class="participant participant-head" data-participant="MySQL"><text fill="#000000" font-family="sans-serif" font-size="14" lengthAdjust="spacing" textLength="49.5458" x="2338.9406" y="120.0339">:MySQL</text><path d="M2348.7135,69.0679 C2348.7135,59.0679 2366.7135,59.0679 2366.7135,59.0679 C2366.7135,59.0679 2384.7135,59.0679 2384.7135,69.0679 L2384.7135,95.0679 C2384.7135,105.0679 2366.7135,105.0679 2366.7135,105.0679 C2366.7135,105.0679 2348.7135,105.0679 2348.7135,95.0679 L2348.7135,69.0679" fill="#E2E2F0" style="stroke:#181818;stroke-width:0.5;"/><path d="M2348.7135,69.0679 C2348.7135,79.0679 2366.7135,79.0679 2366.7135,79.0679 C2366.7135,79.0679 2384.7135,79.0679 2384.7135,69.0679" fill="none" style="stroke:#181818;stroke-width:0.5;"/></g><g class="message" data-participant-1="Admin" data-participant-2="Page"><polygon fill="#181818" points="303.0701,153.8419,313.0701,157.8419,303.0701,161.8419,307.0701,157.8419" style="stroke:#181818;stroke-width:1;"/><line style="stroke:#181818;stroke-width:1;" x1="74" x2="309.0701" y1="157.8419" y2="157.8419"/><text fill="#000000" font-family="sans-serif" font-size="13" font-weight="bold" lengthAdjust="spacing" textLength="7.436" x="81" y="152.0328">1</text><text fill="#000000" font-family="sans-serif" font-size="13" lengthAdjust="spacing" textLength="130" x="92.436" y="152.0328">&#36873;&#25321;&#30446;&#26631;&#29992;&#25143;&#30340;&#26032;&#35282;&#33394;</text></g><g class="message" data-participant-1="Page" data-participant-2="Api"><polygon fill="#181818" points="547.7413,185.5479,557.7413,189.5479,547.7413,193.5479,551.7413,189.5479" style="stroke:#181818;stroke-width:1;"/><line style="stroke:#181818;stroke-width:1;" x1="315.0701" x2="553.7413" y1="189.5479" y2="189.5479"/><text fill="#000000" font-family="sans-serif" font-size="13" font-weight="bold" lengthAdjust="spacing" textLength="7.436" x="322.0701" y="183.7389">2</text><text fill="#000000" font-family="sans-serif" font-size="13" lengthAdjust="spacing" textLength="209.2352" x="333.5061" y="183.7389">updateUserRole(user.id, user.role)</text></g><g class="message" data-participant-1="Api" data-participant-2="Request"><polygon fill="#181818" points="799.4845,217.2539,809.4845,221.2539,799.4845,225.2539,803.4845,221.2539" style="stroke:#181818;stroke-width:1;"/><line style="stroke:#181818;stroke-width:1;" x1="559.7413" x2="805.4845" y1="221.2539" y2="221.2539"/><text fill="#000000" font-family="sans-serif" font-size="13" font-weight="bold" lengthAdjust="spacing" textLength="7.436" x="566.7413" y="215.4449">3</text><text fill="#000000" font-family="sans-serif" font-size="13" lengthAdjust="spacing" textLength="216.3072" x="578.1773" y="215.4449">put("/admin/users/{id}/role", {role})</text></g><g class="message" data-participant-1="Request" data-participant-2="Gin"><polygon fill="#181818" points="1041.7637,266.6659,1051.7637,270.6659,1041.7637,274.6659,1045.7637,270.6659" style="stroke:#181818;stroke-width:1;"/><line style="stroke:#181818;stroke-width:1;" x1="811.4845" x2="1047.7637" y1="270.6659" y2="270.6659"/><text fill="#000000" font-family="sans-serif" font-size="13" font-weight="bold" lengthAdjust="spacing" textLength="7.436" x="818.4845" y="256.0039">4</text><text fill="#000000" font-family="sans-serif" font-size="13" lengthAdjust="spacing" textLength="206.8431" x="829.9205" y="247.1509">PUT /api/v1/admin/users/{id}/role</text><text fill="#000000" font-family="sans-serif" font-size="13" lengthAdjust="spacing" textLength="169.2601" x="829.9205" y="264.8569">Authorization: Bearer token</text></g><g class="message" data-participant-1="Gin" data-participant-2="AuthMW"><polygon fill="#181818" points="1223.2938,298.3719,1233.2938,302.3719,1223.2938,306.3719,1227.2938,302.3719" style="stroke:#181818;stroke-width:1;"/><line style="stroke:#181818;stroke-width:1;" x1="1053.7637" x2="1229.2938" y1="302.3719" y2="302.3719"/><text fill="#000000" font-family="sans-serif" font-size="13" font-weight="bold" lengthAdjust="spacing" textLength="7.436" x="1060.7637" y="296.5629">5</text><text fill="#000000" font-family="sans-serif" font-size="13" lengthAdjust="spacing" textLength="146.0941" x="1072.1997" y="296.5629">AuthMiddleware(secret)</text></g><path d="M10,317.3719 L72.459,317.3719 L72.459,327.0779 L62.459,337.0779 L10,337.0779 L10,317.3719" fill="#EEEEEE" style="stroke:#000000;stroke-width:1.5;"/><rect fill="none" height="994.402" style="stroke:#000000;stroke-width:1.5;" width="2424.4864" x="10" y="317.3719"/><text fill="#000000" font-family="sans-serif" font-size="13" font-weight="bold" lengthAdjust="spacing" textLength="17.459" x="25" y="332.2689">alt</text><text fill="#000000" font-family="sans-serif" font-size="11" font-weight="bold" lengthAdjust="spacing" textLength="134.6177" x="87.459" y="331.1308">[Token &#32570;&#22833;&#12289;&#26080;&#25928;&#25110;&#36807;&#26399;]</text><g class="message" data-participant-1="AuthMW" data-participant-2="Request"><polygon fill="#181818" points="822.4845,356.784,812.4845,360.784,822.4845,364.784,818.4845,360.784" style="stroke:#181818;stroke-width:1;"/><line style="stroke:#181818;stroke-width:1;stroke-dasharray:2,2;" x1="816.4845" x2="1234.2938" y1="360.784" y2="360.784"/><text fill="#000000" font-family="sans-serif" font-size="13" font-weight="bold" lengthAdjust="spacing" textLength="7.436" x="828.4845" y="354.975">6</text><text fill="#000000" font-family="sans-serif" font-size="13" lengthAdjust="spacing" textLength="211.6011" x="839.9205" y="354.975">401 {message: "&#26410;&#25480;&#26435;&#65292;&#35831;&#20808;&#30331;&#24405;"}</text></g><g class="message" data-participant-1="Request" data-participant-2="Page"><polygon fill="#181818" points="326.0701,388.49,316.0701,392.49,326.0701,396.49,322.0701,392.49" style="stroke:#181818;stroke-width:1;"/><line style="stroke:#181818;stroke-width:1;stroke-dasharray:2,2;" x1="320.0701" x2="810.4845" y1="392.49" y2="392.49"/><text fill="#000000" font-family="sans-serif" font-size="13" font-weight="bold" lengthAdjust="spacing" textLength="7.436" x="332.0701" y="386.681">7</text><text fill="#000000" font-family="sans-serif" font-size="13" lengthAdjust="spacing" textLength="103.1941" x="343.5061" y="386.681">Promise rejected</text></g><g class="message" data-participant-1="Page" data-participant-2="Admin"><polygon fill="#181818" points="85,420.196,75,424.196,85,428.196,81,424.196" style="stroke:#181818;stroke-width:1;"/><line style="stroke:#181818;stroke-width:1;stroke-dasharray:2,2;" x1="79" x2="314.0701" y1="424.196" y2="424.196"/><text fill="#000000" font-family="sans-serif" font-size="13" font-weight="bold" lengthAdjust="spacing" textLength="7.436" x="91" y="418.387">8</text><text fill="#000000" font-family="sans-serif" font-size="13" lengthAdjust="spacing" textLength="78" x="102.436" y="418.387">&#26174;&#31034;&#22833;&#36133;&#25552;&#31034;</text></g><line style="stroke:#000000;stroke-width:1;stroke-dasharray:2,2;" x1="10" x2="2434.4864" y1="433.196" y2="433.196"/><text fill="#000000" font-family="sans-serif" font-size="11" font-weight="bold" lengthAdjust="spacing" textLength="66.5552" x="15" y="444.9549">[Token &#26377;&#25928;]</text><g class="message" data-participant-1="AuthMW" data-participant-2="AdminMW"><polygon fill="#181818" points="1387.3519,468.8839,1397.3519,472.8839,1387.3519,476.8839,1391.3519,472.8839" style="stroke:#181818;stroke-width:1;"/><line style="stroke:#181818;stroke-width:1;" x1="1235.2938" x2="1393.3519" y1="472.8839" y2="472.8839"/><text fill="#000000" font-family="sans-serif" font-size="13" font-weight="bold" lengthAdjust="spacing" textLength="7.436" x="1242.2938" y="467.0749">9</text><text fill="#000000" font-family="sans-serif" font-size="13" lengthAdjust="spacing" textLength="128.6221" x="1253.7298" y="467.0749">role &#20889;&#20837; Gin Context</text></g><path d="M20,487.8839 L82.459,487.8839 L82.459,497.5899 L72.459,507.5899 L20,507.5899 L20,487.8839" fill="#EEEEEE" style="stroke:#000000;stroke-width:1.5;"/><rect fill="none" height="816.8901" style="stroke:#000000;stroke-width:1.5;" width="2404.4864" x="20" y="487.8839"/><text fill="#000000" font-family="sans-serif" font-size="13" font-weight="bold" lengthAdjust="spacing" textLength="17.459" x="35" y="502.7809">alt</text><text fill="#000000" font-family="sans-serif" font-size="11" font-weight="bold" lengthAdjust="spacing" textLength="79.0894" x="97.459" y="501.6428">[role != admin]</text><g class="message" data-participant-1="AdminMW" data-participant-2="Request"><polygon fill="#181818" points="822.4845,527.2959,812.4845,531.2959,822.4845,535.2959,818.4845,531.2959" style="stroke:#181818;stroke-width:1;"/><line style="stroke:#181818;stroke-width:1;stroke-dasharray:2,2;" x1="816.4845" x2="1398.3519" y1="531.2959" y2="531.2959"/><text fill="#000000" font-family="sans-serif" font-size="13" font-weight="bold" lengthAdjust="spacing" textLength="14.872" x="828.4845" y="525.4869">10</text><text fill="#000000" font-family="sans-serif" font-size="13" lengthAdjust="spacing" textLength="159.6011" x="847.3565" y="525.4869">403 {message: "&#26435;&#38480;&#19981;&#36275;"}</text></g><g class="message" data-participant-1="Request" data-participant-2="Page"><polygon fill="#181818" points="326.0701,559.002,316.0701,563.002,326.0701,567.002,322.0701,563.002" style="stroke:#181818;stroke-width:1;"/><line style="stroke:#181818;stroke-width:1;stroke-dasharray:2,2;" x1="320.0701" x2="810.4845" y1="563.002" y2="563.002"/><text fill="#000000" font-family="sans-serif" font-size="13" font-weight="bold" lengthAdjust="spacing" textLength="14.872" x="332.0701" y="557.1929">11</text><text fill="#000000" font-family="sans-serif" font-size="13" lengthAdjust="spacing" textLength="103.1941" x="350.9421" y="557.1929">Promise rejected</text></g><g class="message" data-participant-1="Page" data-participant-2="Admin"><polygon fill="#181818" points="85,590.708,75,594.708,85,598.708,81,594.708" style="stroke:#181818;stroke-width:1;"/><line style="stroke:#181818;stroke-width:1;stroke-dasharray:2,2;" x1="79" x2="314.0701" y1="594.708" y2="594.708"/><text fill="#000000" font-family="sans-serif" font-size="13" font-weight="bold" lengthAdjust="spacing" textLength="14.872" x="91" y="588.899">12</text><text fill="#000000" font-family="sans-serif" font-size="13" lengthAdjust="spacing" textLength="78" x="109.872" y="588.899">&#26174;&#31034;&#26435;&#38480;&#19981;&#36275;</text></g><line style="stroke:#000000;stroke-width:1;stroke-dasharray:2,2;" x1="20" x2="2424.4864" y1="603.708" y2="603.708"/><text fill="#000000" font-family="sans-serif" font-size="11" font-weight="bold" lengthAdjust="spacing" textLength="82.2354" x="25" y="615.4669">[role == admin]</text><g class="message" data-participant-1="AdminMW" data-participant-2="Handler"><polygon fill="#181818" points="1608.493,639.3959,1618.493,643.3959,1608.493,647.3959,1612.493,643.3959" style="stroke:#181818;stroke-width:1;"/><line style="stroke:#181818;stroke-width:1;" x1="1399.3519" x2="1614.493" y1="643.3959" y2="643.3959"/><text fill="#000000" font-family="sans-serif" font-size="13" font-weight="bold" lengthAdjust="spacing" textLength="14.872" x="1406.3519" y="637.5869">13</text><text fill="#000000" font-family="sans-serif" font-size="13" lengthAdjust="spacing" textLength="178.2691" x="1425.2239" y="637.5869">&#25191;&#34892; UpdateUserRoleHandler</text></g><g class="message" data-participant-1="Handler" data-participant-2="Handler"><line style="stroke:#181818;stroke-width:1;" x1="1620.493" x2="1662.493" y1="675.1019" y2="675.1019"/><line style="stroke:#181818;stroke-width:1;" x1="1662.493" x2="1662.493" y1="675.1019" y2="688.1019"/><line style="stroke:#181818;stroke-width:1;" x1="1621.493" x2="1662.493" y1="688.1019" y2="688.1019"/><polygon fill="#181818" points="1631.493,684.1019,1621.493,688.1019,1631.493,692.1019,1627.493,688.1019" style="stroke:#181818;stroke-width:1;"/><text fill="#000000" font-family="sans-serif" font-size="13" font-weight="bold" lengthAdjust="spacing" textLength="14.872" x="1627.493" y="669.2929">14</text><text fill="#000000" font-family="sans-serif" font-size="13" lengthAdjust="spacing" textLength="222.4822" x="1646.365" y="669.2929">ParseUint(id) + ShouldBindJSON(req)</text></g><path d="M30,703.1019 L92.459,703.1019 L92.459,712.8079 L82.459,722.8079 L30,722.8079 L30,703.1019" fill="#EEEEEE" style="stroke:#000000;stroke-width:1.5;"/><rect fill="none" height="594.6721" style="stroke:#000000;stroke-width:1.5;" width="2384.4864" x="30" y="703.1019"/><text fill="#000000" font-family="sans-serif" font-size="13" font-weight="bold" lengthAdjust="spacing" textLength="17.459" x="45" y="717.9989">alt</text><text fill="#000000" font-family="sans-serif" font-size="11" font-weight="bold" lengthAdjust="spacing" textLength="112.9063" x="107.459" y="716.8608">[ID/JSON/&#35282;&#33394;&#20540;&#38750;&#27861;]</text><g class="message" data-participant-1="Handler" data-participant-2="Request"><polygon fill="#181818" points="822.4845,742.5139,812.4845,746.5139,822.4845,750.5139,818.4845,746.5139" style="stroke:#181818;stroke-width:1;"/><line style="stroke:#181818;stroke-width:1;stroke-dasharray:2,2;" x1="816.4845" x2="1619.493" y1="746.5139" y2="746.5139"/><text fill="#000000" font-family="sans-serif" font-size="13" font-weight="bold" lengthAdjust="spacing" textLength="14.872" x="828.4845" y="740.7049">15</text><text fill="#000000" font-family="sans-serif" font-size="13" lengthAdjust="spacing" textLength="147.524" x="847.3565" y="740.7049">400 &#21442;&#25968;&#38169;&#35823;/&#35282;&#33394;&#19981;&#25903;&#25345;</text></g><g class="message" data-participant-1="Request" data-participant-2="Page"><polygon fill="#181818" points="326.0701,774.2199,316.0701,778.2199,326.0701,782.2199,322.0701,778.2199" style="stroke:#181818;stroke-width:1;"/><line style="stroke:#181818;stroke-width:1;stroke-dasharray:2,2;" x1="320.0701" x2="810.4845" y1="778.2199" y2="778.2199"/><text fill="#000000" font-family="sans-serif" font-size="13" font-weight="bold" lengthAdjust="spacing" textLength="14.872" x="332.0701" y="772.4109">16</text><text fill="#000000" font-family="sans-serif" font-size="13" lengthAdjust="spacing" textLength="103.1941" x="350.9421" y="772.4109">Promise rejected</text></g><g class="message" data-participant-1="Page" data-participant-2="Admin"><polygon fill="#181818" points="85,805.926,75,809.926,85,813.926,81,809.926" style="stroke:#181818;stroke-width:1;"/><line style="stroke:#181818;stroke-width:1;stroke-dasharray:2,2;" x1="79" x2="314.0701" y1="809.926" y2="809.926"/><text fill="#000000" font-family="sans-serif" font-size="13" font-weight="bold" lengthAdjust="spacing" textLength="14.872" x="91" y="804.117">17</text><text fill="#000000" font-family="sans-serif" font-size="13" lengthAdjust="spacing" textLength="78" x="109.872" y="804.117">&#26174;&#31034;&#21442;&#25968;&#38169;&#35823;</text></g><line style="stroke:#000000;stroke-width:1;stroke-dasharray:2,2;" x1="30" x2="2414.4864" y1="818.926" y2="818.926"/><text fill="#000000" font-family="sans-serif" font-size="11" font-weight="bold" lengthAdjust="spacing" textLength="52.657" x="35" y="830.6849">[&#21442;&#25968;&#26377;&#25928;]</text><g class="message" data-participant-1="Handler" data-participant-2="Gorm"><polygon fill="#181818" points="1937.0273,854.6139,1947.0273,858.6139,1937.0273,862.6139,1941.0273,858.6139" style="stroke:#181818;stroke-width:1;"/><line style="stroke:#181818;stroke-width:1;" x1="1620.493" x2="1943.0273" y1="858.6139" y2="858.6139"/><text fill="#000000" font-family="sans-serif" font-size="13" font-weight="bold" lengthAdjust="spacing" textLength="14.872" x="1627.493" y="852.8049">18</text><text fill="#000000" font-family="sans-serif" font-size="13" lengthAdjust="spacing" textLength="285.6622" x="1646.365" y="852.8049">Model(User).Where(id).Update("role", req.Role)</text></g><g class="message" data-participant-1="Gorm" data-participant-2="UserModel"><polygon fill="#181818" points="2084.8483,886.3199,2094.8483,890.3199,2084.8483,894.3199,2088.8483,890.3199" style="stroke:#181818;stroke-width:1;"/><line style="stroke:#181818;stroke-width:1;" x1="1949.0273" x2="2090.8483" y1="890.3199" y2="890.3199"/><text fill="#000000" font-family="sans-serif" font-size="13" font-weight="bold" lengthAdjust="spacing" textLength="14.872" x="1956.0273" y="884.5109">19</text><text fill="#000000" font-family="sans-serif" font-size="13" lengthAdjust="spacing" textLength="104.949" x="1974.8993" y="884.5109">&#26144;&#23556; users &#34920;&#26356;&#26032;</text></g><g class="message" data-participant-1="UserModel" data-participant-2="MySQL"><polygon fill="#181818" points="2354.7135,918.0259,2364.7135,922.0259,2354.7135,926.0259,2358.7135,922.0259" style="stroke:#181818;stroke-width:1;"/><line style="stroke:#181818;stroke-width:1;" x1="2096.8483" x2="2360.7135" y1="922.0259" y2="922.0259"/><text fill="#000000" font-family="sans-serif" font-size="13" font-weight="bold" lengthAdjust="spacing" textLength="14.872" x="2103.8483" y="916.2169">20</text><text fill="#000000" font-family="sans-serif" font-size="13" lengthAdjust="spacing" textLength="226.9932" x="2122.7203" y="916.2169">UPDATE users SET role=? WHERE id=?</text></g><path d="M40,937.0259 L102.459,937.0259 L102.459,946.7319 L92.459,956.7319 L40,956.7319 L40,937.0259" fill="#EEEEEE" style="stroke:#000000;stroke-width:1.5;"/><rect fill="none" height="353.7481" style="stroke:#000000;stroke-width:1.5;" width="2364.4864" x="40" y="937.0259"/><text fill="#000000" font-family="sans-serif" font-size="13" font-weight="bold" lengthAdjust="spacing" textLength="17.459" x="55" y="951.9229">alt</text><text fill="#000000" font-family="sans-serif" font-size="11" font-weight="bold" lengthAdjust="spacing" textLength="86.6882" x="117.459" y="950.7848">[&#25968;&#25454;&#24211;&#26356;&#26032;&#22833;&#36133;]</text><g class="message" data-participant-1="MySQL" data-participant-2="Handler"><polygon fill="#181818" points="1631.493,976.4379,1621.493,980.4379,1631.493,984.4379,1627.493,980.4379" style="stroke:#181818;stroke-width:1;"/><line style="stroke:#181818;stroke-width:1;stroke-dasharray:2,2;" x1="1625.493" x2="2365.7135" y1="980.4379" y2="980.4379"/><text fill="#000000" font-family="sans-serif" font-size="13" font-weight="bold" lengthAdjust="spacing" textLength="14.872" x="1637.493" y="974.6289">21</text><text fill="#000000" font-family="sans-serif" font-size="13" lengthAdjust="spacing" textLength="31.304" x="1656.365" y="974.6289">error</text></g><g class="message" data-participant-1="Handler" data-participant-2="Request"><polygon fill="#181818" points="822.4845,1008.1439,812.4845,1012.1439,822.4845,1016.1439,818.4845,1012.1439" style="stroke:#181818;stroke-width:1;"/><line style="stroke:#181818;stroke-width:1;stroke-dasharray:2,2;" x1="816.4845" x2="1619.493" y1="1012.1439" y2="1012.1439"/><text fill="#000000" font-family="sans-serif" font-size="13" font-weight="bold" lengthAdjust="spacing" textLength="14.872" x="828.4845" y="1006.3349">22</text><text fill="#000000" font-family="sans-serif" font-size="13" lengthAdjust="spacing" textLength="103.688" x="847.3565" y="1006.3349">500 &#35282;&#33394;&#26356;&#26032;&#22833;&#36133;</text></g><g class="message" data-participant-1="Request" data-participant-2="Page"><polygon fill="#181818" points="326.0701,1039.85,316.0701,1043.85,326.0701,1047.85,322.0701,1043.85" style="stroke:#181818;stroke-width:1;"/><line style="stroke:#181818;stroke-width:1;stroke-dasharray:2,2;" x1="320.0701" x2="810.4845" y1="1043.85" y2="1043.85"/><text fill="#000000" font-family="sans-serif" font-size="13" font-weight="bold" lengthAdjust="spacing" textLength="14.872" x="332.0701" y="1038.041">23</text><text fill="#000000" font-family="sans-serif" font-size="13" lengthAdjust="spacing" textLength="103.1941" x="350.9421" y="1038.041">Promise rejected</text></g><g class="message" data-participant-1="Page" data-participant-2="Admin"><polygon fill="#181818" points="85,1071.556,75,1075.556,85,1079.556,81,1075.556" style="stroke:#181818;stroke-width:1;"/><line style="stroke:#181818;stroke-width:1;stroke-dasharray:2,2;" x1="79" x2="314.0701" y1="1075.556" y2="1075.556"/><text fill="#000000" font-family="sans-serif" font-size="13" font-weight="bold" lengthAdjust="spacing" textLength="14.872" x="91" y="1069.747">24</text><text fill="#000000" font-family="sans-serif" font-size="13" lengthAdjust="spacing" textLength="78" x="109.872" y="1069.747">&#26174;&#31034;&#20445;&#23384;&#22833;&#36133;</text></g><line style="stroke:#000000;stroke-width:1;stroke-dasharray:2,2;" x1="40" x2="2404.4864" y1="1084.556" y2="1084.556"/><text fill="#000000" font-family="sans-serif" font-size="11" font-weight="bold" lengthAdjust="spacing" textLength="52.657" x="45" y="1096.3149">[&#26356;&#26032;&#25104;&#21151;]</text><g class="message" data-participant-1="MySQL" data-participant-2="Gorm"><polygon fill="#181818" points="1960.0273,1120.2439,1950.0273,1124.2439,1960.0273,1128.2439,1956.0273,1124.2439" style="stroke:#181818;stroke-width:1;"/><line style="stroke:#181818;stroke-width:1;stroke-dasharray:2,2;" x1="1954.0273" x2="2365.7135" y1="1124.2439" y2="1124.2439"/><text fill="#000000" font-family="sans-serif" font-size="13" font-weight="bold" lengthAdjust="spacing" textLength="14.872" x="1966.0273" y="1118.4349">25</text><text fill="#000000" font-family="sans-serif" font-size="13" lengthAdjust="spacing" textLength="46.527" x="1984.8993" y="1118.4349">success</text></g><g class="message" data-participant-1="Gorm" data-participant-2="Handler"><polygon fill="#181818" points="1631.493,1151.9499,1621.493,1155.9499,1631.493,1159.9499,1627.493,1155.9499" style="stroke:#181818;stroke-width:1;"/><line style="stroke:#181818;stroke-width:1;stroke-dasharray:2,2;" x1="1625.493" x2="1948.0273" y1="1155.9499" y2="1155.9499"/><text fill="#000000" font-family="sans-serif" font-size="13" font-weight="bold" lengthAdjust="spacing" textLength="14.872" x="1637.493" y="1150.1409">26</text><text fill="#000000" font-family="sans-serif" font-size="13" lengthAdjust="spacing" textLength="35.009" x="1656.365" y="1150.1409">result</text></g><g class="message" data-participant-1="Handler" data-participant-2="Request"><polygon fill="#181818" points="822.4845,1183.6559,812.4845,1187.6559,822.4845,1191.6559,818.4845,1187.6559" style="stroke:#181818;stroke-width:1;"/><line style="stroke:#181818;stroke-width:1;stroke-dasharray:2,2;" x1="816.4845" x2="1619.493" y1="1187.6559" y2="1187.6559"/><text fill="#000000" font-family="sans-serif" font-size="13" font-weight="bold" lengthAdjust="spacing" textLength="14.872" x="828.4845" y="1181.8469">27</text><text fill="#000000" font-family="sans-serif" font-size="13" lengthAdjust="spacing" textLength="77.7011" x="847.3565" y="1181.8469">200 {id, role}</text></g><g class="message" data-participant-1="Request" data-participant-2="Api"><polygon fill="#181818" points="570.7413,1215.3619,560.7413,1219.3619,570.7413,1223.3619,566.7413,1219.3619" style="stroke:#181818;stroke-width:1;"/><line style="stroke:#181818;stroke-width:1;stroke-dasharray:2,2;" x1="564.7413" x2="810.4845" y1="1219.3619" y2="1219.3619"/><text fill="#000000" font-family="sans-serif" font-size="13" font-weight="bold" lengthAdjust="spacing" textLength="14.872" x="576.7413" y="1213.5529">28</text><text fill="#000000" font-family="sans-serif" font-size="13" lengthAdjust="spacing" textLength="56.381" x="595.6133" y="1213.5529">response</text></g><g class="message" data-participant-1="Api" data-participant-2="Page"><polygon fill="#181818" points="326.0701,1247.0679,316.0701,1251.0679,326.0701,1255.0679,322.0701,1251.0679" style="stroke:#181818;stroke-width:1;"/><line style="stroke:#181818;stroke-width:1;stroke-dasharray:2,2;" x1="320.0701" x2="558.7413" y1="1251.0679" y2="1251.0679"/><text fill="#000000" font-family="sans-serif" font-size="13" font-weight="bold" lengthAdjust="spacing" textLength="14.872" x="332.0701" y="1245.2589">29</text><text fill="#000000" font-family="sans-serif" font-size="13" lengthAdjust="spacing" textLength="52" x="350.9421" y="1245.2589">&#26356;&#26032;&#25104;&#21151;</text></g><g class="message" data-participant-1="Page" data-participant-2="Admin"><polygon fill="#181818" points="85,1278.774,75,1282.774,85,1286.774,81,1282.774" style="stroke:#181818;stroke-width:1;"/><line style="stroke:#181818;stroke-width:1;stroke-dasharray:2,2;" x1="79" x2="314.0701" y1="1282.774" y2="1282.774"/><text fill="#000000" font-family="sans-serif" font-size="13" font-weight="bold" lengthAdjust="spacing" textLength="14.872" x="91" y="1276.965">30</text><text fill="#000000" font-family="sans-serif" font-size="13" lengthAdjust="spacing" textLength="198.1981" x="109.872" y="1276.965">ElMessage.success("&#35282;&#33394;&#24050;&#26356;&#26032;")</text></g><!--SRC=[ZLLTKzj657tNhxZrapqDTcZQ5yr0nWwUf9dIE1WFBtqHrXQsaILtjIga33FGVDaDARI5508qU9eCj3F5f4bBupZXnnIjxIV-GlT3LcN6T7YmjDuzv-gUStVlKamj13SormVosPk3bw1mXJ_y-klsYrghiTkfDVp6ih_vxgHPENxpIxksn_vSREqzF6a-QUtNMYlt_U_NZu_ssUhhrkeUgnosTtzeL_yuQLOrpV2eOtkbIKIqQMmY-DnnwAGpgxcti5qsY542WjooOxje5BckCOKoo79cqeGuCq29XtY48dK8nC8FnS1m8MsMiArDEfvj6kGsn7GvKN0HSNCyYCI8WLPqR4eSYoCCWKYNiUANSMI9e2yzvD9uUXOxRa82njHK17GLsrbx2jigEFyNMKjxT7eKcwQ5PWoY079g8eeHtpyDadDHLA5i6XG98MEEXQuPDeSJYGt66h8ffaBob4DAoP6CIeUF_riHT3aj1gEEYIoDHpKc3HVnrT7R-PkVo6KvqZIP1GmCIyTqw2nKsSDVMvlxREU1gcVhoLts-41LLHCW0UOMwk3rf1lt-229pGiW1rmHIcWS9-21eJgKFHgFfMGrKWBcfkQmEPyIuDW5c1Fl-OGMm0MJMwr3hZ0EAQECKryDzkT-PWl77OA_DYXsE2E3kCi4g7CBsTfL9L0LHOVUUiLTL2I89lXUioYC2mAqcWt_sOj_5XRPJpjihS8gZzj73zZMKms2830G5VNXnK6OAwaTh4ECRVt6lgkmxJidpQLs_T2_LsbjlF7VhiNcEJ-K5ZgU8qu9yzeGz0KgKcHoa79Pf2p4wi3MtxMUYPJQhvwpvHK-rf35AIfRjbNbIKPo6-vkBHs4EU3Vt_3lFHTMmXM-rz0ivM2XLgw-DmJIKpu7NU9fVPTwz6tVwMoi7F_zgFtNIwdfdAhEqXMDns5IcSnig6zcmzt3mFdLtNPj2VeU6qaAnZsad45SLC0sZMCp0Uz3VjhnB3E3RVDw_iQdSTuE4f8h3Ffu92KcKsht-mlDplRFxEMQN8z4xpNh8lZBtx2rWyxgHhjU3xXS7bkjiwN5W7jEnyxS2v4lIA1qJSs6- -6K0w9Dw20xGboObKXEJ2D-0BWDIMLXF1OSH6v2SamUO1L5K4M8iAM8F7RyWxlohBiWBeNDLxnD1FWG9qYoqUXGo8sanxC18PyTbpKUkWmJrx9ZMS3cqEM0B8mNCXxj-uqVLLYrzODrK16bAM5L4RyqI0ZeMvcFU6LKCVe6FNT5pgh9yT6s__jwJrHP5VKrLbdnlttQHu8gY-iLY_o4XUlAyQX2VbLw5lr_YHzmYNEY1Sj6sbUQxDpTQpT4o3uT2k-RyMdHMIkuj9D1xl5OS4mE0uDZtUs3REMTUekd-FqB]--></g></svg>