<svg xmlns="http://www.w3.org/2000/svg" xmlns:xlink="http://www.w3.org/1999/xlink" contentStyleType="text/css" height="1058px" preserveAspectRatio="none" style="width:895px;height:1058px;background:#FFFFFF;" version="1.1" viewBox="0 0 895 1058" width="895px" zoomAndPan="magnify"><defs/><g><text fill="#000000" font-family="sans-serif" font-size="14" font-weight="bold" lengthAdjust="spacing" textLength="252.0957" x="322.7729" y="31.0439">OBJ-SEQ01 UC01 &#29992;&#25143;&#26381;&#21153;&#23545;&#35937;&#39034;&#24207;&#22270;</text><rect fill="none" height="752.7114" style="stroke:#000000;stroke-width:1.5;" width="779.542" x="109.0996" y="172.9946"/><rect fill="none" height="227.3267" style="stroke:#000000;stroke-width:1.5;" width="759.542" x="119.0996" y="295.0352"/><line style="stroke:#181818;stroke-width:0.5;stroke-dasharray:5.0,5.0;" x1="22" x2="22" y1="124.2402" y2="974.4604"/><line style="stroke:#181818;stroke-width:0.5;stroke-dasharray:5.0,5.0;" x1="171.0996" x2="171.0996" y1="124.2402" y2="974.4604"/><line style="stroke:#181818;stroke-width:0.5;stroke-dasharray:5.0,5.0;" x1="363.4111" x2="363.4111" y1="124.2402" y2="974.4604"/><line style="stroke:#181818;stroke-width:0.5;stroke-dasharray:5.0,5.0;" x1="512.7441" x2="512.7441" y1="124.2402" y2="974.4604"/><line style="stroke:#181818;stroke-width:0.5;stroke-dasharray:5.0,5.0;" x1="715.5732" x2="715.5732" y1="124.2402" y2="974.4604"/><line style="stroke:#181818;stroke-width:0.5;stroke-dasharray:5.0,5.0;" x1="822.0488" x2="822.0488" y1="124.2402" y2="974.4604"/><text fill="#000000" font-family="sans-serif" font-size="14" lengthAdjust="spacing" textLength="28" x="5" y="121.1641">&#29992;&#25143;</text><ellipse cx="22" cy="53.6201" fill="#E2E2F0" rx="8" ry="8" style="stroke:#181818;stroke-width:0.5;"/><path d="M22,61.6201 L22,88.6201 M9,69.6201 L35,69.6201 M22,88.6201 L9,103.6201 M22,88.6201 L35,103.6201 " fill="none" style="stroke:#181818;stroke-width:0.5;"/><text fill="#000000" font-family="sans-serif" font-size="14" lengthAdjust="spacing" textLength="28" x="5" y="989.5044">&#29992;&#25143;</text><ellipse cx="22" cy="1001.0806" fill="#E2E2F0" rx="8" ry="8" style="stroke:#181818;stroke-width:0.5;"/><path d="M22,1009.0806 L22,1036.0806 M9,1017.0806 L35,1017.0806 M22,1036.0806 L9,1051.0806 M22,1036.0806 L35,1051.0806 " fill="none" style="stroke:#181818;stroke-width:0.5;"/><text fill="#000000" font-family="sans-serif" font-size="14" lengthAdjust="spacing" textLength="78.5859" x="129.0996" y="121.1641">UserHandler</text><path d="M150.8926,77.1201 L150.8926,101.1201 M150.8926,89.1201 L167.8926,89.1201 " fill="none" style="stroke:#181818;stroke-width:0.5;"/><ellipse cx="179.8926" cy="89.1201" fill="#E2E2F0" rx="12" ry="12" style="stroke:#181818;stroke-width:0.5;"/><text fill="#000000" font-family="sans-serif" font-size="14" lengthAdjust="spacing" textLength="78.5859" x="129.0996" y="989.5044">UserHandler</text><path d="M150.8926,996.5806 L150.8926,1020.5806 M150.8926,1008.5806 L167.8926,1008.5806 " fill="none" style="stroke:#181818;stroke-width:0.5;"/><ellipse cx="179.8926" cy="1008.5806" fill="#E2E2F0" rx="12" ry="12" style="stroke:#181818;stroke-width:0.5;"/><text fill="#000000" font-family="sans-serif" font-size="14" lengthAdjust="spacing" textLength="75.4824" x="323.4111" y="121.1641">AuthService</text><ellipse cx="364.1523" cy="89.1201" fill="#E2E2F0" rx="12" ry="12" style="stroke:#181818;stroke-width:0.5;"/><polygon fill="#181818" points="360.1523,77.1201,366.1523,72.1201,364.1523,77.1201,366.1523,82.1201,360.1523,77.1201" style="stroke:#181818;stroke-width:1.0;"/><text fill="#000000" font-family="sans-serif" font-size="14" lengthAdjust="spacing" textLength="75.4824" x="323.4111" y="989.5044">AuthService</text><ellipse cx="364.1523" cy="1008.5806" fill="#E2E2F0" rx="12" ry="12" style="stroke:#181818;stroke-width:0.5;"/><polygon fill="#181818" points="360.1523,996.5806,366.1523,991.5806,364.1523,996.5806,366.1523,1001.5806,360.1523,996.5806" style="stroke:#181818;stroke-width:1.0;"/><text fill="#000000" font-family="sans-serif" font-size="14" lengthAdjust="spacing" textLength="86.3652" x="466.7441" y="121.1641">ProfileService</text><ellipse cx="512.9268" cy="89.1201" fill="#E2E2F0" rx="12" ry="12" style="stroke:#181818;stroke-width:0.5;"/><polygon fill="#181818" points="508.9268,77.1201,514.9268,72.1201,512.9268,77.1201,514.9268,82.1201,508.9268,77.1201" style="stroke:#181818;stroke-width:1.0;"/><text fill="#000000" font-family="sans-serif" font-size="14" lengthAdjust="spacing" textLength="86.3652" x="466.7441" y="989.5044">ProfileService</text><ellipse cx="512.9268" cy="1008.5806" fill="#E2E2F0" rx="12" ry="12" style="stroke:#181818;stroke-width:0.5;"/><polygon fill="#181818" points="508.9268,996.5806,514.9268,991.5806,512.9268,996.5806,514.9268,1001.5806,508.9268,996.5806" style="stroke:#181818;stroke-width:1.0;"/><text fill="#000000" font-family="sans-serif" font-size="14" lengthAdjust="spacing" textLength="96.4756" x="664.5732" y="121.1641">UserRepository</text><path d="M697.811,69.1201 C697.811,59.1201 715.811,59.1201 715.811,59.1201 C715.811,59.1201 733.811,59.1201 733.811,69.1201 L733.811,95.1201 C733.811,105.1201 715.811,105.1201 715.811,105.1201 C715.811,105.1201 697.811,105.1201 697.811,95.1201 L697.811,69.1201 " fill="#E2E2F0" style="stroke:#181818;stroke-width:1.5;"/><path d="M697.811,69.1201 C697.811,79.1201 715.811,79.1201 715.811,79.1201 C715.811,79.1201 733.811,79.1201 733.811,69.1201 " fill="none" style="stroke:#181818;stroke-width:1.5;"/><text fill="#000000" font-family="sans-serif" font-size="14" lengthAdjust="spacing" textLength="96.4756" x="664.5732" y="989.5044">UserRepository</text><path d="M697.811,1002.5806 C697.811,992.5806 715.811,992.5806 715.811,992.5806 C715.811,992.5806 733.811,992.5806 733.811,1002.5806 L733.811,1028.5806 C733.811,1038.5806 715.811,1038.5806 715.811,1038.5806 C715.811,1038.5806 697.811,1038.5806 697.811,1028.5806 L697.811,1002.5806 " fill="#E2E2F0" style="stroke:#181818;stroke-width:1.5;"/><path d="M697.811,1002.5806 C697.811,1012.5806 715.811,1012.5806 715.811,1012.5806 C715.811,1012.5806 733.811,1012.5806 733.811,1002.5806 " fill="none" style="stroke:#181818;stroke-width:1.5;"/><text fill="#000000" font-family="sans-serif" font-size="14" lengthAdjust="spacing" textLength="85.5928" x="777.0488" y="121.1641">TokenService</text><ellipse cx="822.8452" cy="89.1201" fill="#E2E2F0" rx="12" ry="12" style="stroke:#181818;stroke-width:0.5;"/><polygon fill="#181818" points="818.8452,77.1201,824.8452,72.1201,822.8452,77.1201,824.8452,82.1201,818.8452,77.1201" style="stroke:#181818;stroke-width:1.0;"/><text fill="#000000" font-family="sans-serif" font-size="14" lengthAdjust="spacing" textLength="85.5928" x="777.0488" y="989.5044">TokenService</text><ellipse cx="822.8452" cy="1008.5806" fill="#E2E2F0" rx="12" ry="12" style="stroke:#181818;stroke-width:0.5;"/><polygon fill="#181818" points="818.8452,996.5806,824.8452,991.5806,822.8452,996.5806,824.8452,1001.5806,818.8452,996.5806" style="stroke:#181818;stroke-width:1.0;"/><polygon fill="#181818" points="159.3926,153.9946,169.3926,157.9946,159.3926,161.9946,163.3926,157.9946" style="stroke:#181818;stroke-width:1.0;"/><line style="stroke:#181818;stroke-width:1.0;" x1="22" x2="165.3926" y1="157.9946" y2="157.9946"/><text fill="#000000" font-family="sans-serif" font-size="13" font-weight="bold" lengthAdjust="spacing" textLength="7.23" x="29" y="153.1382">1</text><text fill="#000000" font-family="sans-serif" font-size="13" lengthAdjust="spacing" textLength="114.1626" x="40.23" y="153.1382">submit(action, data)</text><path d="M109.0996,172.9946 L169.2705,172.9946 L169.2705,182.749 L159.2705,192.749 L109.0996,192.749 L109.0996,172.9946 " fill="#EEEEEE" style="stroke:#000000;stroke-width:1.5;"/><rect fill="none" height="752.7114" style="stroke:#000000;stroke-width:1.5;" width="779.542" x="109.0996" y="172.9946"/><text fill="#000000" font-family="sans-serif" font-size="13" font-weight="bold" lengthAdjust="spacing" textLength="15.1709" x="124.0996" y="188.8926">alt</text><text fill="#000000" font-family="sans-serif" font-size="11" font-weight="bold" lengthAdjust="spacing" textLength="30.0137" x="184.2705" y="187.6006">[&#27880;&#20876;]</text><polygon fill="#181818" points="352.1523,212.5264,362.1523,216.5264,352.1523,220.5264,356.1523,216.5264" style="stroke:#181818;stroke-width:1.0;"/><line style="stroke:#181818;stroke-width:1.0;" x1="171.3926" x2="358.1523" y1="216.5264" y2="216.5264"/><text fill="#000000" font-family="sans-serif" font-size="13" font-weight="bold" lengthAdjust="spacing" textLength="7.23" x="178.3926" y="211.6699">2</text><text fill="#000000" font-family="sans-serif" font-size="13" lengthAdjust="spacing" textLength="77.3081" x="189.6226" y="211.6699">register(data)</text><polygon fill="#181818" points="703.811,244.2808,713.811,248.2808,703.811,252.2808,707.811,248.2808" style="stroke:#181818;stroke-width:1.0;"/><line style="stroke:#181818;stroke-width:1.0;" x1="364.1523" x2="709.811" y1="248.2808" y2="248.2808"/><text fill="#000000" font-family="sans-serif" font-size="13" font-weight="bold" lengthAdjust="spacing" textLength="7.23" x="371.1523" y="243.4243">3</text><text fill="#000000" font-family="sans-serif" font-size="13" lengthAdjust="spacing" textLength="170.4917" x="382.3823" y="243.4243">existsByNickname(nickname)</text><polygon fill="#181818" points="375.1523,276.0352,365.1523,280.0352,375.1523,284.0352,371.1523,280.0352" style="stroke:#181818;stroke-width:1.0;"/><line style="stroke:#181818;stroke-width:1.0;stroke-dasharray:2.0,2.0;" x1="369.1523" x2="714.811" y1="280.0352" y2="280.0352"/><text fill="#000000" font-family="sans-serif" font-size="13" font-weight="bold" lengthAdjust="spacing" textLength="7.23" x="381.1523" y="275.1787">4</text><text fill="#000000" font-family="sans-serif" font-size="13" lengthAdjust="spacing" textLength="33.23" x="392.3823" y="275.1787">exists</text><path d="M119.0996,295.0352 L179.2705,295.0352 L179.2705,304.7896 L169.2705,314.7896 L119.0996,314.7896 L119.0996,295.0352 " fill="#EEEEEE" style="stroke:#000000;stroke-width:1.5;"/><rect fill="none" height="227.3267" style="stroke:#000000;stroke-width:1.5;" width="759.542" x="119.0996" y="295.0352"/><text fill="#000000" font-family="sans-serif" font-size="13" font-weight="bold" lengthAdjust="spacing" textLength="15.1709" x="134.0996" y="310.9331">alt</text><text fill="#000000" font-family="sans-serif" font-size="11" font-weight="bold" lengthAdjust="spacing" textLength="109.4199" x="194.2705" y="309.6411">[&#25968;&#25454;&#21512;&#27861;&#19988;&#26165;&#31216;&#21487;&#29992;]</text><polygon fill="#181818" points="703.811,334.5669,713.811,338.5669,703.811,342.5669,707.811,338.5669" style="stroke:#181818;stroke-width:1.0;"/><line style="stroke:#181818;stroke-width:1.0;" x1="364.1523" x2="709.811" y1="338.5669" y2="338.5669"/><text fill="#000000" font-family="sans-serif" font-size="13" font-weight="bold" lengthAdjust="spacing" textLength="7.23" x="371.1523" y="333.7104">5</text><text fill="#000000" font-family="sans-serif" font-size="13" lengthAdjust="spacing" textLength="114.8862" x="382.3823" y="333.7104">create(hashedUser)</text><polygon fill="#181818" points="375.1523,366.3213,365.1523,370.3213,375.1523,374.3213,371.1523,370.3213" style="stroke:#181818;stroke-width:1.0;"/><line style="stroke:#181818;stroke-width:1.0;stroke-dasharray:2.0,2.0;" x1="369.1523" x2="714.811" y1="370.3213" y2="370.3213"/><text fill="#000000" font-family="sans-serif" font-size="13" font-weight="bold" lengthAdjust="spacing" textLength="7.23" x="381.1523" y="365.4648">6</text><text fill="#000000" font-family="sans-serif" font-size="13" lengthAdjust="spacing" textLength="62.1372" x="392.3823" y="365.4648">savedUser</text><polygon fill="#181818" points="810.8452,398.0757,820.8452,402.0757,810.8452,406.0757,814.8452,402.0757" style="stroke:#181818;stroke-width:1.0;"/><line style="stroke:#181818;stroke-width:1.0;" x1="364.1523" x2="816.8452" y1="402.0757" y2="402.0757"/><text fill="#000000" font-family="sans-serif" font-size="13" font-weight="bold" lengthAdjust="spacing" textLength="7.23" x="371.1523" y="397.2192">7</text><text fill="#000000" font-family="sans-serif" font-size="13" lengthAdjust="spacing" textLength="101.1436" x="382.3823" y="397.2192">issue(savedUser)</text><polygon fill="#181818" points="375.1523,429.8301,365.1523,433.8301,375.1523,437.8301,371.1523,433.8301" style="stroke:#181818;stroke-width:1.0;"/><line style="stroke:#181818;stroke-width:1.0;stroke-dasharray:2.0,2.0;" x1="369.1523" x2="821.8452" y1="433.8301" y2="433.8301"/><text fill="#000000" font-family="sans-serif" font-size="13" font-weight="bold" lengthAdjust="spacing" textLength="7.23" x="381.1523" y="428.9736">8</text><text fill="#000000" font-family="sans-serif" font-size="13" lengthAdjust="spacing" textLength="26.7109" x="392.3823" y="428.9736">JWT</text><polygon fill="#181818" points="182.3926,461.5845,172.3926,465.5845,182.3926,469.5845,178.3926,465.5845" style="stroke:#181818;stroke-width:1.0;"/><line style="stroke:#181818;stroke-width:1.0;stroke-dasharray:2.0,2.0;" x1="176.3926" x2="363.1523" y1="465.5845" y2="465.5845"/><text fill="#000000" font-family="sans-serif" font-size="13" font-weight="bold" lengthAdjust="spacing" textLength="7.23" x="188.3926" y="460.728">9</text><text fill="#000000" font-family="sans-serif" font-size="13" lengthAdjust="spacing" textLength="44.0781" x="199.6226" y="460.728">session</text><line style="stroke:#000000;stroke-width:1.0;stroke-dasharray:2.0,2.0;" x1="119.0996" x2="878.6416" y1="474.5845" y2="474.5845"/><text fill="#000000" font-family="sans-serif" font-size="11" font-weight="bold" lengthAdjust="spacing" textLength="109.4199" x="124.0996" y="487.1904">[&#25968;&#25454;&#38750;&#27861;&#25110;&#26165;&#31216;&#37325;&#22797;]</text><polygon fill="#181818" points="182.3926,510.3618,172.3926,514.3618,182.3926,518.3618,178.3926,514.3618" style="stroke:#181818;stroke-width:1.0;"/><line style="stroke:#181818;stroke-width:1.0;stroke-dasharray:2.0,2.0;" x1="176.3926" x2="363.1523" y1="514.3618" y2="514.3618"/><text fill="#000000" font-family="sans-serif" font-size="13" font-weight="bold" lengthAdjust="spacing" textLength="14.46" x="188.3926" y="509.5054">10</text><text fill="#000000" font-family="sans-serif" font-size="13" lengthAdjust="spacing" textLength="83.8145" x="206.8525" y="509.5054">validationError</text><line style="stroke:#000000;stroke-width:1.0;stroke-dasharray:2.0,2.0;" x1="109.0996" x2="888.6416" y1="530.3618" y2="530.3618"/><text fill="#000000" font-family="sans-serif" font-size="11" font-weight="bold" lengthAdjust="spacing" textLength="30.0137" x="114.0996" y="542.9678">[&#30331;&#24405;]</text><polygon fill="#181818" points="352.1523,566.1392,362.1523,570.1392,352.1523,574.1392,356.1523,570.1392" style="stroke:#181818;stroke-width:1.0;"/><line style="stroke:#181818;stroke-width:1.0;" x1="171.3926" x2="358.1523" y1="570.1392" y2="570.1392"/><text fill="#000000" font-family="sans-serif" font-size="13" font-weight="bold" lengthAdjust="spacing" textLength="14.46" x="178.3926" y="565.2827">11</text><text fill="#000000" font-family="sans-serif" font-size="13" lengthAdjust="spacing" textLength="61.4263" x="196.8525" y="565.2827">login(data)</text><polygon fill="#181818" points="703.811,597.8936,713.811,601.8936,703.811,605.8936,707.811,601.8936" style="stroke:#181818;stroke-width:1.0;"/><line style="stroke:#181818;stroke-width:1.0;" x1="364.1523" x2="709.811" y1="601.8936" y2="601.8936"/><text fill="#000000" font-family="sans-serif" font-size="13" font-weight="bold" lengthAdjust="spacing" textLength="14.46" x="371.1523" y="597.0371">12</text><text fill="#000000" font-family="sans-serif" font-size="13" lengthAdjust="spacing" textLength="158.2217" x="389.6123" y="597.0371">findByNickname(nickname)</text><polygon fill="#181818" points="375.1523,629.6479,365.1523,633.6479,375.1523,637.6479,371.1523,633.6479" style="stroke:#181818;stroke-width:1.0;"/><line style="stroke:#181818;stroke-width:1.0;stroke-dasharray:2.0,2.0;" x1="369.1523" x2="714.811" y1="633.6479" y2="633.6479"/><text fill="#000000" font-family="sans-serif" font-size="13" font-weight="bold" lengthAdjust="spacing" textLength="14.46" x="381.1523" y="628.7915">13</text><text fill="#000000" font-family="sans-serif" font-size="13" lengthAdjust="spacing" textLength="83.8335" x="399.6123" y="628.7915">user/notFound</text><line style="stroke:#181818;stroke-width:1.0;" x1="364.1523" x2="406.1523" y1="665.4023" y2="665.4023"/><line style="stroke:#181818;stroke-width:1.0;" x1="406.1523" x2="406.1523" y1="665.4023" y2="678.4023"/><line style="stroke:#181818;stroke-width:1.0;" x1="365.1523" x2="406.1523" y1="678.4023" y2="678.4023"/><polygon fill="#181818" points="375.1523,674.4023,365.1523,678.4023,375.1523,682.4023,371.1523,678.4023" style="stroke:#181818;stroke-width:1.0;"/><text fill="#000000" font-family="sans-serif" font-size="13" font-weight="bold" lengthAdjust="spacing" textLength="14.46" x="371.1523" y="660.5459">14</text><text fill="#000000" font-family="sans-serif" font-size="13" lengthAdjust="spacing" textLength="116.3145" x="389.6123" y="660.5459">comparePassword()</text><polygon fill="#181818" points="810.8452,706.1567,820.8452,710.1567,810.8452,714.1567,814.8452,710.1567" style="stroke:#181818;stroke-width:1.0;"/><line style="stroke:#181818;stroke-width:1.0;" x1="364.1523" x2="816.8452" y1="710.1567" y2="710.1567"/><text fill="#000000" font-family="sans-serif" font-size="13" font-weight="bold" lengthAdjust="spacing" textLength="14.46" x="371.1523" y="705.3003">15</text><text fill="#000000" font-family="sans-serif" font-size="13" lengthAdjust="spacing" textLength="64.2954" x="389.6123" y="705.3003">issue(user)</text><polygon fill="#181818" points="375.1523,737.9111,365.1523,741.9111,375.1523,745.9111,371.1523,741.9111" style="stroke:#181818;stroke-width:1.0;"/><line style="stroke:#181818;stroke-width:1.0;stroke-dasharray:2.0,2.0;" x1="369.1523" x2="821.8452" y1="741.9111" y2="741.9111"/><text fill="#000000" font-family="sans-serif" font-size="13" font-weight="bold" lengthAdjust="spacing" textLength="14.46" x="381.1523" y="737.0547">16</text><text fill="#000000" font-family="sans-serif" font-size="13" lengthAdjust="spacing" textLength="26.7109" x="399.6123" y="737.0547">JWT</text><polygon fill="#181818" points="182.3926,769.6655,172.3926,773.6655,182.3926,777.6655,178.3926,773.6655" style="stroke:#181818;stroke-width:1.0;"/><line style="stroke:#181818;stroke-width:1.0;stroke-dasharray:2.0,2.0;" x1="176.3926" x2="363.1523" y1="773.6655" y2="773.6655"/><text fill="#000000" font-family="sans-serif" font-size="13" font-weight="bold" lengthAdjust="spacing" textLength="14.46" x="188.3926" y="768.8091">17</text><text fill="#000000" font-family="sans-serif" font-size="13" lengthAdjust="spacing" textLength="150.2998" x="206.8525" y="768.8091">session/invalidCredentials</text><line style="stroke:#000000;stroke-width:1.0;stroke-dasharray:2.0,2.0;" x1="109.0996" x2="888.6416" y1="782.6655" y2="782.6655"/><text fill="#000000" font-family="sans-serif" font-size="11" font-weight="bold" lengthAdjust="spacing" textLength="52.7012" x="114.0996" y="795.2715">[&#20462;&#25913;&#36164;&#26009;]</text><polygon fill="#181818" points="500.9268,818.4429,510.9268,822.4429,500.9268,826.4429,504.9268,822.4429" style="stroke:#181818;stroke-width:1.0;"/><line style="stroke:#181818;stroke-width:1.0;" x1="171.3926" x2="506.9268" y1="822.4429" y2="822.4429"/><text fill="#000000" font-family="sans-serif" font-size="13" font-weight="bold" lengthAdjust="spacing" textLength="14.46" x="178.3926" y="817.5864">18</text><text fill="#000000" font-family="sans-serif" font-size="13" lengthAdjust="spacing" textLength="141.6353" x="196.8525" y="817.5864">updateMe(userId, patch)</text><polygon fill="#181818" points="703.811,850.1973,713.811,854.1973,703.811,858.1973,707.811,854.1973" style="stroke:#181818;stroke-width:1.0;"/><line style="stroke:#181818;stroke-width:1.0;" x1="512.9268" x2="709.811" y1="854.1973" y2="854.1973"/><text fill="#000000" font-family="sans-serif" font-size="13" font-weight="bold" lengthAdjust="spacing" textLength="14.46" x="519.9268" y="849.3408">19</text><text fill="#000000" font-family="sans-serif" font-size="13" lengthAdjust="spacing" textLength="160.4243" x="538.3867" y="849.3408">updateProfile(userId, patch)</text><polygon fill="#181818" points="523.9268,881.9517,513.9268,885.9517,523.9268,889.9517,519.9268,885.9517" style="stroke:#181818;stroke-width:1.0;"/><line style="stroke:#181818;stroke-width:1.0;stroke-dasharray:2.0,2.0;" x1="517.9268" x2="714.811" y1="885.9517" y2="885.9517"/><text fill="#000000" font-family="sans-serif" font-size="13" font-weight="bold" lengthAdjust="spacing" textLength="14.46" x="529.9268" y="881.0952">20</text><text fill="#000000" font-family="sans-serif" font-size="13" lengthAdjust="spacing" textLength="105.498" x="548.3867" y="881.0952">updatedUser/error</text><polygon fill="#181818" points="182.3926,913.7061,172.3926,917.7061,182.3926,921.7061,178.3926,917.7061" style="stroke:#181818;stroke-width:1.0;"/><line style="stroke:#181818;stroke-width:1.0;stroke-dasharray:2.0,2.0;" x1="176.3926" x2="511.9268" y1="917.7061" y2="917.7061"/><text fill="#000000" font-family="sans-serif" font-size="13" font-weight="bold" lengthAdjust="spacing" textLength="14.46" x="188.3926" y="912.8496">21</text><text fill="#000000" font-family="sans-serif" font-size="13" lengthAdjust="spacing" textLength="150.2744" x="206.8525" y="912.8496">profileDTO/validationError</text><polygon fill="#181818" points="33,952.4604,23,956.4604,33,960.4604,29,956.4604" style="stroke:#181818;stroke-width:1.0;"/><line style="stroke:#181818;stroke-width:1.0;stroke-dasharray:2.0,2.0;" x1="27" x2="170.3926" y1="956.4604" y2="956.4604"/><text fill="#000000" font-family="sans-serif" font-size="13" font-weight="bold" lengthAdjust="spacing" textLength="14.46" x="39" y="951.604">22</text><text fill="#000000" font-family="sans-serif" font-size="13" lengthAdjust="spacing" textLength="52" x="57.46" y="951.604">&#25805;&#20316;&#32467;&#26524;</text><!--SRC=[XL9DInj16BxlhvZZ2eQqrnmAqLfIeNKRD_GysNqrWvkPC3ERDlVIXj9WmKIKfa90q9DQH5eLsp-JdPX_qPcTpPh6Go_By3uVypxFZYGo0hInibxON7lpv2cghUhFf7-gkZ_Li9Ty7YNdr_S_HjFHJNApctpxxU1OCXetwy0T74Z6CpB20jMSEejfY7a7rGJm2gPX1DmW5ITWL78MeN8i6vl0soG00vHpmEDiYqGmXtbEY2MkOm6fNHLQJ11zOyU0rLpeinsWSpBVgQ72CrGf8H7NcqIwUat2w38oRaiEZYHIbwV9noyEGXN3B9SGXsqY973NSX0g6w1QGl1UpyLAvpK9TYXkWakpWo5LKS7ABKjFKlF1XUgT9L-xwd8m_jLN1rUJaujazrptf1aFrW47BC5jOD60q0HSIk7SLE2sdJ-e_18YGiJWvfZL-3FD-bj_niug025qU3s4IFTeTvj-FzAxgUw-tMtwgPSSz_xLjN54T1TQkiOvCoi03PtKOt9uczmDvigBs3QXZvhR8ZJyNs-nJb2aJBumpsQcrVE0DLkOWuU5UCTuwEQ-UG5nbdqX-MBk8g5fabKE8L19S2HiYF6VCzM_lh_weFOFPr4ylL1Bnu1Nrlzbk8nQM0ODSv6NnRACxB4-fjbekLFwZugGLUZDjcjP-ND_exXOjAcval9g9QJsUkExuUHsJnqD_m80]--></g></svg>