<svg xmlns="http://www.w3.org/2000/svg" xmlns:xlink="http://www.w3.org/1999/xlink" version="1.1" data-diagram-type="SEQUENCE" style="width:1524px;height:802px;background:#FFFFFF;" width="1524px" height="802px" viewBox="0 0 1524 802" zoomAndPan="magnify" preserveAspectRatio="none" contentStyleType="text/css"><?plantuml 1.2026.7?><defs/><g font-family="sans-serif" lengthAdjust="spacing"><g class="title" data-source-line="2"><text x="620.643" y="31.044" fill="#000" font-size="14" textLength="280.971" font-weight="700">OBJ-SEQ05 UC05 视频观看互动（对象级）</text></g><g><title>..</title><rect x="34" y="130.24" width="8" height="581.042" fill="#000" fill-opacity="0"/><line x1="37.5" y1="130.24" x2="37.5" y2="711.282" style="stroke:#7C93A8;stroke-width:0.5;stroke-dasharray:5,5;"/></g><g><title>videoDetailPage. VideoDetailPage</title><rect x="185.517" y="130.24" width="8" height="581.042" fill="#000" fill-opacity="0"/><line x1="189.017" y1="130.24" x2="189.017" y2="711.282" style="stroke:#7C93A8;stroke-width:0.5;stroke-dasharray:5,5;"/></g><g><title>videoApi . danmakuApi . commentApi</title><rect x="432.871" y="130.24" width="8" height="581.042" fill="#000" fill-opacity="0"/><line x1="436.371" y1="130.24" x2="436.371" y2="711.282" style="stroke:#7C93A8;stroke-width:0.5;stroke-dasharray:5,5;"/></g><g><title>authMiddleware</title><rect x="622.625" y="130.24" width="8" height="581.042" fill="#000" fill-opacity="0"/><line x1="626.125" y1="130.24" x2="626.125" y2="711.282" style="stroke:#7C93A8;stroke-width:0.5;stroke-dasharray:5,5;"/></g><g><title>video . danmaku . commentHandler</title><rect x="806.542" y="130.24" width="8" height="581.042" fill="#000" fill-opacity="0"/><line x1="810.042" y1="130.24" x2="810.042" y2="711.282" style="stroke:#7C93A8;stroke-width:0.5;stroke-dasharray:5,5;"/></g><g><title>db. .gorm.DB</title><rect x="1158.96" y="130.24" width="8" height="581.042" fill="#000" fill-opacity="0"/><line x1="1162.46" y1="130.24" x2="1162.46" y2="711.282" style="stroke:#7C93A8;stroke-width:0.5;stroke-dasharray:5,5;"/></g><g><title>relation. Like . Collect . Danmaku . Comment</title><rect x="1363.867" y="130.24" width="8" height="581.042" fill="#000" fill-opacity="0"/><line x1="1367.367" y1="130.24" x2="1367.367" y2="711.282" style="stroke:#7C93A8;stroke-width:0.5;stroke-dasharray:5,5;"/></g><text x="20.5" y="127.164" fill="#000" font-size="14" textLength="28">用户</text><ellipse cx="37.5" cy="66.62" rx="16" ry="16" fill="#EAF3FA" style="stroke:#315A7D;stroke-width:0.5;"/><path d="M37.5,86.62 C41.5,86.62 44.5,86.62 48.5,82.62 C56.5,82.62 64.5,90.62 64.5,98.62 L64.5,102.62 C64.5,106.62 60.5,110.62 56.5,110.62 L18.5,110.62 C14.5,110.62 10.5,106.62 10.5,102.62 L10.5,98.62 C10.5,90.62 18.5,82.62 26.5,82.62 C30.5,86.62 33.5,86.62 37.5,86.62" style="stroke:#315A7D;stroke-width:0.5;" fill="#EAF3FA"/><rect x="75" y="96.12" width="228.033" height="33.12" fill="#F7FAFC" style="stroke:#315A7D;stroke-width:0.5;" rx="5" ry="5"/><text x="82" y="119.164" fill="#000" font-size="14" textLength="214.033">videoDetailPage: VideoDetailPage</text><rect x="313.033" y="96.12" width="246.675" height="33.12" fill="#F7FAFC" style="stroke:#315A7D;stroke-width:0.5;" rx="5" ry="5"/><text x="320.033" y="119.164" fill="#000" font-size="14" textLength="232.675">videoApi / danmakuApi / commentApi</text><rect x="569.708" y="96.12" width="112.834" height="33.12" fill="#F7FAFC" style="stroke:#315A7D;stroke-width:0.5;" rx="5" ry="5"/><text x="576.708" y="119.164" fill="#000" font-size="14" textLength="98.834">authMiddleware</text><rect x="692.542" y="96.12" width="234.999" height="33.12" fill="#F7FAFC" style="stroke:#315A7D;stroke-width:0.5;" rx="5" ry="5"/><text x="699.542" y="119.164" fill="#000" font-size="14" textLength="220.999">video / danmaku / commentHandler</text><rect x="1113.443" y="96.12" width="98.034" height="33.12" fill="#F7FAFC" style="stroke:#315A7D;stroke-width:0.5;" rx="5" ry="5"/><text x="1120.443" y="119.164" fill="#000" font-size="14" textLength="84.034">db: *gorm.DB</text><rect x="1221.478" y="96.12" width="291.778" height="33.12" fill="#F7FAFC" style="stroke:#315A7D;stroke-width:0.5;" rx="5" ry="5"/><text x="1228.478" y="119.164" fill="#000" font-size="14" textLength="277.778">relation: Like / Collect / Danmaku / Comment</text><text x="20.5" y="727.326" fill="#000" font-size="14" textLength="28">用户</text><ellipse cx="37.5" cy="746.902" rx="16" ry="16" fill="#EAF3FA" style="stroke:#315A7D;stroke-width:0.5;"/><path d="M37.5,766.902 C41.5,766.902 44.5,766.902 48.5,762.902 C56.5,762.902 64.5,770.902 64.5,778.902 L64.5,782.902 C64.5,786.902 60.5,790.902 56.5,790.902 L18.5,790.902 C14.5,790.902 10.5,786.902 10.5,782.902 L10.5,778.902 C10.5,770.902 18.5,762.902 26.5,762.902 C30.5,766.902 33.5,766.902 37.5,766.902" style="stroke:#315A7D;stroke-width:0.5;" fill="#EAF3FA"/><rect x="75" y="711.282" width="228.033" height="33.12" fill="#F7FAFC" style="stroke:#315A7D;stroke-width:0.5;" rx="5" ry="5"/><text x="82" y="734.326" fill="#000" font-size="14" textLength="214.033">videoDetailPage: VideoDetailPage</text><rect x="313.033" y="711.282" width="246.675" height="33.12" fill="#F7FAFC" style="stroke:#315A7D;stroke-width:0.5;" rx="5" ry="5"/><text x="320.033" y="734.326" fill="#000" font-size="14" textLength="232.675">videoApi / danmakuApi / commentApi</text><rect x="569.708" y="711.282" width="112.834" height="33.12" fill="#F7FAFC" style="stroke:#315A7D;stroke-width:0.5;" rx="5" ry="5"/><text x="576.708" y="734.326" fill="#000" font-size="14" textLength="98.834">authMiddleware</text><rect x="692.542" y="711.282" width="234.999" height="33.12" fill="#F7FAFC" style="stroke:#315A7D;stroke-width:0.5;" rx="5" ry="5"/><text x="699.542" y="734.326" fill="#000" font-size="14" textLength="220.999">video / danmaku / commentHandler</text><rect x="1113.443" y="711.282" width="98.034" height="33.12" fill="#F7FAFC" style="stroke:#315A7D;stroke-width:0.5;" rx="5" ry="5"/><text x="1120.443" y="734.326" fill="#000" font-size="14" textLength="84.034">db: *gorm.DB</text><rect x="1221.478" y="711.282" width="291.778" height="33.12" fill="#F7FAFC" style="stroke:#315A7D;stroke-width:0.5;" rx="5" ry="5"/><text x="1228.478" y="734.326" fill="#000" font-size="14" textLength="277.778">relation: Like / Collect / Danmaku / Comment</text><polygon points="177.017,159.36,187.017,163.36,177.017,167.36,181.017,163.36" fill="#315A7D" style="stroke:#315A7D;stroke-width:1;stroke-linejoin:miter;stroke-miterlimit:10;"/><line x1="37.5" y1="163.36" x2="183.017" y2="163.36" style="stroke:#315A7D;stroke-width:1.2;"/><text x="44.5" y="158.284" fill="#000" font-size="14" textLength="84">点击发送弹幕</text><polygon points="424.371,192.48,434.371,196.48,424.371,200.48,428.371,196.48" fill="#315A7D" style="stroke:#315A7D;stroke-width:1;stroke-linejoin:miter;stroke-miterlimit:10;"/><line x1="189.017" y1="196.48" x2="430.371" y2="196.48" style="stroke:#315A7D;stroke-width:1.2;"/><text x="196.017" y="191.404" fill="#000" font-size="14" textLength="140.861">danmakuApi.send(dto)</text><polygon points="614.125,225.601,624.125,229.601,614.125,233.601,618.125,229.601" fill="#315A7D" style="stroke:#315A7D;stroke-width:1;stroke-linejoin:miter;stroke-miterlimit:10;"/><line x1="436.371" y1="229.601" x2="620.125" y2="229.601" style="stroke:#315A7D;stroke-width:1.2;"/><text x="443.371" y="224.524" fill="#000" font-size="14" textLength="144.737">POST /api/v1/danmaku</text><polygon points="798.042,258.721,808.042,262.721,798.042,266.721,802.042,262.721" fill="#315A7D" style="stroke:#315A7D;stroke-width:1;stroke-linejoin:miter;stroke-miterlimit:10;"/><line x1="626.125" y1="262.721" x2="804.042" y2="262.721" style="stroke:#315A7D;stroke-width:1.2;"/><text x="633.125" y="257.645" fill="#000" font-size="14" textLength="136.186">SendHandler(context)</text><polygon points="1150.46,291.841,1160.46,295.841,1150.46,299.841,1154.46,295.841" fill="#315A7D" style="stroke:#315A7D;stroke-width:1;stroke-linejoin:miter;stroke-miterlimit:10;"/><line x1="810.042" y1="295.841" x2="1156.46" y2="295.841" style="stroke:#315A7D;stroke-width:1.2;"/><text x="817.042" y="290.765" fill="#000" font-size="14" textLength="125.269">First(Video, videoId)</text><polygon points="1355.367,324.961,1365.367,328.961,1355.367,332.961,1359.367,328.961" fill="#315A7D" style="stroke:#315A7D;stroke-width:1;stroke-linejoin:miter;stroke-miterlimit:10;"/><line x1="810.042" y1="328.961" x2="1361.367" y2="328.961" style="stroke:#315A7D;stroke-width:1.2;"/><text x="817.042" y="323.885" fill="#000" font-size="14" textLength="278.578">new Danmaku(userId, videoId, time, content)</text><polygon points="1150.46,358.081,1160.46,362.081,1150.46,366.081,1154.46,362.081" fill="#315A7D" style="stroke:#315A7D;stroke-width:1;stroke-linejoin:miter;stroke-miterlimit:10;"/><line x1="810.042" y1="362.081" x2="1156.46" y2="362.081" style="stroke:#315A7D;stroke-width:1.2;"/><text x="817.042" y="357.005" fill="#000" font-size="14" textLength="108.938">Create(danmaku)</text><polygon points="821.042,391.201,811.042,395.201,821.042,399.201,817.042,395.201" fill="#315A7D" style="stroke:#315A7D;stroke-width:1;stroke-linejoin:miter;stroke-miterlimit:10;"/><line x1="815.042" y1="395.201" x2="1161.46" y2="395.201" style="stroke:#315A7D;stroke-width:1.2;stroke-dasharray:2,2;"/><text x="827.042" y="390.125" fill="#000" font-size="14" textLength="70">持久化成功</text><polygon points="447.371,424.321,437.371,428.321,447.371,432.321,443.371,428.321" fill="#315A7D" style="stroke:#315A7D;stroke-width:1;stroke-linejoin:miter;stroke-miterlimit:10;"/><line x1="441.371" y1="428.321" x2="809.042" y2="428.321" style="stroke:#315A7D;stroke-width:1.2;stroke-dasharray:2,2;"/><text x="453.371" y="423.245" fill="#000" font-size="14" textLength="128.782">Danmaku + UserInfo</text><polygon points="200.017,457.441,190.017,461.441,200.017,465.441,196.017,461.441" fill="#315A7D" style="stroke:#315A7D;stroke-width:1;stroke-linejoin:miter;stroke-miterlimit:10;"/><line x1="194.017" y1="461.441" x2="435.371" y2="461.441" style="stroke:#315A7D;stroke-width:1.2;stroke-dasharray:2,2;"/><text x="206.017" y="456.365" fill="#000" font-size="14" textLength="84">更新弹幕列表</text><polygon points="177.017,490.562,187.017,494.562,177.017,498.562,181.017,494.562" fill="#315A7D" style="stroke:#315A7D;stroke-width:1;stroke-linejoin:miter;stroke-miterlimit:10;"/><line x1="37.5" y1="494.562" x2="183.017" y2="494.562" style="stroke:#315A7D;stroke-width:1.2;"/><text x="44.5" y="489.485" fill="#000" font-size="14" textLength="87.89">点击点赞/收藏</text><polygon points="424.371,523.682,434.371,527.682,424.371,531.682,428.371,527.682" fill="#315A7D" style="stroke:#315A7D;stroke-width:1;stroke-linejoin:miter;stroke-miterlimit:10;"/><line x1="189.017" y1="527.682" x2="430.371" y2="527.682" style="stroke:#315A7D;stroke-width:1.2;"/><text x="196.017" y="522.605" fill="#000" font-size="14" textLength="210.902">toggleLike / toggleCollect(videoId)</text><polygon points="798.042,556.802,808.042,560.802,798.042,564.802,802.042,560.802" fill="#315A7D" style="stroke:#315A7D;stroke-width:1;stroke-linejoin:miter;stroke-miterlimit:10;"/><line x1="436.371" y1="560.802" x2="804.042" y2="560.802" style="stroke:#315A7D;stroke-width:1.2;"/><text x="443.371" y="555.726" fill="#000" font-size="14" textLength="178.199">LikeHandler / CollectHandler</text><polygon points="1150.46,589.922,1160.46,593.922,1150.46,597.922,1154.46,593.922" fill="#315A7D" style="stroke:#315A7D;stroke-width:1;stroke-linejoin:miter;stroke-miterlimit:10;"/><line x1="810.042" y1="593.922" x2="1156.46" y2="593.922" style="stroke:#315A7D;stroke-width:1.2;"/><text x="817.042" y="588.846" fill="#000" font-size="14" textLength="328.419">Transaction(find/create/delete relation, update count)</text><polygon points="821.042,623.042,811.042,627.042,821.042,631.042,817.042,627.042" fill="#315A7D" style="stroke:#315A7D;stroke-width:1;stroke-linejoin:miter;stroke-miterlimit:10;"/><line x1="815.042" y1="627.042" x2="1161.46" y2="627.042" style="stroke:#315A7D;stroke-width:1.2;stroke-dasharray:2,2;"/><text x="827.042" y="621.966" fill="#000" font-size="14" textLength="56">事务提交</text><polygon points="447.371,656.162,437.371,660.162,447.371,664.162,443.371,660.162" fill="#315A7D" style="stroke:#315A7D;stroke-width:1;stroke-linejoin:miter;stroke-miterlimit:10;"/><line x1="441.371" y1="660.162" x2="809.042" y2="660.162" style="stroke:#315A7D;stroke-width:1.2;stroke-dasharray:2,2;"/><text x="453.371" y="655.086" fill="#000" font-size="14" textLength="145.92">liked / collected + count</text><polygon points="200.017,689.282,190.017,693.282,200.017,697.282,196.017,693.282" fill="#315A7D" style="stroke:#315A7D;stroke-width:1;stroke-linejoin:miter;stroke-miterlimit:10;"/><line x1="194.017" y1="693.282" x2="435.371" y2="693.282" style="stroke:#315A7D;stroke-width:1.2;stroke-dasharray:2,2;"/><text x="206.017" y="688.206" fill="#000" font-size="14" textLength="84">更新互动状态</text><?plantuml-src RPDFRzCm6CRl-HIcfvHr3Houv834MX13e0rruuhS-5rhBN6YrDauhfDWfPlK3Otj008L8RKtG8AXbdwS9irE-mhOJfgkMo-H_VfvtZy_EtSei-o002eMZTUy3WuKlS2nDKwv3MXjvTbovV7BUm_GPabyujwxosydSMz_ylbmFFmGjljNerRuOn3_waw6lQlHUmrRtFLHRdBQZrf_SmWtKD00N_Empwb5FSmuokrG0cuPEARsEgw1YLxD1vJD4ui5jaSUHGOYc3buEqWsbkiumBZOA2FswBmF1xp-WX9Ymoxsa-Goj23vBFCixLFCXDDNjdgoddUIgedkrbpVAPPNb8fKvmK-s9XJbvdeETq6aRdasZPONApAMRLIKaqbc1eqJR93omyL31DDzWVXmR-mStAvrmn7Wt3mKPC7KY26DgzHAJQ04PrmDw-94oKG4vjeVQsoWGmHCdRk6wbSaqTIaavdeeemfsFhbiiulE5vBJsLGZdn4-etkAukhe0Kl5Ko9vfDpM1tEgWk1rebcQE0E7MWW5GLThjAoGVCGKyxpMkaYfQlTneTDSU3j-7HMTGw3jjVP_OfaYdW9RGfAxCjDm6ICOq-_OxEVYOqmzPvtEqlX2w-yPylHdHw4PztvgbpjrQp8RtQP9DUi9vnIIyXwrkgKyApzv06RZBOy35hYDzAiDItA2E6fQ0O16pWa74keC0Z8YvO1fBaJLJZuM7OxaQTu_7m-srEjcY8g4UlMX7hfIJHGbp9hpzfNqHxpVy0?></g></svg>